<ttFont>
    <TTGlyph name="A" xMin="23" yMin="2" xMax="1402" yMax="1390">
      <contour>
        <pt x="857" y="593" on="1"/>
        <pt x="857" y="599" on="1"/>
        <pt x="857" y="693" on="0"/>
        <pt x="696" y="1069" on="1"/>
        <pt x="668" y="1134" on="0"/>
        <pt x="667" y="1134" on="1"/>
        <pt x="638" y="1067" on="1"/>
        <pt x="472" y="680" on="0"/>
        <pt x="472" y="597" on="1"/>
        <pt x="472" y="583" on="0"/>
        <pt x="507" y="581" on="0"/>
        <pt x="516" y="581" on="1"/>
        <pt x="594" y="579" on="1"/>
        <pt x="665" y="579" on="1"/>
        <pt x="672" y="580" on="1"/>
        <pt x="857" y="580" on="0"/>
      </contour>
      <contour>
        <pt x="23" y="60" on="1"/>
        <pt x="23" y="85" on="0"/>
        <pt x="137" y="151" on="0"/>
        <pt x="191" y="253" on="0"/>
        <pt x="289" y="520" on="0"/>
        <pt x="458" y="926" on="0"/>
        <pt x="557" y="1249" on="0"/>
        <pt x="575" y="1292" on="1"/>
        <pt x="616" y="1390" on="0"/>
        <pt x="691" y="1390" on="1"/>
        <pt x="719" y="1390" on="1"/>
        <pt x="738" y="1390" on="0"/>
        <pt x="766" y="1369" on="1"/>
        <pt x="823" y="1326" on="0"/>
        <pt x="885" y="1185" on="1"/>
        <pt x="906" y="1137" on="0"/>
        <pt x="990" y="904" on="0"/>
        <pt x="1242" y="226" on="0"/>
        <pt x="1257" y="196" on="1"/>
        <pt x="1282" y="144" on="0"/>
        <pt x="1402" y="81" on="0"/>
        <pt x="1402" y="62" on="1"/>
        <pt x="1402" y="20" on="0"/>
        <pt x="1352" y="10" on="1"/>
        <pt x="1318" y="3" on="0"/>
        <pt x="1180" y="3" on="1"/>
        <pt x="1122" y="2" on="1"/>
        <pt x="937" y="2" on="0"/>
        <pt x="937" y="52" on="1"/>
        <pt x="937" y="61" on="0"/>
        <pt x="984" y="129" on="0"/>
        <pt x="984" y="233" on="0"/>
        <pt x="909" y="427" on="0"/>
        <pt x="858" y="473" on="0"/>
        <pt x="474" y="473" on="0"/>
        <pt x="410" y="431" on="0"/>
        <pt x="336" y="247" on="0"/>
        <pt x="336" y="132" on="0"/>
        <pt x="407" y="44" on="0"/>
        <pt x="407" y="42" on="1"/>
        <pt x="407" y="6" on="0"/>
        <pt x="162" y="6" on="0"/>
        <pt x="23" y="25" on="0"/>
      </contour>
    </TTGlyph>
    <TTGlyph name="AE" xMin="38" yMin="2" xMax="1807" yMax="1375">
      <contour>
        <pt x="852" y="613" on="1"/>
        <pt x="896" y="613" on="0"/>
        <pt x="912" y="646" on="0"/>
        <pt x="912" y="753" on="1"/>
        <pt x="913" y="769" on="1"/>
        <pt x="913" y="838" on="1"/>
        <pt x="911" y="862" on="1"/>
        <pt x="910" y="870" on="1"/>
        <pt x="910" y="922" on="1"/>
        <pt x="912" y="955" on="1"/>
        <pt x="912" y="963" on="0"/>
        <pt x="912" y="971" on="1"/>
        <pt x="917" y="1068" on="1"/>
        <pt x="917" y="1076" on="0"/>
        <pt x="917" y="1084" on="1"/>
        <pt x="918" y="1107" on="1"/>
        <pt x="918" y="1115" on="0"/>
        <pt x="918" y="1123" on="1"/>
        <pt x="919" y="1138" on="1"/>
        <pt x="919" y="1189" on="0"/>
        <pt x="910" y="1189" on="1"/>
        <pt x="905" y="1189" on="1"/>
        <pt x="880" y="1189" on="0"/>
        <pt x="815" y="1068" on="1"/>
        <pt x="791" y="1023" on="0"/>
        <pt x="710" y="882" on="0"/>
        <pt x="651" y="755" on="0"/>
        <pt x="602" y="679" on="1"/>
        <pt x="572" y="626" on="0"/>
        <pt x="572" y="625" on="1"/>
        <pt x="572" y="615" on="0"/>
        <pt x="631" y="615" on="1"/>
        <pt x="711" y="617" on="1"/>
        <pt x="741" y="616" on="1"/>
        <pt x="749" y="615" on="0"/>
        <pt x="758" y="615" on="1"/>
        <pt x="815" y="613" on="1"/>
      </contour>
      <contour>
        <pt x="1509" y="861" on="1"/>
        <pt x="1572" y="861" on="0"/>
        <pt x="1572" y="677" on="1"/>
        <pt x="1572" y="547" on="0"/>
        <pt x="1518" y="547" on="1"/>
        <pt x="1498" y="547" on="0"/>
        <pt x="1370" y="622" on="0"/>
        <pt x="1242" y="622" on="0"/>
        <pt x="1161" y="545" on="0"/>
        <pt x="1161" y="465" on="1"/>
        <pt x="1161" y="302" on="0"/>
        <pt x="1223" y="201" on="1"/>
        <pt x="1262" y="137" on="0"/>
        <pt x="1366" y="137" on="1"/>
        <pt x="1567" y="137" on="0"/>
        <pt x="1730" y="247" on="1"/>
        <pt x="1760" y="267" on="0"/>
        <pt x="1769" y="267" on="1"/>
        <pt x="1807" y="267" on="0"/>
        <pt x="1807" y="108" on="0"/>
        <pt x="1670" y="2" on="0"/>
        <pt x="1510" y="2" on="1"/>
        <pt x="1402" y="2" on="1"/>
        <pt x="1347" y="3" on="1"/>
        <pt x="1293" y="3" on="1"/>
        <pt x="1006" y="3" on="0"/>
        <pt x="853" y="32" on="0"/>
        <pt x="853" y="82" on="1"/>
        <pt x="853" y="87" on="0"/>
        <pt x="925" y="229" on="0"/>
        <pt x="925" y="432" on="0"/>
        <pt x="849" y="516" on="0"/>
        <pt x="766" y="516" on="1"/>
        <pt x="561" y="516" on="0"/>
        <pt x="492" y="444" on="1"/>
        <pt x="441" y="391" on="0"/>
        <pt x="361" y="203" on="0"/>
        <pt x="361" y="134" on="0"/>
        <pt x="402" y="64" on="0"/>
        <pt x="402" y="43" on="1"/>
        <pt x="402" y="5" on="0"/>
        <pt x="38" y="5" on="0"/>
        <pt x="38" y="52" on="1"/>
        <pt x="38" y="82" on="0"/>
        <pt x="176" y="191" on="0"/>
        <pt x="233" y="288" on="1"/>
        <pt x="429" y="618" on="0"/>
        <pt x="678" y="1080" on="1"/>
        <pt x="718" y="1154" on="0"/>
        <pt x="727" y="1208" on="0"/>
        <pt x="732" y="1308" on="0"/>
        <pt x="740" y="1321" on="1"/>
        <pt x="761" y="1354" on="0"/>
        <pt x="897" y="1372" on="0"/>
        <pt x="1196" y="1372" on="0"/>
        <pt x="1249" y="1373" on="1"/>
        <pt x="1413" y="1375" on="1"/>
        <pt x="1585" y="1375" on="0"/>
        <pt x="1650" y="1339" on="1"/>
        <pt x="1735" y="1292" on="0"/>
        <pt x="1735" y="1181" on="1"/>
        <pt x="1735" y="1137" on="0"/>
        <pt x="1709" y="1137" on="1"/>
        <pt x="1698" y="1137" on="0"/>
        <pt x="1642" y="1163" on="1"/>
        <pt x="1462" y="1246" on="0"/>
        <pt x="1242" y="1246" on="0"/>
        <pt x="1206" y="1195" on="1"/>
        <pt x="1154" y="1121" on="0"/>
        <pt x="1154" y="948" on="1"/>
        <pt x="1154" y="868" on="0"/>
        <pt x="1236" y="788" on="0"/>
        <pt x="1367" y="788" on="0"/>
        <pt x="1486" y="861" on="0"/>
      </contour>
    </TTGlyph>
    <TTGlyph name="Aacute" xMin="28" yMin="9" xMax="1373" yMax="1815">
      <contour>
        <pt x="475" y="566" on="1"/>
        <pt x="497" y="566" on="1"/>
        <pt x="505" y="567" on="1"/>
        <pt x="656" y="572" on="1"/>
        <pt x="839" y="572" on="0"/>
        <pt x="839" y="579" on="1"/>
        <pt x="839" y="584" on="1"/>
        <pt x="839" y="629" on="0"/>
        <pt x="682" y="1069" on="1"/>
        <pt x="662" y="1126" on="0"/>
        <pt x="655" y="1126" on="1"/>
        <pt x="653" y="1126" on="0"/>
        <pt x="619" y="1049" on="1"/>
        <pt x="455" y="674" on="0"/>
        <pt x="455" y="578" on="1"/>
        <pt x="455" y="566" on="0"/>
      </contour>
      <contour>
        <pt x="631" y="1469" on="1"/>
        <pt x="620" y="1469" on="1"/>
        <pt x="582" y="1469" on="0"/>
        <pt x="582" y="1507" on="1"/>
        <pt x="582" y="1512" on="1"/>
        <pt x="582" y="1527" on="0"/>
        <pt x="609" y="1562" on="1"/>
        <pt x="742" y="1733" on="0"/>
        <pt x="769" y="1757" on="1"/>
        <pt x="834" y="1815" on="0"/>
        <pt x="889" y="1815" on="1"/>
        <pt x="907" y="1815" on="1"/>
        <pt x="947" y="1815" on="0"/>
        <pt x="1009" y="1767" on="0"/>
        <pt x="1009" y="1748" on="1"/>
        <pt x="1009" y="1737" on="1"/>
        <pt x="1009" y="1692" on="0"/>
        <pt x="953" y="1653" on="1"/>
        <pt x="690" y="1469" on="0"/>
      </contour>
      <contour>
        <pt x="28" y="66" on="1"/>
        <pt x="28" y="86" on="0"/>
        <pt x="150" y="170" on="0"/>
        <pt x="207" y="294" on="0"/>
        <pt x="277" y="495" on="0"/>
        <pt x="420" y="864" on="0"/>
        <pt x="560" y="1278" on="0"/>
        <pt x="575" y="1303" on="1"/>
        <pt x="615" y="1371" on="0"/>
        <pt x="680" y="1371" on="1"/>
        <pt x="707" y="1371" on="1"/>
        <pt x="783" y="1371" on="0"/>
        <pt x="872" y="1174" on="1"/>
        <pt x="876" y="1165" on="0"/>
        <pt x="1210" y="244" on="0"/>
        <pt x="1256" y="152" on="0"/>
        <pt x="1373" y="87" on="0"/>
        <pt x="1373" y="70" on="1"/>
        <pt x="1373" y="34" on="0"/>
        <pt x="1309" y="9" on="0"/>
        <pt x="1122" y="9" on="1"/>
        <pt x="1034" y="9" on="1"/>
        <pt x="904" y="9" on="0"/>
        <pt x="904" y="49" on="1"/>
        <pt x="904" y="56" on="0"/>
        <pt x="960" y="128" on="0"/>
        <pt x="960" y="205" on="0"/>
        <pt x="893" y="394" on="0"/>
        <pt x="837" y="454" on="0"/>
        <pt x="469" y="454" on="0"/>
        <pt x="406" y="416" on="0"/>
        <pt x="339" y="243" on="0"/>
        <pt x="339" y="131" on="0"/>
        <pt x="416" y="43" on="0"/>
        <pt x="416" y="34" on="1"/>
        <pt x="416" y="12" on="0"/>
        <pt x="317" y="12" on="1"/>
        <pt x="28" y="12" on="0"/>
      </contour>
    </TTGlyph>
    <TTGlyph name="Acircumflex" xMin="19" yMin="-3" xMax="1381" yMax="1806">
      <contour>
        <pt x="527" y="579" on="1"/>
        <pt x="725" y="579" on="1"/>
        <pt x="842" y="579" on="0"/>
        <pt x="842" y="595" on="1"/>
        <pt x="842" y="601" on="0"/>
        <pt x="656" y="1122" on="0"/>
        <pt x="651" y="1122" on="1"/>
        <pt x="641" y="1122" on="0"/>
        <pt x="599" y="997" on="0"/>
        <pt x="455" y="637" on="0"/>
        <pt x="455" y="598" on="1"/>
        <pt x="455" y="592" on="1"/>
        <pt x="455" y="579" on="0"/>
      </contour>
      <contour>
        <pt x="694" y="1806" on="1"/>
        <pt x="711" y="1806" on="1"/>
        <pt x="762" y="1806" on="0"/>
        <pt x="809" y="1751" on="1"/>
        <pt x="1013" y="1510" on="0"/>
        <pt x="1013" y="1500" on="1"/>
        <pt x="1013" y="1468" on="0"/>
        <pt x="971" y="1468" on="1"/>
        <pt x="963" y="1468" on="1"/>
        <pt x="906" y="1468" on="0"/>
        <pt x="710" y="1634" on="0"/>
        <pt x="689" y="1634" on="0"/>
        <pt x="494" y="1469" on="0"/>
        <pt x="425" y="1469" on="1"/>
        <pt x="389" y="1469" on="0"/>
        <pt x="389" y="1499" on="1"/>
        <pt x="389" y="1505" on="1"/>
        <pt x="389" y="1548" on="0"/>
        <pt x="607" y="1766" on="1"/>
        <pt x="647" y="1806" on="0"/>
      </contour>
      <contour>
        <pt x="19" y="54" on="1"/>
        <pt x="19" y="69" on="0"/>
        <pt x="98" y="127" on="1"/>
        <pt x="149" y="165" on="0"/>
        <pt x="190" y="261" on="1"/>
        <pt x="193" y="269" on="0"/>
        <pt x="290" y="535" on="0"/>
        <pt x="425" y="886" on="0"/>
        <pt x="556" y="1270" on="0"/>
        <pt x="562" y="1284" on="1"/>
        <pt x="605" y="1377" on="0"/>
        <pt x="680" y="1377" on="1"/>
        <pt x="729" y="1377" on="0"/>
        <pt x="797" y="1327" on="0"/>
        <pt x="883" y="1162" on="0"/>
        <pt x="1194" y="289" on="0"/>
        <pt x="1254" y="154" on="0"/>
        <pt x="1287" y="128" on="1"/>
        <pt x="1295" y="122" on="0"/>
        <pt x="1381" y="79" on="0"/>
        <pt x="1381" y="58" on="1"/>
        <pt x="1381" y="14" on="0"/>
        <pt x="1284" y="-3" on="0"/>
        <pt x="1127" y="-3" on="1"/>
        <pt x="1067" y="-3" on="1"/>
        <pt x="906" y="-3" on="0"/>
        <pt x="906" y="39" on="1"/>
        <pt x="906" y="48" on="0"/>
        <pt x="962" y="119" on="0"/>
        <pt x="962" y="205" on="0"/>
        <pt x="893" y="397" on="0"/>
        <pt x="839" y="453" on="0"/>
        <pt x="464" y="453" on="0"/>
        <pt x="404" y="414" on="0"/>
        <pt x="336" y="240" on="0"/>
        <pt x="336" y="162" on="1"/>
        <pt x="336" y="123" on="0"/>
        <pt x="367" y="90" on="1"/>
        <pt x="417" y="36" on="1"/>
        <pt x="417" y="0" on="0"/>
        <pt x="313" y="0" on="1"/>
        <pt x="124" y="0" on="0"/>
        <pt x="19" y="24" on="0"/>
      </contour>
    </TTGlyph>
    <TTGlyph name="Adieresis" xMin="14" yMin="-3" xMax="1389" yMax="1753">
      <contour>
        <pt x="576" y="574" on="1"/>
        <pt x="638" y="574" on="1"/>
        <pt x="646" y="575" on="1"/>
        <pt x="654" y="575" on="1"/>
        <pt x="836" y="575" on="0"/>
        <pt x="836" y="588" on="1"/>
        <pt x="836" y="594" on="1"/>
        <pt x="836" y="603" on="0"/>
        <pt x="788" y="747" on="1"/>
        <pt x="774" y="785" on="0"/>
        <pt x="758" y="834" on="0"/>
        <pt x="752" y="851" on="1"/>
        <pt x="729" y="914" on="1"/>
        <pt x="694" y="1010" on="1"/>
        <pt x="692" y="1017" on="1"/>
        <pt x="680" y="1048" on="0"/>
        <pt x="655" y="1125" on="0"/>
        <pt x="645" y="1125" on="0"/>
        <pt x="622" y="1067" on="1"/>
        <pt x="456" y="652" on="0"/>
        <pt x="456" y="593" on="1"/>
        <pt x="456" y="574" on="0"/>
      </contour>
      <contour>
        <pt x="517" y="1515" on="1"/>
        <pt x="489" y="1515" on="1"/>
        <pt x="481" y="1517" on="0"/>
        <pt x="478" y="1517" on="1"/>
        <pt x="447" y="1517" on="0"/>
        <pt x="386" y="1578" on="0"/>
        <pt x="386" y="1621" on="1"/>
        <pt x="386" y="1645" on="1"/>
        <pt x="386" y="1686" on="0"/>
        <pt x="453" y="1753" on="0"/>
        <pt x="503" y="1753" on="1"/>
        <pt x="511" y="1753" on="1"/>
        <pt x="555" y="1753" on="0"/>
        <pt x="626" y="1696" on="0"/>
        <pt x="626" y="1650" on="1"/>
        <pt x="626" y="1622" on="1"/>
        <pt x="623" y="1610" on="0"/>
        <pt x="623" y="1577" on="0"/>
        <pt x="561" y="1515" on="0"/>
      </contour>
      <contour>
        <pt x="780" y="1633" on="1"/>
        <pt x="782" y="1652" on="1"/>
        <pt x="782" y="1680" on="0"/>
        <pt x="843" y="1741" on="0"/>
        <pt x="872" y="1741" on="1"/>
        <pt x="892" y="1744" on="1"/>
        <pt x="911" y="1744" on="1"/>
        <pt x="934" y="1740" on="1"/>
        <pt x="951" y="1740" on="0"/>
        <pt x="1014" y="1688" on="0"/>
        <pt x="1014" y="1652" on="1"/>
        <pt x="1017" y="1628" on="1"/>
        <pt x="1017" y="1616" on="1"/>
        <pt x="1017" y="1571" on="0"/>
        <pt x="952" y="1506" on="0"/>
        <pt x="909" y="1506" on="1"/>
        <pt x="885" y="1506" on="1"/>
        <pt x="837" y="1506" on="0"/>
        <pt x="779" y="1575" on="0"/>
        <pt x="779" y="1617" on="1"/>
        <pt x="779" y="1629" on="1"/>
      </contour>
      <contour>
        <pt x="14" y="50" on="1"/>
        <pt x="14" y="69" on="0"/>
        <pt x="90" y="120" on="1"/>
        <pt x="137" y="152" on="0"/>
        <pt x="201" y="296" on="0"/>
        <pt x="259" y="465" on="0"/>
        <pt x="470" y="988" on="0"/>
        <pt x="549" y="1258" on="0"/>
        <pt x="569" y="1296" on="1"/>
        <pt x="607" y="1368" on="0"/>
        <pt x="674" y="1368" on="1"/>
        <pt x="702" y="1368" on="1"/>
        <pt x="787" y="1368" on="0"/>
        <pt x="874" y="1173" on="1"/>
        <pt x="890" y="1137" on="0"/>
        <pt x="1023" y="760" on="0"/>
        <pt x="1146" y="449" on="0"/>
        <pt x="1232" y="203" on="0"/>
        <pt x="1279" y="128" on="0"/>
        <pt x="1389" y="71" on="0"/>
        <pt x="1389" y="55" on="1"/>
        <pt x="1389" y="35" on="1"/>
        <pt x="1389" y="-3" on="0"/>
        <pt x="1227" y="-3" on="1"/>
        <pt x="1109" y="-3" on="1"/>
        <pt x="1079" y="-2" on="1"/>
        <pt x="1049" y="-1" on="0"/>
        <pt x="1021" y="-1" on="1"/>
        <pt x="913" y="-1" on="0"/>
        <pt x="913" y="39" on="1"/>
        <pt x="913" y="49" on="0"/>
        <pt x="968" y="130" on="0"/>
        <pt x="968" y="214" on="0"/>
        <pt x="900" y="405" on="0"/>
        <pt x="849" y="462" on="0"/>
        <pt x="460" y="462" on="0"/>
        <pt x="402" y="426" on="0"/>
        <pt x="328" y="248" on="0"/>
        <pt x="328" y="171" on="1"/>
        <pt x="328" y="131" on="0"/>
        <pt x="413" y="49" on="0"/>
        <pt x="413" y="4" on="0"/>
        <pt x="254" y="4" on="1"/>
        <pt x="14" y="4" on="0"/>
      </contour>
    </TTGlyph>
    <TTGlyph name="Agrave" xMin="13" yMin="-5" xMax="1389" yMax="1811">
      <contour>
        <pt x="587" y="574" on="1"/>
        <pt x="783" y="574" on="1"/>
        <pt x="843" y="574" on="0"/>
        <pt x="843" y="590" on="1"/>
        <pt x="843" y="594" on="0"/>
        <pt x="806" y="705" on="1"/>
        <pt x="796" y="735" on="1"/>
        <pt x="793" y="743" on="1"/>
        <pt x="790" y="750" on="1"/>
        <pt x="780" y="780" on="1"/>
        <pt x="774" y="795" on="1"/>
        <pt x="769" y="810" on="1"/>
        <pt x="722" y="935" on="1"/>
        <pt x="684" y="1031" on="0"/>
        <pt x="654" y="1122" on="0"/>
        <pt x="641" y="1122" on="0"/>
        <pt x="619" y="1060" on="1"/>
        <pt x="460" y="615" on="0"/>
        <pt x="460" y="596" on="1"/>
        <pt x="460" y="590" on="1"/>
        <pt x="460" y="574" on="0"/>
      </contour>
      <contour>
        <pt x="776" y="1478" on="1"/>
        <pt x="759" y="1478" on="1"/>
        <pt x="690" y="1478" on="0"/>
        <pt x="502" y="1624" on="1"/>
        <pt x="394" y="1708" on="0"/>
        <pt x="394" y="1742" on="1"/>
        <pt x="394" y="1748" on="1"/>
        <pt x="395" y="1753" on="1"/>
        <pt x="395" y="1769" on="0"/>
        <pt x="449" y="1811" on="0"/>
        <pt x="490" y="1811" on="1"/>
        <pt x="507" y="1811" on="1"/>
        <pt x="517" y="1809" on="0"/>
        <pt x="523" y="1809" on="1"/>
        <pt x="575" y="1809" on="0"/>
        <pt x="637" y="1739" on="1"/>
        <pt x="811" y="1543" on="0"/>
        <pt x="811" y="1519" on="1"/>
        <pt x="811" y="1505" on="1"/>
        <pt x="811" y="1478" on="0"/>
      </contour>
      <contour>
        <pt x="13" y="48" on="1"/>
        <pt x="13" y="66" on="0"/>
        <pt x="89" y="118" on="1"/>
        <pt x="134" y="149" on="0"/>
        <pt x="193" y="274" on="0"/>
        <pt x="267" y="483" on="0"/>
        <pt x="465" y="974" on="0"/>
        <pt x="549" y="1258" on="0"/>
        <pt x="569" y="1294" on="1"/>
        <pt x="608" y="1366" on="0"/>
        <pt x="674" y="1366" on="1"/>
        <pt x="702" y="1366" on="1"/>
        <pt x="772" y="1366" on="0"/>
        <pt x="848" y="1222" on="1"/>
        <pt x="850" y="1218" on="0"/>
        <pt x="1234" y="206" on="0"/>
        <pt x="1244" y="185" on="1"/>
        <pt x="1269" y="133" on="0"/>
        <pt x="1389" y="68" on="0"/>
        <pt x="1389" y="34" on="1"/>
        <pt x="1389" y="-5" on="0"/>
        <pt x="1227" y="-5" on="1"/>
        <pt x="1109" y="-5" on="1"/>
        <pt x="1079" y="-4" on="1"/>
        <pt x="1049" y="-3" on="0"/>
        <pt x="1021" y="-3" on="1"/>
        <pt x="913" y="-3" on="0"/>
        <pt x="913" y="37" on="1"/>
        <pt x="913" y="50" on="0"/>
        <pt x="967" y="126" on="0"/>
        <pt x="967" y="214" on="0"/>
        <pt x="900" y="400" on="0"/>
        <pt x="847" y="460" on="0"/>
        <pt x="461" y="460" on="0"/>
        <pt x="403" y="426" on="0"/>
        <pt x="328" y="249" on="0"/>
        <pt x="328" y="169" on="1"/>
        <pt x="328" y="128" on="0"/>
        <pt x="413" y="46" on="0"/>
        <pt x="413" y="26" on="1"/>
        <pt x="413" y="1" on="0"/>
        <pt x="283" y="1" on="1"/>
        <pt x="254" y="2" on="1"/>
        <pt x="225" y="3" on="0"/>
        <pt x="197" y="3" on="1"/>
        <pt x="13" y="3" on="0"/>
      </contour>
    </TTGlyph>
    <TTGlyph name="Aring" xMin="18" yMin="-12" xMax="1370" yMax="1812">
      <contour>
        <pt x="579" y="1633" on="1"/>
        <pt x="579" y="1608" on="1"/>
        <pt x="579" y="1571" on="0"/>
        <pt x="637" y="1513" on="0"/>
        <pt x="666" y="1513" on="1"/>
        <pt x="673" y="1511" on="1"/>
        <pt x="703" y="1511" on="1"/>
        <pt x="715" y="1514" on="0"/>
        <pt x="740" y="1514" on="0"/>
        <pt x="797" y="1571" on="0"/>
        <pt x="797" y="1612" on="1"/>
        <pt x="797" y="1627" on="1"/>
        <pt x="796" y="1630" on="1"/>
        <pt x="796" y="1637" on="1"/>
        <pt x="794" y="1645" on="0"/>
        <pt x="794" y="1669" on="0"/>
        <pt x="736" y="1727" on="0"/>
        <pt x="702" y="1727" on="1"/>
        <pt x="672" y="1727" on="1"/>
        <pt x="664" y="1725" on="0"/>
        <pt x="636" y="1725" on="0"/>
        <pt x="579" y="1668" on="0"/>
      </contour>
      <contour>
        <pt x="498" y="549" on="1"/>
        <pt x="513" y="549" on="1"/>
        <pt x="521" y="550" on="1"/>
        <pt x="644" y="553" on="1"/>
        <pt x="830" y="553" on="0"/>
        <pt x="830" y="560" on="1"/>
        <pt x="830" y="575" on="0"/>
        <pt x="754" y="803" on="1"/>
        <pt x="712" y="929" on="1"/>
        <pt x="669" y="1037" on="0"/>
        <pt x="650" y="1104" on="0"/>
        <pt x="638" y="1104" on="0"/>
        <pt x="617" y="1029" on="0"/>
        <pt x="605" y="997" on="1"/>
        <pt x="594" y="964" on="0"/>
        <pt x="574" y="904" on="0"/>
        <pt x="560" y="869" on="0"/>
        <pt x="541" y="812" on="1"/>
        <pt x="459" y="566" on="1"/>
        <pt x="459" y="560" on="1"/>
        <pt x="459" y="549" on="0"/>
      </contour>
      <contour>
        <pt x="481" y="1603" on="1"/>
        <pt x="481" y="1629" on="1"/>
        <pt x="481" y="1704" on="0"/>
        <pt x="603" y="1812" on="0"/>
        <pt x="686" y="1812" on="1"/>
        <pt x="693" y="1812" on="1"/>
        <pt x="784" y="1812" on="0"/>
        <pt x="895" y="1701" on="0"/>
        <pt x="895" y="1628" on="1"/>
        <pt x="895" y="1615" on="1"/>
        <pt x="895" y="1535" on="0"/>
        <pt x="772" y="1426" on="0"/>
        <pt x="696" y="1426" on="1"/>
        <pt x="669" y="1426" on="1"/>
        <pt x="655" y="1428" on="0"/>
        <pt x="649" y="1428" on="1"/>
        <pt x="583" y="1428" on="0"/>
        <pt x="481" y="1543" on="0"/>
      </contour>
      <contour>
        <pt x="693" y="1353" on="1"/>
        <pt x="739" y="1353" on="0"/>
        <pt x="821" y="1259" on="0"/>
        <pt x="879" y="1143" on="0"/>
        <pt x="996" y="809" on="0"/>
        <pt x="1205" y="233" on="0"/>
        <pt x="1214" y="212" on="1"/>
        <pt x="1250" y="132" on="0"/>
        <pt x="1295" y="106" on="1"/>
        <pt x="1370" y="63" on="0"/>
        <pt x="1370" y="34" on="1"/>
        <pt x="1370" y="-12" on="0"/>
        <pt x="1121" y="-12" on="1"/>
        <pt x="1092" y="-12" on="1"/>
        <pt x="1064" y="-11" on="1"/>
        <pt x="896" y="-11" on="0"/>
        <pt x="896" y="26" on="1"/>
        <pt x="896" y="38" on="0"/>
        <pt x="954" y="111" on="0"/>
        <pt x="954" y="193" on="0"/>
        <pt x="888" y="386" on="0"/>
        <pt x="869" y="410" on="1"/>
        <pt x="842" y="446" on="0"/>
        <pt x="466" y="446" on="0"/>
        <pt x="406" y="412" on="0"/>
        <pt x="331" y="232" on="0"/>
        <pt x="331" y="136" on="1"/>
        <pt x="331" y="108" on="0"/>
        <pt x="408" y="39" on="0"/>
        <pt x="408" y="-8" on="0"/>
        <pt x="315" y="-8" on="1"/>
        <pt x="85" y="-8" on="0"/>
        <pt x="18" y="28" on="0"/>
        <pt x="18" y="67" on="0"/>
        <pt x="142" y="157" on="0"/>
        <pt x="180" y="245" on="1"/>
        <pt x="195" y="280" on="0"/>
        <pt x="276" y="512" on="0"/>
        <pt x="442" y="933" on="0"/>
        <pt x="535" y="1232" on="0"/>
        <pt x="548" y="1259" on="1"/>
        <pt x="593" y="1353" on="0"/>
      </contour>
    </TTGlyph>
    <TTGlyph name="Atilde" xMin="12" yMin="-3" xMax="1389" yMax="1746">
      <contour>
        <pt x="528" y="578" on="1"/>
        <pt x="655" y="578" on="1"/>
        <pt x="663" y="579" on="1"/>
        <pt x="844" y="579" on="0"/>
        <pt x="844" y="595" on="1"/>
        <pt x="844" y="597" on="0"/>
        <pt x="657" y="1121" on="0"/>
        <pt x="641" y="1121" on="0"/>
        <pt x="608" y="1021" on="0"/>
        <pt x="456" y="641" on="0"/>
        <pt x="456" y="598" on="1"/>
        <pt x="456" y="592" on="1"/>
        <pt x="456" y="578" on="0"/>
      </contour>
      <contour>
        <pt x="562" y="1746" on="1"/>
        <pt x="586" y="1746" on="1"/>
        <pt x="640" y="1746" on="0"/>
        <pt x="810" y="1656" on="0"/>
        <pt x="900" y="1656" on="0"/>
        <pt x="993" y="1734" on="0"/>
        <pt x="1008" y="1734" on="1"/>
        <pt x="1045" y="1734" on="0"/>
        <pt x="1045" y="1701" on="1"/>
        <pt x="1045" y="1631" on="0"/>
        <pt x="909" y="1506" on="0"/>
        <pt x="845" y="1506" on="1"/>
        <pt x="829" y="1506" on="1"/>
        <pt x="820" y="1507" on="1"/>
        <pt x="776" y="1507" on="0"/>
        <pt x="587" y="1596" on="0"/>
        <pt x="508" y="1596" on="0"/>
        <pt x="406" y="1518" on="0"/>
        <pt x="396" y="1518" on="1"/>
        <pt x="360" y="1518" on="0"/>
        <pt x="360" y="1551" on="1"/>
        <pt x="360" y="1559" on="1"/>
        <pt x="360" y="1618" on="0"/>
        <pt x="499" y="1746" on="0"/>
      </contour>
      <contour>
        <pt x="12" y="50" on="1"/>
        <pt x="12" y="78" on="0"/>
        <pt x="123" y="138" on="0"/>
        <pt x="177" y="237" on="0"/>
        <pt x="280" y="519" on="0"/>
        <pt x="446" y="931" on="0"/>
        <pt x="551" y="1256" on="0"/>
        <pt x="559" y="1272" on="1"/>
        <pt x="603" y="1368" on="0"/>
        <pt x="676" y="1368" on="1"/>
        <pt x="704" y="1368" on="1"/>
        <pt x="788" y="1368" on="0"/>
        <pt x="874" y="1173" on="1"/>
        <pt x="887" y="1144" on="0"/>
        <pt x="964" y="924" on="1"/>
        <pt x="1061" y="664" on="1"/>
        <pt x="1234" y="200" on="0"/>
        <pt x="1280" y="128" on="0"/>
        <pt x="1389" y="72" on="0"/>
        <pt x="1389" y="55" on="1"/>
        <pt x="1389" y="35" on="1"/>
        <pt x="1389" y="-3" on="0"/>
        <pt x="1197" y="-3" on="1"/>
        <pt x="1109" y="-3" on="1"/>
        <pt x="1079" y="-2" on="1"/>
        <pt x="1049" y="-1" on="0"/>
        <pt x="1020" y="-1" on="1"/>
        <pt x="913" y="-1" on="0"/>
        <pt x="913" y="39" on="1"/>
        <pt x="913" y="49" on="0"/>
        <pt x="967" y="129" on="0"/>
        <pt x="967" y="217" on="0"/>
        <pt x="901" y="402" on="0"/>
        <pt x="848" y="462" on="0"/>
        <pt x="461" y="462" on="0"/>
        <pt x="403" y="428" on="0"/>
        <pt x="328" y="251" on="0"/>
        <pt x="328" y="129" on="0"/>
        <pt x="360" y="98" on="1"/>
        <pt x="413" y="47" on="0"/>
        <pt x="413" y="28" on="1"/>
        <pt x="413" y="3" on="0"/>
        <pt x="283" y="3" on="1"/>
        <pt x="255" y="4" on="1"/>
        <pt x="227" y="5" on="0"/>
        <pt x="197" y="5" on="1"/>
        <pt x="12" y="5" on="0"/>
      </contour>
    </TTGlyph>
    <TTGlyph name="B" xMin="97" yMin="-9" xMax="1211" yMax="1390">
      <contour>
        <pt x="538" y="1281" on="1"/>
        <pt x="493" y="1281" on="0"/>
        <pt x="483" y="1247" on="1"/>
        <pt x="477" y="1226" on="0"/>
        <pt x="477" y="1058" on="1"/>
        <pt x="477" y="864" on="1"/>
        <pt x="477" y="802" on="0"/>
        <pt x="499" y="773" on="0"/>
        <pt x="556" y="773" on="1"/>
        <pt x="598" y="773" on="1"/>
        <pt x="607" y="774" on="1"/>
        <pt x="667" y="777" on="1"/>
        <pt x="676" y="778" on="0"/>
        <pt x="684" y="778" on="1"/>
        <pt x="780" y="778" on="0"/>
        <pt x="910" y="920" on="0"/>
        <pt x="910" y="1021" on="1"/>
        <pt x="910" y="1048" on="1"/>
        <pt x="910" y="1151" on="0"/>
        <pt x="769" y="1280" on="0"/>
        <pt x="667" y="1280" on="1"/>
        <pt x="649" y="1282" on="1"/>
        <pt x="623" y="1283" on="1"/>
        <pt x="563" y="1283" on="1"/>
        <pt x="547" y="1281" on="0"/>
      </contour>
      <contour>
        <pt x="658" y="670" on="1"/>
        <pt x="572" y="670" on="1"/>
        <pt x="495" y="670" on="0"/>
        <pt x="476" y="628" on="0"/>
        <pt x="476" y="522" on="1"/>
        <pt x="476" y="235" on="1"/>
        <pt x="476" y="142" on="0"/>
        <pt x="521" y="101" on="0"/>
        <pt x="624" y="101" on="1"/>
        <pt x="683" y="101" on="1"/>
        <pt x="815" y="101" on="0"/>
        <pt x="979" y="240" on="0"/>
        <pt x="979" y="354" on="1"/>
        <pt x="979" y="406" on="1"/>
        <pt x="979" y="529" on="0"/>
        <pt x="799" y="670" on="0"/>
      </contour>
      <contour>
        <pt x="635" y="1390" on="1"/>
        <pt x="991" y="1390" on="0"/>
        <pt x="1092" y="1203" on="1"/>
        <pt x="1128" y="1137" on="0"/>
        <pt x="1128" y="966" on="0"/>
        <pt x="1047" y="836" on="0"/>
        <pt x="984" y="785" on="0"/>
        <pt x="919" y="746" on="0"/>
        <pt x="919" y="734" on="0"/>
        <pt x="1080" y="653" on="0"/>
        <pt x="1127" y="598" on="1"/>
        <pt x="1211" y="498" on="0"/>
        <pt x="1211" y="392" on="1"/>
        <pt x="1211" y="366" on="1"/>
        <pt x="1211" y="190" on="0"/>
        <pt x="1067" y="86" on="1"/>
        <pt x="1015" y="48" on="0"/>
        <pt x="828" y="-9" on="0"/>
        <pt x="699" y="-9" on="1"/>
        <pt x="593" y="-9" on="1"/>
        <pt x="567" y="-8" on="1"/>
        <pt x="541" y="-7" on="0"/>
        <pt x="514" y="-7" on="1"/>
        <pt x="488" y="-6" on="1"/>
        <pt x="462" y="-5" on="0"/>
        <pt x="436" y="-5" on="1"/>
        <pt x="410" y="-4" on="1"/>
        <pt x="384" y="-3" on="0"/>
        <pt x="358" y="-3" on="1"/>
        <pt x="281" y="-3" on="1"/>
        <pt x="107" y="-3" on="0"/>
        <pt x="107" y="64" on="0"/>
        <pt x="214" y="123" on="0"/>
        <pt x="247" y="266" on="0"/>
        <pt x="247" y="528" on="1"/>
        <pt x="247" y="857" on="1"/>
        <pt x="245" y="961" on="1"/>
        <pt x="244" y="987" on="0"/>
        <pt x="244" y="1183" on="0"/>
        <pt x="207" y="1262" on="0"/>
        <pt x="97" y="1314" on="0"/>
        <pt x="97" y="1334" on="1"/>
        <pt x="97" y="1363" on="0"/>
        <pt x="153" y="1384" on="0"/>
        <pt x="297" y="1384" on="1"/>
        <pt x="529" y="1390" on="1"/>
      </contour>
    </TTGlyph>
    <TTGlyph name="C" xMin="98" yMin="-16" xMax="1259" yMax="1403">
      <contour>
        <pt x="769" y="1403" on="1"/>
        <pt x="803" y="1403" on="1"/>
        <pt x="873" y="1403" on="0"/>
        <pt x="1055" y="1368" on="0"/>
        <pt x="1159" y="1362" on="0"/>
        <pt x="1189" y="1345" on="1"/>
        <pt x="1247" y="1312" on="0"/>
        <pt x="1247" y="1036" on="0"/>
        <pt x="1195" y="1036" on="1"/>
        <pt x="1178" y="1036" on="0"/>
        <pt x="1044" y="1189" on="0"/>
        <pt x="983" y="1222" on="1"/>
        <pt x="875" y="1280" on="0"/>
        <pt x="741" y="1280" on="1"/>
        <pt x="664" y="1280" on="0"/>
        <pt x="586" y="1238" on="1"/>
        <pt x="351" y="1113" on="0"/>
        <pt x="351" y="694" on="1"/>
        <pt x="352" y="434" on="0"/>
        <pt x="592" y="114" on="0"/>
        <pt x="806" y="114" on="1"/>
        <pt x="989" y="114" on="0"/>
        <pt x="1116" y="235" on="1"/>
        <pt x="1195" y="310" on="0"/>
        <pt x="1217" y="310" on="1"/>
        <pt x="1259" y="310" on="0"/>
        <pt x="1259" y="249" on="1"/>
        <pt x="1259" y="218" on="0"/>
        <pt x="1181" y="86" on="0"/>
        <pt x="1133" y="59" on="1"/>
        <pt x="998" y="-16" on="0"/>
        <pt x="782" y="-16" on="1"/>
        <pt x="747" y="-16" on="1"/>
        <pt x="626" y="-16" on="0"/>
        <pt x="502" y="28" on="1"/>
        <pt x="251" y="117" on="0"/>
        <pt x="150" y="380" on="1"/>
        <pt x="98" y="517" on="0"/>
        <pt x="98" y="842" on="0"/>
        <pt x="150" y="978" on="1"/>
        <pt x="255" y="1254" on="0"/>
        <pt x="506" y="1353" on="1"/>
        <pt x="633" y="1403" on="0"/>
      </contour>
    </TTGlyph>
    <TTGlyph name="Ccedilla" xMin="90" yMin="-452" xMax="1242" yMax="1334">
      <contour>
        <pt x="922" y="-271" on="1"/>
        <pt x="922" y="-287" on="1"/>
        <pt x="922" y="-347" on="0"/>
        <pt x="765" y="-452" on="0"/>
        <pt x="660" y="-452" on="1"/>
        <pt x="651" y="-451" on="1"/>
        <pt x="563" y="-451" on="0"/>
        <pt x="563" y="-412" on="1"/>
        <pt x="563" y="-405" on="1"/>
        <pt x="563" y="-361" on="0"/>
        <pt x="596" y="-342" on="0"/>
        <pt x="685" y="-342" on="0"/>
        <pt x="742" y="-291" on="0"/>
        <pt x="742" y="-195" on="0"/>
        <pt x="652" y="-130" on="0"/>
        <pt x="652" y="-110" on="1"/>
        <pt x="652" y="-105" on="0"/>
        <pt x="680" y="-42" on="1"/>
        <pt x="579" y="-35" on="0"/>
        <pt x="479" y="2" on="1"/>
        <pt x="356" y="48" on="0"/>
        <pt x="268" y="142" on="1"/>
        <pt x="90" y="333" on="0"/>
        <pt x="90" y="630" on="1"/>
        <pt x="90" y="665" on="1"/>
        <pt x="90" y="806" on="0"/>
        <pt x="145" y="938" on="1"/>
        <pt x="311" y="1334" on="0"/>
        <pt x="744" y="1334" on="1"/>
        <pt x="823" y="1334" on="0"/>
        <pt x="907" y="1312" on="1"/>
        <pt x="1071" y="1269" on="1"/>
        <pt x="1240" y="1269" on="0"/>
        <pt x="1240" y="1090" on="1"/>
        <pt x="1240" y="993" on="0"/>
        <pt x="1175" y="993" on="1"/>
        <pt x="1173" y="993" on="0"/>
        <pt x="1068" y="1049" on="1"/>
        <pt x="1044" y="1062" on="1"/>
        <pt x="996" y="1094" on="1"/>
        <pt x="961" y="1115" on="0"/>
        <pt x="798" y="1182" on="0"/>
        <pt x="716" y="1182" on="1"/>
        <pt x="533" y="1182" on="0"/>
        <pt x="434" y="1020" on="1"/>
        <pt x="349" y="883" on="0"/>
        <pt x="349" y="635" on="1"/>
        <pt x="350" y="408" on="0"/>
        <pt x="468" y="252" on="1"/>
        <pt x="520" y="184" on="0"/>
        <pt x="675" y="116" on="0"/>
        <pt x="844" y="116" on="0"/>
        <pt x="1042" y="186" on="0"/>
        <pt x="1191" y="276" on="0"/>
        <pt x="1203" y="276" on="1"/>
        <pt x="1242" y="276" on="0"/>
        <pt x="1242" y="236" on="1"/>
        <pt x="1242" y="213" on="1"/>
        <pt x="1242" y="191" on="0"/>
        <pt x="1186" y="85" on="0"/>
        <pt x="1138" y="56" on="1"/>
        <pt x="1090" y="28" on="0"/>
        <pt x="970" y="-8" on="1"/>
        <pt x="872" y="-37" on="0"/>
        <pt x="771" y="-43" on="1"/>
        <pt x="771" y="-45" on="0"/>
        <pt x="770" y="-47" on="1"/>
        <pt x="770" y="-60" on="0"/>
        <pt x="856" y="-119" on="0"/>
        <pt x="922" y="-219" on="0"/>
      </contour>
    </TTGlyph>
    <TTGlyph name="D" xMin="109" yMin="-4" xMax="1395" yMax="1395">
      <contour>
        <pt x="654" y="1287" on="1"/>
        <pt x="606" y="1287" on="1"/>
        <pt x="496" y="1287" on="0"/>
        <pt x="484" y="1243" on="1"/>
        <pt x="478" y="1222" on="0"/>
        <pt x="478" y="946" on="1"/>
        <pt x="478" y="572" on="1"/>
        <pt x="477" y="523" on="1"/>
        <pt x="477" y="498" on="0"/>
        <pt x="477" y="473" on="1"/>
        <pt x="476" y="424" on="1"/>
        <pt x="476" y="399" on="0"/>
        <pt x="476" y="374" on="1"/>
        <pt x="475" y="309" on="1"/>
        <pt x="475" y="260" on="1"/>
        <pt x="475" y="156" on="0"/>
        <pt x="533" y="107" on="0"/>
        <pt x="645" y="107" on="1"/>
        <pt x="661" y="108" on="1"/>
        <pt x="870" y="108" on="0"/>
        <pt x="995" y="246" on="1"/>
        <pt x="1058" y="315" on="0"/>
        <pt x="1130" y="538" on="0"/>
        <pt x="1130" y="653" on="1"/>
        <pt x="1130" y="725" on="1"/>
        <pt x="1130" y="832" on="0"/>
        <pt x="1098" y="944" on="1"/>
        <pt x="1032" y="1170" on="0"/>
        <pt x="837" y="1253" on="1"/>
        <pt x="758" y="1287" on="0"/>
      </contour>
      <contour>
        <pt x="632" y="1395" on="1"/>
        <pt x="684" y="1395" on="1"/>
        <pt x="1185" y="1394" on="0"/>
        <pt x="1343" y="1004" on="1"/>
        <pt x="1395" y="876" on="0"/>
        <pt x="1395" y="733" on="1"/>
        <pt x="1395" y="705" on="1"/>
        <pt x="1395" y="539" on="0"/>
        <pt x="1340" y="407" on="1"/>
        <pt x="1232" y="149" on="0"/>
        <pt x="960" y="44" on="1"/>
        <pt x="835" y="-4" on="0"/>
        <pt x="684" y="-4" on="1"/>
        <pt x="609" y="-4" on="1"/>
        <pt x="584" y="-3" on="1"/>
        <pt x="533" y="-2" on="1"/>
        <pt x="508" y="-1" on="0"/>
        <pt x="482" y="-1" on="1"/>
        <pt x="335" y="2" on="1"/>
        <pt x="111" y="2" on="0"/>
        <pt x="111" y="68" on="0"/>
        <pt x="154" y="90" on="1"/>
        <pt x="228" y="128" on="0"/>
        <pt x="239" y="150" on="1"/>
        <pt x="263" y="196" on="0"/>
        <pt x="263" y="360" on="1"/>
        <pt x="263" y="834" on="1"/>
        <pt x="261" y="961" on="1"/>
        <pt x="259" y="1062" on="1"/>
        <pt x="259" y="1196" on="0"/>
        <pt x="212" y="1268" on="0"/>
        <pt x="109" y="1311" on="0"/>
        <pt x="109" y="1343" on="1"/>
        <pt x="109" y="1381" on="0"/>
        <pt x="262" y="1381" on="1"/>
        <pt x="358" y="1383" on="1"/>
        <pt x="382" y="1385" on="1"/>
        <pt x="406" y="1386" on="1"/>
        <pt x="622" y="1395" on="0"/>
      </contour>
    </TTGlyph>
    <TTGlyph name="E" xMin="108" yMin="-2" xMax="1178" yMax="1393">
      <contour>
        <pt x="947" y="1393" on="1"/>
        <pt x="1126" y="1393" on="0"/>
        <pt x="1126" y="1192" on="1"/>
        <pt x="1126" y="1139" on="0"/>
        <pt x="1103" y="1139" on="1"/>
        <pt x="1090" y="1139" on="0"/>
        <pt x="993" y="1198" on="0"/>
        <pt x="961" y="1209" on="1"/>
        <pt x="819" y="1258" on="0"/>
        <pt x="599" y="1258" on="0"/>
        <pt x="558" y="1204" on="1"/>
        <pt x="501" y="1129" on="0"/>
        <pt x="501" y="928" on="1"/>
        <pt x="501" y="856" on="0"/>
        <pt x="599" y="786" on="0"/>
        <pt x="726" y="786" on="0"/>
        <pt x="857" y="873" on="0"/>
        <pt x="858" y="873" on="1"/>
        <pt x="908" y="873" on="0"/>
        <pt x="945" y="795" on="0"/>
        <pt x="945" y="707" on="1"/>
        <pt x="945" y="552" on="0"/>
        <pt x="874" y="552" on="1"/>
        <pt x="855" y="552" on="0"/>
        <pt x="735" y="649" on="0"/>
        <pt x="668" y="649" on="1"/>
        <pt x="553" y="649" on="0"/>
        <pt x="515" y="600" on="1"/>
        <pt x="490" y="568" on="0"/>
        <pt x="490" y="248" on="0"/>
        <pt x="547" y="174" on="1"/>
        <pt x="579" y="133" on="0"/>
        <pt x="821" y="133" on="0"/>
        <pt x="982" y="185" on="1"/>
        <pt x="1027" y="199" on="0"/>
        <pt x="1081" y="237" on="0"/>
        <pt x="1137" y="280" on="0"/>
        <pt x="1144" y="280" on="1"/>
        <pt x="1178" y="280" on="0"/>
        <pt x="1178" y="246" on="1"/>
        <pt x="1178" y="214" on="1"/>
        <pt x="1178" y="137" on="0"/>
        <pt x="1125" y="38" on="0"/>
        <pt x="1103" y="24" on="1"/>
        <pt x="1062" y="-2" on="0"/>
        <pt x="777" y="-2" on="1"/>
        <pt x="645" y="-2" on="1"/>
        <pt x="601" y="-1" on="1"/>
        <pt x="224" y="-1" on="0"/>
        <pt x="108" y="16" on="0"/>
        <pt x="108" y="52" on="1"/>
        <pt x="108" y="75" on="0"/>
        <pt x="216" y="145" on="0"/>
        <pt x="248" y="251" on="0"/>
        <pt x="248" y="613" on="1"/>
        <pt x="252" y="1004" on="1"/>
        <pt x="252" y="1196" on="0"/>
        <pt x="228" y="1242" on="1"/>
        <pt x="217" y="1263" on="0"/>
        <pt x="115" y="1317" on="0"/>
        <pt x="115" y="1338" on="1"/>
        <pt x="115" y="1378" on="0"/>
        <pt x="180" y="1388" on="1"/>
        <pt x="207" y="1392" on="0"/>
        <pt x="605" y="1392" on="1"/>
        <pt x="905" y="1393" on="1"/>
      </contour>
    </TTGlyph>
    <TTGlyph name="Eacute" xMin="96" yMin="5" xMax="1160" yMax="1821">
      <contour>
        <pt x="526" y="1509" on="1"/>
        <pt x="526" y="1523" on="1"/>
        <pt x="526" y="1548" on="0"/>
        <pt x="691" y="1737" on="1"/>
        <pt x="765" y="1821" on="0"/>
        <pt x="822" y="1821" on="1"/>
        <pt x="846" y="1821" on="1"/>
        <pt x="874" y="1821" on="0"/>
        <pt x="941" y="1784" on="0"/>
        <pt x="941" y="1769" on="1"/>
        <pt x="941" y="1759" on="1"/>
        <pt x="941" y="1735" on="0"/>
        <pt x="651" y="1477" on="0"/>
        <pt x="584" y="1477" on="1"/>
        <pt x="568" y="1477" on="1"/>
        <pt x="526" y="1477" on="0"/>
      </contour>
      <contour>
        <pt x="854" y="879" on="1"/>
        <pt x="927" y="879" on="0"/>
        <pt x="927" y="597" on="0"/>
        <pt x="893" y="540" on="0"/>
        <pt x="858" y="540" on="1"/>
        <pt x="846" y="540" on="0"/>
        <pt x="730" y="642" on="0"/>
        <pt x="545" y="642" on="0"/>
        <pt x="507" y="584" on="1"/>
        <pt x="487" y="554" on="0"/>
        <pt x="487" y="279" on="0"/>
        <pt x="538" y="192" on="1"/>
        <pt x="571" y="135" on="0"/>
        <pt x="645" y="135" on="1"/>
        <pt x="789" y="135" on="0"/>
        <pt x="1000" y="198" on="0"/>
        <pt x="1043" y="225" on="1"/>
        <pt x="1044" y="225" on="0"/>
        <pt x="1121" y="285" on="0"/>
        <pt x="1135" y="285" on="1"/>
        <pt x="1160" y="285" on="0"/>
        <pt x="1160" y="241" on="1"/>
        <pt x="1160" y="124" on="0"/>
        <pt x="1073" y="5" on="0"/>
        <pt x="963" y="5" on="1"/>
        <pt x="574" y="5" on="1"/>
        <pt x="191" y="5" on="0"/>
        <pt x="98" y="24" on="0"/>
        <pt x="98" y="58" on="1"/>
        <pt x="98" y="81" on="0"/>
        <pt x="218" y="158" on="0"/>
        <pt x="238" y="290" on="0"/>
        <pt x="238" y="1107" on="0"/>
        <pt x="215" y="1228" on="0"/>
        <pt x="180" y="1252" on="1"/>
        <pt x="96" y="1310" on="0"/>
        <pt x="96" y="1327" on="1"/>
        <pt x="96" y="1362" on="0"/>
        <pt x="167" y="1371" on="1"/>
        <pt x="200" y="1375" on="0"/>
        <pt x="588" y="1375" on="1"/>
        <pt x="674" y="1376" on="1"/>
        <pt x="932" y="1376" on="1"/>
        <pt x="1020" y="1376" on="0"/>
        <pt x="1109" y="1283" on="0"/>
        <pt x="1109" y="1178" on="1"/>
        <pt x="1109" y="1128" on="0"/>
        <pt x="1086" y="1128" on="1"/>
        <pt x="1073" y="1128" on="0"/>
        <pt x="986" y="1180" on="0"/>
        <pt x="942" y="1194" on="1"/>
        <pt x="790" y="1243" on="0"/>
        <pt x="592" y="1243" on="0"/>
        <pt x="549" y="1183" on="1"/>
        <pt x="492" y="1104" on="0"/>
        <pt x="492" y="953" on="1"/>
        <pt x="492" y="787" on="0"/>
        <pt x="653" y="787" on="1"/>
        <pt x="713" y="787" on="0"/>
        <pt x="762" y="814" on="0"/>
        <pt x="835" y="879" on="0"/>
      </contour>
    </TTGlyph>
    <TTGlyph name="Ecircumflex" xMin="93" yMin="-11" xMax="1166" yMax="1817">
      <contour>
        <pt x="647" y="1817" on="1"/>
        <pt x="656" y="1817" on="1"/>
        <pt x="709" y="1817" on="0"/>
        <pt x="956" y="1525" on="0"/>
        <pt x="956" y="1523" on="1"/>
        <pt x="956" y="1517" on="1"/>
        <pt x="956" y="1490" on="0"/>
        <pt x="909" y="1490" on="1"/>
        <pt x="902" y="1490" on="1"/>
        <pt x="857" y="1490" on="0"/>
        <pt x="664" y="1653" on="0"/>
        <pt x="653" y="1653" on="1"/>
        <pt x="642" y="1652" on="0"/>
        <pt x="603" y="1622" on="1"/>
        <pt x="537" y="1572" on="1"/>
        <pt x="529" y="1566" on="0"/>
        <pt x="523" y="1561" on="1"/>
        <pt x="424" y="1490" on="0"/>
        <pt x="338" y="1490" on="0"/>
        <pt x="338" y="1522" on="1"/>
        <pt x="338" y="1574" on="0"/>
        <pt x="556" y="1774" on="1"/>
        <pt x="603" y="1817" on="0"/>
      </contour>
      <contour>
        <pt x="643" y="120" on="1"/>
        <pt x="793" y="120" on="0"/>
        <pt x="1011" y="184" on="0"/>
        <pt x="1055" y="213" on="0"/>
        <pt x="1127" y="275" on="0"/>
        <pt x="1140" y="275" on="1"/>
        <pt x="1166" y="275" on="0"/>
        <pt x="1166" y="230" on="1"/>
        <pt x="1166" y="115" on="0"/>
        <pt x="1081" y="-11" on="0"/>
        <pt x="969" y="-11" on="1"/>
        <pt x="576" y="-11" on="1"/>
        <pt x="190" y="-11" on="0"/>
        <pt x="96" y="8" on="0"/>
        <pt x="96" y="43" on="1"/>
        <pt x="96" y="63" on="0"/>
        <pt x="215" y="144" on="0"/>
        <pt x="236" y="271" on="0"/>
        <pt x="236" y="1099" on="0"/>
        <pt x="212" y="1223" on="0"/>
        <pt x="177" y="1248" on="1"/>
        <pt x="93" y="1309" on="0"/>
        <pt x="93" y="1323" on="1"/>
        <pt x="93" y="1360" on="0"/>
        <pt x="163" y="1369" on="1"/>
        <pt x="193" y="1373" on="0"/>
        <pt x="588" y="1373" on="1"/>
        <pt x="849" y="1374" on="1"/>
        <pt x="999" y="1374" on="0"/>
        <pt x="1041" y="1349" on="1"/>
        <pt x="1113" y="1306" on="0"/>
        <pt x="1113" y="1174" on="1"/>
        <pt x="1113" y="1124" on="0"/>
        <pt x="1090" y="1124" on="1"/>
        <pt x="1074" y="1124" on="0"/>
        <pt x="967" y="1179" on="0"/>
        <pt x="944" y="1187" on="1"/>
        <pt x="792" y="1240" on="0"/>
        <pt x="592" y="1240" on="0"/>
        <pt x="489" y="1101" on="0"/>
        <pt x="489" y="946" on="1"/>
        <pt x="489" y="853" on="0"/>
        <pt x="579" y="777" on="0"/>
        <pt x="714" y="777" on="0"/>
        <pt x="757" y="801" on="0"/>
        <pt x="835" y="871" on="0"/>
        <pt x="886" y="871" on="0"/>
        <pt x="928" y="813" on="0"/>
        <pt x="928" y="586" on="0"/>
        <pt x="894" y="530" on="0"/>
        <pt x="860" y="530" on="1"/>
        <pt x="853" y="530" on="0"/>
        <pt x="724" y="632" on="0"/>
        <pt x="546" y="632" on="0"/>
        <pt x="505" y="574" on="1"/>
        <pt x="485" y="546" on="0"/>
        <pt x="485" y="274" on="0"/>
        <pt x="536" y="177" on="1"/>
        <pt x="566" y="120" on="0"/>
      </contour>
    </TTGlyph>
    <TTGlyph name="Edieresis" xMin="96" yMin="-8" xMax="1163" yMax="1755">
      <contour>
        <pt x="430" y="1517" on="1"/>
        <pt x="385" y="1517" on="0"/>
        <pt x="322" y="1580" on="0"/>
        <pt x="322" y="1624" on="1"/>
        <pt x="322" y="1644" on="1"/>
        <pt x="322" y="1689" on="0"/>
        <pt x="384" y="1751" on="0"/>
        <pt x="412" y="1751" on="1"/>
        <pt x="439" y="1755" on="1"/>
        <pt x="456" y="1755" on="1"/>
        <pt x="465" y="1752" on="0"/>
        <pt x="503" y="1752" on="0"/>
        <pt x="560" y="1695" on="0"/>
        <pt x="560" y="1664" on="1"/>
        <pt x="563" y="1644" on="1"/>
        <pt x="563" y="1628" on="1"/>
        <pt x="563" y="1583" on="0"/>
        <pt x="500" y="1520" on="0"/>
        <pt x="469" y="1520" on="1"/>
        <pt x="450" y="1517" on="1"/>
      </contour>
      <contour>
        <pt x="815" y="1520" on="0"/>
        <pt x="791" y="1520" on="0"/>
        <pt x="724" y="1576" on="0"/>
        <pt x="724" y="1621" on="1"/>
        <pt x="724" y="1649" on="1"/>
        <pt x="724" y="1689" on="0"/>
        <pt x="790" y="1755" on="0"/>
        <pt x="834" y="1755" on="1"/>
        <pt x="858" y="1755" on="1"/>
        <pt x="902" y="1755" on="0"/>
        <pt x="965" y="1692" on="0"/>
        <pt x="965" y="1648" on="1"/>
        <pt x="965" y="1628" on="1"/>
        <pt x="965" y="1583" on="0"/>
        <pt x="903" y="1521" on="0"/>
        <pt x="874" y="1521" on="1"/>
        <pt x="847" y="1517" on="1"/>
        <pt x="835" y="1517" on="1"/>
        <pt x="831" y="1518" on="1"/>
        <pt x="823" y="1518" on="1"/>
      </contour>
      <contour>
        <pt x="102" y="42" on="1"/>
        <pt x="102" y="63" on="0"/>
        <pt x="217" y="143" on="0"/>
        <pt x="240" y="278" on="0"/>
        <pt x="240" y="1123" on="0"/>
        <pt x="205" y="1235" on="0"/>
        <pt x="96" y="1296" on="0"/>
        <pt x="96" y="1318" on="1"/>
        <pt x="96" y="1355" on="0"/>
        <pt x="165" y="1362" on="1"/>
        <pt x="193" y="1365" on="0"/>
        <pt x="631" y="1365" on="1"/>
        <pt x="932" y="1368" on="1"/>
        <pt x="1024" y="1368" on="0"/>
        <pt x="1112" y="1280" on="0"/>
        <pt x="1112" y="1174" on="1"/>
        <pt x="1112" y="1117" on="0"/>
        <pt x="1066" y="1117" on="0"/>
        <pt x="976" y="1183" on="0"/>
        <pt x="772" y="1245" on="0"/>
        <pt x="642" y="1245" on="1"/>
        <pt x="559" y="1245" on="0"/>
        <pt x="475" y="1080" on="0"/>
        <pt x="475" y="856" on="0"/>
        <pt x="559" y="776" on="0"/>
        <pt x="700" y="776" on="0"/>
        <pt x="751" y="802" on="0"/>
        <pt x="829" y="871" on="0"/>
        <pt x="842" y="871" on="1"/>
        <pt x="890" y="871" on="0"/>
        <pt x="904" y="829" on="1"/>
        <pt x="918" y="786" on="0"/>
        <pt x="918" y="692" on="1"/>
        <pt x="918" y="526" on="0"/>
        <pt x="852" y="526" on="1"/>
        <pt x="834" y="526" on="0"/>
        <pt x="721" y="628" on="0"/>
        <pt x="542" y="628" on="0"/>
        <pt x="497" y="572" on="1"/>
        <pt x="473" y="542" on="0"/>
        <pt x="473" y="426" on="1"/>
        <pt x="473" y="239" on="0"/>
        <pt x="542" y="151" on="1"/>
        <pt x="572" y="113" on="0"/>
        <pt x="789" y="113" on="0"/>
        <pt x="975" y="176" on="1"/>
        <pt x="1015" y="189" on="0"/>
        <pt x="1128" y="266" on="0"/>
        <pt x="1131" y="266" on="1"/>
        <pt x="1163" y="266" on="0"/>
        <pt x="1163" y="229" on="1"/>
        <pt x="1163" y="118" on="0"/>
        <pt x="1084" y="-8" on="0"/>
        <pt x="976" y="-8" on="1"/>
        <pt x="934" y="-7" on="1"/>
        <pt x="457" y="-4" on="1"/>
        <pt x="245" y="-7" on="1"/>
        <pt x="102" y="-7" on="0"/>
      </contour>
    </TTGlyph>
    <TTGlyph name="Egrave" xMin="99" yMin="-7" xMax="1166" yMax="1826">
      <contour>
        <pt x="351" y="1756" on="1"/>
        <pt x="351" y="1766" on="1"/>
        <pt x="351" y="1785" on="0"/>
        <pt x="413" y="1826" on="0"/>
        <pt x="452" y="1826" on="1"/>
        <pt x="463" y="1826" on="1"/>
        <pt x="506" y="1826" on="0"/>
        <pt x="626" y="1733" on="0"/>
        <pt x="740" y="1586" on="1"/>
        <pt x="771" y="1546" on="0"/>
        <pt x="771" y="1529" on="1"/>
        <pt x="770" y="1524" on="1"/>
        <pt x="770" y="1520" on="1"/>
        <pt x="770" y="1491" on="0"/>
        <pt x="736" y="1491" on="1"/>
        <pt x="725" y="1491" on="1"/>
        <pt x="649" y="1491" on="0"/>
        <pt x="451" y="1645" on="1"/>
        <pt x="351" y="1723" on="0"/>
      </contour>
      <contour>
        <pt x="105" y="43" on="1"/>
        <pt x="105" y="63" on="0"/>
        <pt x="220" y="144" on="0"/>
        <pt x="243" y="279" on="0"/>
        <pt x="243" y="1127" on="0"/>
        <pt x="209" y="1235" on="0"/>
        <pt x="99" y="1297" on="0"/>
        <pt x="99" y="1319" on="1"/>
        <pt x="99" y="1356" on="0"/>
        <pt x="168" y="1363" on="1"/>
        <pt x="196" y="1366" on="0"/>
        <pt x="634" y="1366" on="1"/>
        <pt x="935" y="1369" on="1"/>
        <pt x="1027" y="1369" on="0"/>
        <pt x="1115" y="1281" on="0"/>
        <pt x="1115" y="1175" on="1"/>
        <pt x="1115" y="1118" on="0"/>
        <pt x="1069" y="1118" on="0"/>
        <pt x="979" y="1184" on="0"/>
        <pt x="775" y="1246" on="0"/>
        <pt x="645" y="1246" on="1"/>
        <pt x="562" y="1246" on="0"/>
        <pt x="478" y="1081" on="0"/>
        <pt x="478" y="857" on="0"/>
        <pt x="562" y="777" on="0"/>
        <pt x="703" y="777" on="0"/>
        <pt x="754" y="803" on="0"/>
        <pt x="832" y="872" on="0"/>
        <pt x="845" y="872" on="1"/>
        <pt x="893" y="872" on="0"/>
        <pt x="910" y="823" on="1"/>
        <pt x="921" y="790" on="0"/>
        <pt x="921" y="694" on="1"/>
        <pt x="921" y="527" on="0"/>
        <pt x="856" y="527" on="1"/>
        <pt x="855" y="527" on="1"/>
        <pt x="837" y="527" on="0"/>
        <pt x="724" y="629" on="0"/>
        <pt x="545" y="629" on="0"/>
        <pt x="500" y="573" on="1"/>
        <pt x="476" y="543" on="0"/>
        <pt x="476" y="427" on="1"/>
        <pt x="476" y="240" on="0"/>
        <pt x="545" y="152" on="1"/>
        <pt x="575" y="114" on="0"/>
        <pt x="792" y="114" on="0"/>
        <pt x="978" y="177" on="1"/>
        <pt x="1018" y="190" on="0"/>
        <pt x="1131" y="267" on="0"/>
        <pt x="1134" y="267" on="1"/>
        <pt x="1166" y="267" on="0"/>
        <pt x="1166" y="230" on="1"/>
        <pt x="1166" y="119" on="0"/>
        <pt x="1087" y="-7" on="0"/>
        <pt x="979" y="-7" on="1"/>
        <pt x="937" y="-6" on="1"/>
        <pt x="460" y="-3" on="1"/>
        <pt x="248" y="-6" on="1"/>
        <pt x="105" y="-6" on="0"/>
      </contour>
    </TTGlyph>
    <TTGlyph name="Eth" xMin="116" yMin="-5" xMax="1394" yMax="1379">
      <contour>
        <pt x="609" y="93" on="1"/>
        <pt x="664" y="93" on="1"/>
        <pt x="753" y="93" on="0"/>
        <pt x="928" y="167" on="0"/>
        <pt x="989" y="241" on="1"/>
        <pt x="1119" y="399" on="0"/>
        <pt x="1119" y="625" on="1"/>
        <pt x="1119" y="710" on="1"/>
        <pt x="1119" y="853" on="0"/>
        <pt x="1054" y="1053" on="0"/>
        <pt x="911" y="1213" on="0"/>
        <pt x="734" y="1276" on="0"/>
        <pt x="621" y="1276" on="1"/>
        <pt x="603" y="1277" on="1"/>
        <pt x="521" y="1277" on="0"/>
        <pt x="486" y="1215" on="0"/>
        <pt x="486" y="827" on="0"/>
        <pt x="502" y="798" on="1"/>
        <pt x="526" y="755" on="0"/>
        <pt x="673" y="755" on="1"/>
        <pt x="733" y="755" on="0"/>
        <pt x="778" y="727" on="0"/>
        <pt x="778" y="643" on="0"/>
        <pt x="536" y="624" on="0"/>
        <pt x="482" y="561" on="0"/>
        <pt x="482" y="325" on="1"/>
        <pt x="481" y="287" on="1"/>
        <pt x="481" y="249" on="1"/>
        <pt x="481" y="147" on="0"/>
        <pt x="529" y="93" on="0"/>
      </contour>
      <contour>
        <pt x="278" y="524" on="1"/>
        <pt x="278" y="612" on="0"/>
        <pt x="253" y="631" on="1"/>
        <pt x="242" y="639" on="0"/>
        <pt x="152" y="651" on="0"/>
        <pt x="146" y="654" on="1"/>
        <pt x="120" y="667" on="0"/>
        <pt x="120" y="705" on="1"/>
        <pt x="120" y="751" on="0"/>
        <pt x="174" y="762" on="1"/>
        <pt x="255" y="778" on="0"/>
        <pt x="259" y="782" on="1"/>
        <pt x="277" y="796" on="0"/>
        <pt x="277" y="868" on="1"/>
        <pt x="275" y="921" on="1"/>
        <pt x="274" y="1000" on="1"/>
        <pt x="274" y="1174" on="0"/>
        <pt x="229" y="1258" on="0"/>
        <pt x="118" y="1303" on="0"/>
        <pt x="118" y="1333" on="1"/>
        <pt x="118" y="1375" on="0"/>
        <pt x="438" y="1375" on="1"/>
        <pt x="519" y="1378" on="1"/>
        <pt x="628" y="1379" on="1"/>
        <pt x="683" y="1379" on="1"/>
        <pt x="683" y="1379" on="0"/>
        <pt x="689" y="1379" on="1"/>
        <pt x="851" y="1379" on="0"/>
        <pt x="984" y="1330" on="1"/>
        <pt x="1250" y="1232" on="0"/>
        <pt x="1346" y="984" on="1"/>
        <pt x="1394" y="860" on="0"/>
        <pt x="1394" y="712" on="1"/>
        <pt x="1394" y="683" on="1"/>
        <pt x="1394" y="526" on="0"/>
        <pt x="1336" y="391" on="1"/>
        <pt x="1223" y="129" on="0"/>
        <pt x="957" y="40" on="1"/>
        <pt x="822" y="-5" on="0"/>
        <pt x="660" y="-5" on="1"/>
        <pt x="521" y="-5" on="1"/>
        <pt x="493" y="-4" on="1"/>
        <pt x="386" y="-2" on="1"/>
        <pt x="361" y="-1" on="1"/>
        <pt x="310" y="-1" on="1"/>
        <pt x="260" y="1" on="1"/>
        <pt x="235" y="2" on="0"/>
        <pt x="210" y="2" on="1"/>
        <pt x="116" y="2" on="0"/>
        <pt x="116" y="35" on="1"/>
        <pt x="116" y="73" on="0"/>
        <pt x="162" y="95" on="1"/>
        <pt x="233" y="130" on="0"/>
        <pt x="248" y="162" on="1"/>
        <pt x="278" y="228" on="0"/>
      </contour>
    </TTGlyph>
    <TTGlyph name="Euro" xMin="83" yMin="-14" xMax="1197" yMax="1370">
      <contour>
        <pt x="826" y="1370" on="1"/>
        <pt x="1197" y="1370" on="0"/>
        <pt x="1197" y="1172" on="1"/>
        <pt x="1197" y="1147" on="1"/>
        <pt x="1197" y="1092" on="0"/>
        <pt x="1152" y="1092" on="1"/>
        <pt x="1114" y="1092" on="0"/>
        <pt x="944" y="1203" on="0"/>
        <pt x="735" y="1203" on="0"/>
        <pt x="656" y="1150" on="1"/>
        <pt x="554" y="1081" on="0"/>
        <pt x="554" y="977" on="1"/>
        <pt x="554" y="932" on="0"/>
        <pt x="609" y="902" on="1"/>
        <pt x="639" y="886" on="0"/>
        <pt x="915" y="839" on="0"/>
        <pt x="915" y="769" on="0"/>
        <pt x="825" y="757" on="1"/>
        <pt x="779" y="751" on="0"/>
        <pt x="551" y="742" on="0"/>
        <pt x="539" y="740" on="1"/>
        <pt x="467" y="725" on="0"/>
        <pt x="467" y="689" on="1"/>
        <pt x="467" y="637" on="0"/>
        <pt x="560" y="604" on="0"/>
        <pt x="797" y="604" on="0"/>
        <pt x="867" y="570" on="0"/>
        <pt x="867" y="558" on="1"/>
        <pt x="867" y="517" on="0"/>
        <pt x="770" y="493" on="1"/>
        <pt x="616" y="455" on="0"/>
        <pt x="612" y="452" on="1"/>
        <pt x="561" y="422" on="0"/>
        <pt x="561" y="376" on="1"/>
        <pt x="561" y="281" on="0"/>
        <pt x="676" y="206" on="1"/>
        <pt x="751" y="157" on="0"/>
        <pt x="881" y="157" on="1"/>
        <pt x="915" y="157" on="0"/>
        <pt x="1121" y="230" on="0"/>
        <pt x="1185" y="230" on="0"/>
        <pt x="1185" y="204" on="1"/>
        <pt x="1185" y="124" on="0"/>
        <pt x="960" y="-14" on="0"/>
        <pt x="790" y="-14" on="1"/>
        <pt x="453" y="-14" on="0"/>
        <pt x="299" y="256" on="1"/>
        <pt x="194" y="441" on="0"/>
        <pt x="165" y="472" on="0"/>
        <pt x="83" y="533" on="0"/>
        <pt x="83" y="581" on="0"/>
        <pt x="192" y="645" on="0"/>
        <pt x="192" y="708" on="0"/>
        <pt x="92" y="775" on="0"/>
        <pt x="92" y="801" on="1"/>
        <pt x="92" y="808" on="0"/>
        <pt x="177" y="883" on="1"/>
        <pt x="214" y="916" on="0"/>
        <pt x="352" y="1175" on="0"/>
        <pt x="426" y="1236" on="1"/>
        <pt x="587" y="1370" on="0"/>
        <pt x="783" y="1370" on="1"/>
      </contour>
    </TTGlyph>
    <TTGlyph name="F" xMin="111" yMin="-4" xMax="1129" yMax="1396">
      <contour>
        <pt x="973" y="1396" on="1"/>
        <pt x="1054" y="1396" on="0"/>
        <pt x="1129" y="1317" on="0"/>
        <pt x="1129" y="1187" on="1"/>
        <pt x="1129" y="1114" on="0"/>
        <pt x="1096" y="1114" on="1"/>
        <pt x="1092" y="1114" on="0"/>
        <pt x="972" y="1209" on="0"/>
        <pt x="930" y="1226" on="1"/>
        <pt x="826" y="1267" on="0"/>
        <pt x="672" y="1267" on="1"/>
        <pt x="575" y="1267" on="0"/>
        <pt x="497" y="1141" on="0"/>
        <pt x="497" y="954" on="1"/>
        <pt x="497" y="849" on="0"/>
        <pt x="573" y="773" on="0"/>
        <pt x="724" y="773" on="0"/>
        <pt x="863" y="857" on="0"/>
        <pt x="867" y="857" on="1"/>
        <pt x="904" y="857" on="0"/>
        <pt x="935" y="789" on="0"/>
        <pt x="935" y="713" on="1"/>
        <pt x="935" y="545" on="0"/>
        <pt x="851" y="545" on="1"/>
        <pt x="837" y="545" on="0"/>
        <pt x="720" y="606" on="0"/>
        <pt x="693" y="606" on="1"/>
        <pt x="597" y="606" on="0"/>
        <pt x="500" y="531" on="0"/>
        <pt x="500" y="303" on="0"/>
        <pt x="540" y="135" on="0"/>
        <pt x="564" y="91" on="0"/>
        <pt x="597" y="43" on="0"/>
        <pt x="597" y="33" on="1"/>
        <pt x="597" y="-4" on="0"/>
        <pt x="462" y="-4" on="1"/>
        <pt x="427" y="-4" on="1"/>
        <pt x="392" y="-3" on="1"/>
        <pt x="119" y="-3" on="0"/>
        <pt x="119" y="52" on="1"/>
        <pt x="119" y="80" on="0"/>
        <pt x="172" y="114" on="1"/>
        <pt x="226" y="148" on="0"/>
        <pt x="250" y="224" on="0"/>
        <pt x="250" y="370" on="1"/>
        <pt x="250" y="570" on="1"/>
        <pt x="253" y="677" on="1"/>
        <pt x="254" y="785" on="1"/>
        <pt x="254" y="894" on="1"/>
        <pt x="254" y="1126" on="0"/>
        <pt x="218" y="1251" on="0"/>
        <pt x="187" y="1273" on="1"/>
        <pt x="111" y="1328" on="0"/>
        <pt x="111" y="1338" on="1"/>
        <pt x="111" y="1372" on="0"/>
        <pt x="152" y="1382" on="1"/>
        <pt x="178" y="1388" on="0"/>
        <pt x="321" y="1388" on="1"/>
        <pt x="572" y="1393" on="1"/>
        <pt x="681" y="1396" on="1"/>
      </contour>
    </TTGlyph>
    <TTGlyph name="G" xMin="100" yMin="-21" xMax="1362" yMax="1402">
      <contour>
        <pt x="786" y="1402" on="1"/>
        <pt x="1072" y="1402" on="0"/>
        <pt x="1198" y="1355" on="1"/>
        <pt x="1226" y="1345" on="0"/>
        <pt x="1278" y="1271" on="0"/>
        <pt x="1278" y="1089" on="0"/>
        <pt x="1245" y="1061" on="1"/>
        <pt x="1225" y="1050" on="1"/>
        <pt x="1198" y="1050" on="0"/>
        <pt x="1136" y="1120" on="1"/>
        <pt x="992" y="1280" on="0"/>
        <pt x="790" y="1280" on="1"/>
        <pt x="589" y="1280" on="0"/>
        <pt x="468" y="1123" on="1"/>
        <pt x="348" y="966" on="0"/>
        <pt x="348" y="705" on="1"/>
        <pt x="348" y="445" on="0"/>
        <pt x="474" y="281" on="1"/>
        <pt x="600" y="116" on="0"/>
        <pt x="805" y="116" on="1"/>
        <pt x="938" y="116" on="0"/>
        <pt x="1058" y="228" on="0"/>
        <pt x="1058" y="394" on="1"/>
        <pt x="1058" y="458" on="0"/>
        <pt x="1028" y="506" on="1"/>
        <pt x="1020" y="519" on="0"/>
        <pt x="957" y="580" on="0"/>
        <pt x="957" y="588" on="1"/>
        <pt x="957" y="631" on="0"/>
        <pt x="1154" y="631" on="1"/>
        <pt x="1280" y="631" on="0"/>
        <pt x="1362" y="604" on="0"/>
        <pt x="1362" y="567" on="1"/>
        <pt x="1362" y="560" on="0"/>
        <pt x="1310" y="483" on="0"/>
        <pt x="1302" y="457" on="0"/>
        <pt x="1277" y="140" on="0"/>
        <pt x="1232" y="76" on="0"/>
        <pt x="1143" y="49" on="1"/>
        <pt x="916" y="-21" on="0"/>
        <pt x="808" y="-21" on="1"/>
        <pt x="768" y="-21" on="1"/>
        <pt x="628" y="-21" on="0"/>
        <pt x="380" y="76" on="0"/>
        <pt x="206" y="250" on="0"/>
        <pt x="100" y="524" on="0"/>
        <pt x="100" y="668" on="1"/>
        <pt x="100" y="711" on="1"/>
        <pt x="100" y="852" on="0"/>
        <pt x="156" y="990" on="1"/>
        <pt x="261" y="1248" on="0"/>
        <pt x="506" y="1347" on="1"/>
        <pt x="642" y="1402" on="0"/>
      </contour>
    </TTGlyph>
    <TTGlyph name="H" xMin="104" yMin="-5" xMax="1512" yMax="1387">
      <contour>
        <pt x="1506" y="37" on="1"/>
        <pt x="1506" y="-5" on="0"/>
        <pt x="1362" y="-5" on="1"/>
        <pt x="1314" y="-5" on="1"/>
        <pt x="1265" y="-4" on="1"/>
        <pt x="1131" y="-4" on="0"/>
        <pt x="1029" y="16" on="0"/>
        <pt x="1029" y="49" on="1"/>
        <pt x="1029" y="58" on="0"/>
        <pt x="1096" y="136" on="0"/>
        <pt x="1130" y="266" on="0"/>
        <pt x="1130" y="594" on="0"/>
        <pt x="1059" y="659" on="0"/>
        <pt x="560" y="659" on="0"/>
        <pt x="519" y="620" on="1"/>
        <pt x="492" y="595" on="0"/>
        <pt x="492" y="247" on="0"/>
        <pt x="517" y="139" on="0"/>
        <pt x="538" y="109" on="1"/>
        <pt x="558" y="86" on="1"/>
        <pt x="589" y="51" on="0"/>
        <pt x="589" y="45" on="1"/>
        <pt x="589" y="9" on="0"/>
        <pt x="526" y="2" on="1"/>
        <pt x="498" y="-1" on="0"/>
        <pt x="105" y="-1" on="0"/>
        <pt x="105" y="44" on="1"/>
        <pt x="105" y="68" on="0"/>
        <pt x="182" y="119" on="1"/>
        <pt x="233" y="153" on="0"/>
        <pt x="253" y="268" on="0"/>
        <pt x="253" y="1116" on="0"/>
        <pt x="223" y="1250" on="0"/>
        <pt x="104" y="1319" on="0"/>
        <pt x="104" y="1348" on="1"/>
        <pt x="104" y="1387" on="0"/>
        <pt x="354" y="1387" on="1"/>
        <pt x="451" y="1387" on="1"/>
        <pt x="591" y="1387" on="0"/>
        <pt x="591" y="1340" on="1"/>
        <pt x="591" y="1336" on="0"/>
        <pt x="523" y="1251" on="0"/>
        <pt x="496" y="1128" on="0"/>
        <pt x="496" y="848" on="0"/>
        <pt x="562" y="786" on="0"/>
        <pt x="1057" y="786" on="0"/>
        <pt x="1092" y="820" on="1"/>
        <pt x="1117" y="844" on="0"/>
        <pt x="1117" y="1151" on="0"/>
        <pt x="1096" y="1235" on="0"/>
        <pt x="1074" y="1264" on="1"/>
        <pt x="1053" y="1287" on="1"/>
        <pt x="1022" y="1320" on="0"/>
        <pt x="1022" y="1331" on="1"/>
        <pt x="1022" y="1369" on="0"/>
        <pt x="1132" y="1383" on="0"/>
        <pt x="1512" y="1383" on="0"/>
        <pt x="1512" y="1342" on="1"/>
        <pt x="1512" y="1311" on="0"/>
        <pt x="1476" y="1286" on="1"/>
        <pt x="1395" y="1231" on="0"/>
        <pt x="1388" y="1215" on="1"/>
        <pt x="1371" y="1176" on="0"/>
        <pt x="1371" y="837" on="1"/>
        <pt x="1364" y="343" on="1"/>
        <pt x="1364" y="204" on="0"/>
        <pt x="1394" y="124" on="0"/>
        <pt x="1429" y="103" on="1"/>
        <pt x="1506" y="56" on="0"/>
      </contour>
    </TTGlyph>
    <TTGlyph name="I" xMin="108" yMin="-2" xMax="655" yMax="1390">
      <contour>
        <pt x="651" y="1351" on="1"/>
        <pt x="651" y="1332" on="0"/>
        <pt x="536" y="1258" on="0"/>
        <pt x="509" y="1131" on="0"/>
        <pt x="509" y="252" on="0"/>
        <pt x="542" y="125" on="0"/>
        <pt x="655" y="62" on="0"/>
        <pt x="655" y="35" on="1"/>
        <pt x="655" y="-2" on="0"/>
        <pt x="564" y="-2" on="1"/>
        <pt x="542" y="-1" on="1"/>
        <pt x="496" y="0" on="1"/>
        <pt x="473" y="1" on="0"/>
        <pt x="450" y="1" on="1"/>
        <pt x="406" y="3" on="1"/>
        <pt x="271" y="3" on="1"/>
        <pt x="108" y="3" on="0"/>
        <pt x="108" y="32" on="1"/>
        <pt x="108" y="46" on="1"/>
        <pt x="108" y="65" on="0"/>
        <pt x="237" y="140" on="0"/>
        <pt x="269" y="277" on="0"/>
        <pt x="269" y="1118" on="0"/>
        <pt x="231" y="1259" on="0"/>
        <pt x="190" y="1281" on="1"/>
        <pt x="108" y="1326" on="0"/>
        <pt x="108" y="1349" on="1"/>
        <pt x="108" y="1388" on="0"/>
        <pt x="417" y="1388" on="1"/>
        <pt x="527" y="1390" on="1"/>
        <pt x="592" y="1390" on="1"/>
        <pt x="651" y="1390" on="0"/>
      </contour>
    </TTGlyph>
    <TTGlyph name="Iacute" xMin="98" yMin="5" xMax="670" yMax="1826">
      <contour>
        <pt x="256" y="1509" on="1"/>
        <pt x="256" y="1519" on="1"/>
        <pt x="256" y="1530" on="0"/>
        <pt x="377" y="1703" on="0"/>
        <pt x="515" y="1826" on="0"/>
        <pt x="617" y="1826" on="0"/>
        <pt x="670" y="1779" on="0"/>
        <pt x="670" y="1761" on="1"/>
        <pt x="670" y="1751" on="1"/>
        <pt x="670" y="1708" on="0"/>
        <pt x="553" y="1626" on="1"/>
        <pt x="340" y="1477" on="0"/>
        <pt x="307" y="1477" on="1"/>
        <pt x="286" y="1477" on="1"/>
        <pt x="256" y="1477" on="0"/>
      </contour>
      <contour>
        <pt x="655" y="1336" on="1"/>
        <pt x="655" y="1314" on="0"/>
        <pt x="535" y="1244" on="0"/>
        <pt x="501" y="1099" on="0"/>
        <pt x="501" y="276" on="0"/>
        <pt x="531" y="136" on="0"/>
        <pt x="575" y="111" on="1"/>
        <pt x="656" y="65" on="0"/>
        <pt x="656" y="41" on="1"/>
        <pt x="656" y="5" on="0"/>
        <pt x="585" y="5" on="1"/>
        <pt x="518" y="5" on="1"/>
        <pt x="496" y="6" on="1"/>
        <pt x="451" y="6" on="1"/>
        <pt x="407" y="7" on="1"/>
        <pt x="362" y="7" on="1"/>
        <pt x="251" y="5" on="1"/>
        <pt x="185" y="5" on="1"/>
        <pt x="98" y="5" on="0"/>
        <pt x="98" y="46" on="1"/>
        <pt x="98" y="65" on="0"/>
        <pt x="170" y="108" on="1"/>
        <pt x="220" y="138" on="0"/>
        <pt x="253" y="279" on="0"/>
        <pt x="253" y="1127" on="0"/>
        <pt x="231" y="1206" on="1"/>
        <pt x="218" y="1251" on="0"/>
        <pt x="100" y="1311" on="0"/>
        <pt x="100" y="1377" on="0"/>
        <pt x="393" y="1377" on="1"/>
        <pt x="503" y="1378" on="1"/>
        <pt x="570" y="1378" on="1"/>
        <pt x="655" y="1378" on="0"/>
      </contour>
    </TTGlyph>
    <TTGlyph name="Icircumflex" xMin="73" yMin="-10" xMax="689" yMax="1819">
      <contour>
        <pt x="376" y="1819" on="1"/>
        <pt x="392" y="1819" on="1"/>
        <pt x="442" y="1819" on="0"/>
        <pt x="542" y="1701" on="1"/>
        <pt x="689" y="1527" on="0"/>
        <pt x="689" y="1523" on="1"/>
        <pt x="689" y="1492" on="0"/>
        <pt x="598" y="1492" on="0"/>
        <pt x="385" y="1656" on="0"/>
        <pt x="376" y="1656" on="0"/>
        <pt x="164" y="1493" on="0"/>
        <pt x="73" y="1493" on="0"/>
        <pt x="73" y="1520" on="1"/>
        <pt x="73" y="1526" on="1"/>
        <pt x="73" y="1561" on="0"/>
        <pt x="291" y="1779" on="1"/>
        <pt x="331" y="1819" on="0"/>
      </contour>
      <contour>
        <pt x="504" y="1098" on="0"/>
        <pt x="504" y="258" on="0"/>
        <pt x="538" y="120" on="0"/>
        <pt x="579" y="96" on="1"/>
        <pt x="661" y="48" on="0"/>
        <pt x="661" y="40" on="1"/>
        <pt x="661" y="27" on="1"/>
        <pt x="661" y="-10" on="0"/>
        <pt x="590" y="-10" on="1"/>
        <pt x="500" y="-10" on="1"/>
        <pt x="478" y="-9" on="1"/>
        <pt x="366" y="-9" on="1"/>
        <pt x="277" y="-10" on="1"/>
        <pt x="165" y="-10" on="1"/>
        <pt x="100" y="-10" on="0"/>
        <pt x="100" y="32" on="1"/>
        <pt x="100" y="52" on="0"/>
        <pt x="173" y="94" on="1"/>
        <pt x="220" y="121" on="0"/>
        <pt x="256" y="251" on="0"/>
        <pt x="256" y="1097" on="0"/>
        <pt x="225" y="1243" on="0"/>
        <pt x="181" y="1267" on="1"/>
        <pt x="100" y="1311" on="0"/>
        <pt x="100" y="1338" on="1"/>
        <pt x="100" y="1375" on="0"/>
        <pt x="193" y="1375" on="1"/>
        <pt x="216" y="1375" on="1"/>
        <pt x="238" y="1374" on="1"/>
        <pt x="507" y="1375" on="1"/>
        <pt x="595" y="1375" on="1"/>
        <pt x="659" y="1375" on="0"/>
        <pt x="659" y="1332" on="1"/>
        <pt x="659" y="1310" on="0"/>
        <pt x="587" y="1269" on="1"/>
        <pt x="538" y="1241" on="0"/>
      </contour>
    </TTGlyph>
    <TTGlyph name="Idieresis" xMin="60" yMin="-11" xMax="703" yMax="1756">
      <contour>
        <pt x="169" y="1519" on="1"/>
        <pt x="123" y="1519" on="0"/>
        <pt x="63" y="1579" on="0"/>
        <pt x="63" y="1608" on="1"/>
        <pt x="60" y="1628" on="1"/>
        <pt x="60" y="1648" on="1"/>
        <pt x="63" y="1660" on="0"/>
        <pt x="63" y="1667" on="1"/>
        <pt x="63" y="1698" on="0"/>
        <pt x="133" y="1756" on="0"/>
        <pt x="172" y="1756" on="1"/>
        <pt x="188" y="1756" on="1"/>
        <pt x="243" y="1756" on="0"/>
        <pt x="301" y="1686" on="0"/>
        <pt x="301" y="1642" on="1"/>
        <pt x="301" y="1634" on="1"/>
        <pt x="301" y="1585" on="0"/>
        <pt x="237" y="1521" on="0"/>
        <pt x="204" y="1521" on="1"/>
        <pt x="196" y="1519" on="0"/>
        <pt x="193" y="1519" on="1"/>
        <pt x="181" y="1518" on="1"/>
        <pt x="177" y="1518" on="1"/>
        <pt x="173" y="1519" on="1"/>
      </contour>
      <contour>
        <pt x="463" y="1646" on="1"/>
        <pt x="465" y="1665" on="1"/>
        <pt x="465" y="1698" on="0"/>
        <pt x="535" y="1756" on="0"/>
        <pt x="572" y="1756" on="1"/>
        <pt x="596" y="1756" on="1"/>
        <pt x="635" y="1756" on="0"/>
        <pt x="703" y="1699" on="0"/>
        <pt x="703" y="1649" on="1"/>
        <pt x="703" y="1629" on="1"/>
        <pt x="703" y="1584" on="0"/>
        <pt x="638" y="1519" on="0"/>
        <pt x="597" y="1519" on="1"/>
        <pt x="565" y="1519" on="1"/>
        <pt x="532" y="1519" on="0"/>
        <pt x="465" y="1575" on="0"/>
        <pt x="465" y="1610" on="1"/>
        <pt x="462" y="1634" on="1"/>
        <pt x="462" y="1642" on="1"/>
      </contour>
      <contour>
        <pt x="651" y="1331" on="1"/>
        <pt x="651" y="1311" on="0"/>
        <pt x="528" y="1238" on="0"/>
        <pt x="498" y="1110" on="0"/>
        <pt x="498" y="247" on="0"/>
        <pt x="528" y="120" on="0"/>
        <pt x="570" y="96" on="1"/>
        <pt x="652" y="48" on="0"/>
        <pt x="652" y="26" on="1"/>
        <pt x="652" y="-11" on="0"/>
        <pt x="585" y="-11" on="1"/>
        <pt x="498" y="-11" on="1"/>
        <pt x="476" y="-10" on="1"/>
        <pt x="367" y="-10" on="1"/>
        <pt x="279" y="-11" on="1"/>
        <pt x="170" y="-11" on="1"/>
        <pt x="107" y="-11" on="0"/>
        <pt x="107" y="30" on="1"/>
        <pt x="107" y="52" on="0"/>
        <pt x="181" y="93" on="1"/>
        <pt x="230" y="120" on="0"/>
        <pt x="261" y="251" on="0"/>
        <pt x="261" y="1108" on="0"/>
        <pt x="234" y="1241" on="0"/>
        <pt x="190" y="1266" on="1"/>
        <pt x="108" y="1312" on="0"/>
        <pt x="108" y="1337" on="1"/>
        <pt x="108" y="1373" on="0"/>
        <pt x="394" y="1373" on="1"/>
        <pt x="502" y="1374" on="1"/>
        <pt x="590" y="1374" on="1"/>
        <pt x="651" y="1374" on="0"/>
      </contour>
    </TTGlyph>
    <TTGlyph name="Igrave" xMin="87" yMin="-11" xMax="653" yMax="1828">
      <contour>
        <pt x="87" y="1757" on="1"/>
        <pt x="87" y="1772" on="1"/>
        <pt x="87" y="1785" on="0"/>
        <pt x="142" y="1828" on="0"/>
        <pt x="181" y="1828" on="1"/>
        <pt x="204" y="1828" on="1"/>
        <pt x="251" y="1828" on="0"/>
        <pt x="318" y="1768" on="1"/>
        <pt x="508" y="1599" on="0"/>
        <pt x="508" y="1531" on="1"/>
        <pt x="508" y="1522" on="1"/>
        <pt x="508" y="1493" on="0"/>
        <pt x="474" y="1493" on="1"/>
        <pt x="457" y="1493" on="1"/>
        <pt x="384" y="1493" on="0"/>
        <pt x="178" y="1653" on="1"/>
        <pt x="87" y="1724" on="0"/>
      </contour>
      <contour>
        <pt x="499" y="1111" on="0"/>
        <pt x="499" y="247" on="0"/>
        <pt x="529" y="119" on="0"/>
        <pt x="571" y="96" on="1"/>
        <pt x="653" y="51" on="0"/>
        <pt x="653" y="26" on="1"/>
        <pt x="653" y="-11" on="0"/>
        <pt x="564" y="-11" on="1"/>
        <pt x="542" y="-11" on="1"/>
        <pt x="520" y="-10" on="1"/>
        <pt x="454" y="-9" on="1"/>
        <pt x="367" y="-9" on="1"/>
        <pt x="258" y="-11" on="1"/>
        <pt x="192" y="-11" on="1"/>
        <pt x="108" y="-11" on="0"/>
        <pt x="108" y="31" on="1"/>
        <pt x="108" y="51" on="0"/>
        <pt x="181" y="93" on="1"/>
        <pt x="231" y="122" on="0"/>
        <pt x="262" y="251" on="0"/>
        <pt x="262" y="1128" on="0"/>
        <pt x="229" y="1247" on="0"/>
        <pt x="109" y="1308" on="0"/>
        <pt x="109" y="1337" on="1"/>
        <pt x="109" y="1373" on="0"/>
        <pt x="395" y="1373" on="1"/>
        <pt x="547" y="1375" on="1"/>
        <pt x="569" y="1375" on="1"/>
        <pt x="652" y="1375" on="0"/>
        <pt x="652" y="1332" on="1"/>
        <pt x="652" y="1310" on="0"/>
        <pt x="579" y="1269" on="1"/>
        <pt x="530" y="1241" on="0"/>
      </contour>
    </TTGlyph>
    <TTGlyph name="J" xMin="-1" yMin="-236" xMax="713" yMax="1394">
      <contour>
        <pt x="369" y="987" on="1"/>
        <pt x="369" y="1140" on="0"/>
        <pt x="340" y="1210" on="1"/>
        <pt x="324" y="1248" on="0"/>
        <pt x="213" y="1325" on="0"/>
        <pt x="213" y="1351" on="1"/>
        <pt x="213" y="1382" on="0"/>
        <pt x="379" y="1382" on="1"/>
        <pt x="395" y="1382" on="0"/>
        <pt x="476" y="1387" on="0"/>
        <pt x="499" y="1388" on="1"/>
        <pt x="548" y="1391" on="1"/>
        <pt x="597" y="1394" on="0"/>
        <pt x="622" y="1394" on="1"/>
        <pt x="647" y="1394" on="1"/>
        <pt x="713" y="1394" on="0"/>
        <pt x="713" y="1353" on="1"/>
        <pt x="713" y="1340" on="0"/>
        <pt x="639" y="1269" on="0"/>
        <pt x="610" y="1190" on="0"/>
        <pt x="610" y="1033" on="1"/>
        <pt x="608" y="982" on="1"/>
        <pt x="607" y="906" on="1"/>
        <pt x="607" y="828" on="1"/>
        <pt x="605" y="776" on="0"/>
        <pt x="605" y="744" on="1"/>
        <pt x="605" y="673" on="1"/>
        <pt x="604" y="621" on="1"/>
        <pt x="604" y="455" on="1"/>
        <pt x="604" y="315" on="0"/>
        <pt x="587" y="196" on="1"/>
        <pt x="548" y="-75" on="0"/>
        <pt x="337" y="-188" on="1"/>
        <pt x="248" y="-236" on="0"/>
        <pt x="160" y="-236" on="1"/>
        <pt x="-1" y="-236" on="0"/>
        <pt x="-1" y="-156" on="1"/>
        <pt x="-1" y="-109" on="0"/>
        <pt x="65" y="-47" on="0"/>
        <pt x="135" y="-47" on="1"/>
        <pt x="194" y="-51" on="1"/>
        <pt x="235" y="-51" on="0"/>
        <pt x="299" y="10" on="0"/>
        <pt x="367" y="215" on="0"/>
        <pt x="367" y="458" on="1"/>
        <pt x="371" y="608" on="1"/>
        <pt x="371" y="912" on="1"/>
        <pt x="370" y="937" on="1"/>
        <pt x="369" y="962" on="0"/>
      </contour>
    </TTGlyph>
    <TTGlyph name="K" xMin="110" yMin="-1" xMax="1394" yMax="1399">
      <contour>
        <pt x="574" y="627" on="1"/>
        <pt x="494" y="627" on="0"/>
        <pt x="494" y="398" on="1"/>
        <pt x="494" y="278" on="0"/>
        <pt x="530" y="145" on="0"/>
        <pt x="542" y="124" on="1"/>
        <pt x="560" y="100" on="1"/>
        <pt x="584" y="67" on="0"/>
        <pt x="584" y="58" on="1"/>
        <pt x="584" y="24" on="0"/>
        <pt x="484" y="0" on="0"/>
        <pt x="110" y="0" on="0"/>
        <pt x="110" y="39" on="1"/>
        <pt x="110" y="65" on="0"/>
        <pt x="226" y="145" on="0"/>
        <pt x="253" y="302" on="0"/>
        <pt x="253" y="1088" on="0"/>
        <pt x="222" y="1241" on="0"/>
        <pt x="184" y="1280" on="1"/>
        <pt x="160" y="1302" on="1"/>
        <pt x="118" y="1340" on="0"/>
        <pt x="118" y="1347" on="1"/>
        <pt x="118" y="1399" on="0"/>
        <pt x="306" y="1399" on="1"/>
        <pt x="351" y="1398" on="1"/>
        <pt x="398" y="1398" on="1"/>
        <pt x="594" y="1398" on="0"/>
        <pt x="594" y="1356" on="1"/>
        <pt x="594" y="1336" on="0"/>
        <pt x="531" y="1256" on="0"/>
        <pt x="524" y="1229" on="1"/>
        <pt x="498" y="1134" on="0"/>
        <pt x="498" y="877" on="1"/>
        <pt x="498" y="771" on="0"/>
        <pt x="538" y="771" on="1"/>
        <pt x="554" y="771" on="0"/>
        <pt x="597" y="805" on="1"/>
        <pt x="695" y="882" on="0"/>
        <pt x="961" y="1203" on="0"/>
        <pt x="961" y="1265" on="1"/>
        <pt x="959" y="1292" on="1"/>
        <pt x="953" y="1317" on="1"/>
        <pt x="948" y="1341" on="1"/>
        <pt x="948" y="1373" on="0"/>
        <pt x="1022" y="1393" on="0"/>
        <pt x="1137" y="1393" on="1"/>
        <pt x="1313" y="1393" on="0"/>
        <pt x="1313" y="1343" on="1"/>
        <pt x="1313" y="1331" on="0"/>
        <pt x="1110" y="1186" on="0"/>
        <pt x="1020" y="1090" on="1"/>
        <pt x="803" y="859" on="0"/>
        <pt x="803" y="786" on="1"/>
        <pt x="803" y="746" on="0"/>
        <pt x="1129" y="321" on="1"/>
        <pt x="1210" y="216" on="0"/>
        <pt x="1394" y="57" on="0"/>
        <pt x="1394" y="45" on="1"/>
        <pt x="1394" y="-1" on="0"/>
        <pt x="1206" y="-1" on="1"/>
        <pt x="1162" y="-1" on="1"/>
        <pt x="1059" y="-1" on="0"/>
        <pt x="991" y="62" on="0"/>
        <pt x="969" y="119" on="1"/>
        <pt x="922" y="241" on="0"/>
        <pt x="640" y="627" on="0"/>
      </contour>
    </TTGlyph>
    <TTGlyph name="L" xMin="105" yMin="-2" xMax="1169" yMax="1393">
      <contour>
        <pt x="751" y="-2" on="1"/>
        <pt x="721" y="-2" on="1"/>
        <pt x="691" y="-1" on="1"/>
        <pt x="542" y="-1" on="1"/>
        <pt x="187" y="-1" on="0"/>
        <pt x="159" y="4" on="1"/>
        <pt x="107" y="13" on="0"/>
        <pt x="107" y="48" on="1"/>
        <pt x="107" y="63" on="0"/>
        <pt x="216" y="139" on="0"/>
        <pt x="249" y="282" on="0"/>
        <pt x="249" y="1190" on="0"/>
        <pt x="226" y="1269" on="0"/>
        <pt x="179" y="1289" on="1"/>
        <pt x="105" y="1321" on="0"/>
        <pt x="105" y="1393" on="0"/>
        <pt x="217" y="1393" on="1"/>
        <pt x="277" y="1393" on="1"/>
        <pt x="306" y="1392" on="1"/>
        <pt x="396" y="1391" on="1"/>
        <pt x="638" y="1391" on="0"/>
        <pt x="638" y="1355" on="1"/>
        <pt x="638" y="1343" on="0"/>
        <pt x="567" y="1274" on="1"/>
        <pt x="527" y="1235" on="0"/>
        <pt x="492" y="1046" on="0"/>
        <pt x="492" y="228" on="0"/>
        <pt x="517" y="152" on="0"/>
        <pt x="563" y="137" on="1"/>
        <pt x="591" y="128" on="0"/>
        <pt x="673" y="128" on="1"/>
        <pt x="850" y="128" on="0"/>
        <pt x="938" y="174" on="1"/>
        <pt x="988" y="200" on="0"/>
        <pt x="1104" y="362" on="0"/>
        <pt x="1169" y="362" on="0"/>
        <pt x="1169" y="320" on="1"/>
        <pt x="1169" y="294" on="1"/>
        <pt x="1169" y="74" on="0"/>
        <pt x="1115" y="25" on="1"/>
        <pt x="1085" y="-2" on="0"/>
      </contour>
    </TTGlyph>
    <TTGlyph name="Lslash" xMin="126" yMin="-1" xMax="1187" yMax="1359">
      <contour>
        <pt x="769" y="895" on="1"/>
        <pt x="798" y="895" on="0"/>
        <pt x="798" y="861" on="1"/>
        <pt x="798" y="813" on="0"/>
        <pt x="572" y="655" on="0"/>
        <pt x="500" y="519" on="0"/>
        <pt x="500" y="217" on="0"/>
        <pt x="602" y="112" on="0"/>
        <pt x="850" y="112" on="0"/>
        <pt x="935" y="158" on="1"/>
        <pt x="982" y="183" on="0"/>
        <pt x="1134" y="351" on="0"/>
        <pt x="1187" y="351" on="0"/>
        <pt x="1187" y="297" on="1"/>
        <pt x="1187" y="158" on="0"/>
        <pt x="1151" y="73" on="1"/>
        <pt x="1139" y="44" on="0"/>
        <pt x="1116" y="30" on="1"/>
        <pt x="1070" y="1" on="0"/>
        <pt x="614" y="1" on="1"/>
        <pt x="299" y="0" on="1"/>
        <pt x="264" y="-1" on="1"/>
        <pt x="228" y="-1" on="1"/>
        <pt x="126" y="-1" on="0"/>
        <pt x="126" y="25" on="1"/>
        <pt x="126" y="44" on="0"/>
        <pt x="172" y="80" on="1"/>
        <pt x="268" y="155" on="0"/>
        <pt x="268" y="328" on="1"/>
        <pt x="268" y="440" on="0"/>
        <pt x="248" y="464" on="1"/>
        <pt x="245" y="467" on="0"/>
        <pt x="128" y="492" on="0"/>
        <pt x="128" y="555" on="0"/>
        <pt x="243" y="687" on="0"/>
        <pt x="268" y="779" on="0"/>
        <pt x="268" y="1142" on="0"/>
        <pt x="243" y="1200" on="1"/>
        <pt x="231" y="1229" on="0"/>
        <pt x="129" y="1308" on="0"/>
        <pt x="129" y="1318" on="1"/>
        <pt x="129" y="1359" on="0"/>
        <pt x="240" y="1359" on="1"/>
        <pt x="449" y="1359" on="1"/>
        <pt x="623" y="1359" on="0"/>
        <pt x="623" y="1310" on="1"/>
        <pt x="623" y="1289" on="0"/>
        <pt x="584" y="1250" on="1"/>
        <pt x="506" y="1171" on="0"/>
        <pt x="506" y="968" on="1"/>
        <pt x="506" y="828" on="0"/>
        <pt x="560" y="828" on="1"/>
        <pt x="571" y="828" on="0"/>
        <pt x="720" y="895" on="0"/>
      </contour>
    </TTGlyph>
    <TTGlyph name="M" xMin="113" yMin="15" xMax="1796" yMax="1378">
      <contour>
        <pt x="951" y="428" on="1"/>
        <pt x="965" y="428" on="0"/>
        <pt x="1325" y="1205" on="0"/>
        <pt x="1409" y="1333" on="0"/>
        <pt x="1519" y="1378" on="0"/>
        <pt x="1760" y="1378" on="0"/>
        <pt x="1760" y="1322" on="1"/>
        <pt x="1736" y="1292" on="1"/>
        <pt x="1705" y="1259" on="1"/>
        <pt x="1675" y="1220" on="0"/>
        <pt x="1650" y="1117" on="0"/>
        <pt x="1650" y="999" on="1"/>
        <pt x="1650" y="497" on="0"/>
        <pt x="1676" y="267" on="1"/>
        <pt x="1686" y="177" on="0"/>
        <pt x="1796" y="74" on="0"/>
        <pt x="1796" y="57" on="1"/>
        <pt x="1771" y="39" on="1"/>
        <pt x="1723" y="17" on="0"/>
        <pt x="1441" y="17" on="0"/>
        <pt x="1405" y="54" on="1"/>
        <pt x="1395" y="76" on="1"/>
        <pt x="1395" y="105" on="0"/>
        <pt x="1439" y="286" on="0"/>
        <pt x="1439" y="376" on="1"/>
        <pt x="1439" y="1032" on="0"/>
        <pt x="1397" y="1032" on="1"/>
        <pt x="1376" y="1032" on="0"/>
        <pt x="1036" y="220" on="0"/>
        <pt x="959" y="79" on="0"/>
        <pt x="896" y="79" on="1"/>
        <pt x="852" y="79" on="0"/>
        <pt x="459" y="1040" on="0"/>
        <pt x="425" y="1040" on="1"/>
        <pt x="397" y="1040" on="0"/>
        <pt x="397" y="549" on="1"/>
        <pt x="397" y="331" on="0"/>
        <pt x="411" y="231" on="0"/>
        <pt x="444" y="91" on="0"/>
        <pt x="444" y="45" on="0"/>
        <pt x="382" y="15" on="0"/>
        <pt x="333" y="15" on="1"/>
        <pt x="278" y="15" on="1"/>
        <pt x="113" y="15" on="0"/>
        <pt x="113" y="57" on="1"/>
        <pt x="113" y="78" on="0"/>
        <pt x="226" y="175" on="0"/>
        <pt x="245" y="246" on="0"/>
        <pt x="277" y="895" on="0"/>
        <pt x="277" y="1127" on="0"/>
        <pt x="249" y="1218" on="0"/>
        <pt x="148" y="1318" on="0"/>
        <pt x="148" y="1344" on="1"/>
        <pt x="148" y="1376" on="0"/>
        <pt x="333" y="1376" on="1"/>
        <pt x="404" y="1376" on="0"/>
        <pt x="508" y="1337" on="0"/>
        <pt x="609" y="1190" on="0"/>
        <pt x="931" y="428" on="0"/>
      </contour>
    </TTGlyph>
    <TTGlyph name="N" xMin="108" yMin="7" xMax="1498" yMax="1385">
      <contour>
        <pt x="1353" y="246" on="1"/>
        <pt x="1353" y="74" on="0"/>
        <pt x="1331" y="17" on="0"/>
        <pt x="1293" y="17" on="1"/>
        <pt x="1211" y="17" on="0"/>
        <pt x="1086" y="167" on="1"/>
        <pt x="1056" y="204" on="1"/>
        <pt x="961" y="325" on="0"/>
        <pt x="782" y="589" on="0"/>
        <pt x="749" y="636" on="1"/>
        <pt x="441" y="1065" on="0"/>
        <pt x="414" y="1065" on="1"/>
        <pt x="393" y="1065" on="0"/>
        <pt x="393" y="363" on="0"/>
        <pt x="422" y="218" on="1"/>
        <pt x="432" y="166" on="0"/>
        <pt x="499" y="67" on="0"/>
        <pt x="499" y="50" on="1"/>
        <pt x="499" y="7" on="0"/>
        <pt x="296" y="7" on="1"/>
        <pt x="250" y="7" on="1"/>
        <pt x="108" y="7" on="0"/>
        <pt x="108" y="79" on="0"/>
        <pt x="231" y="148" on="0"/>
        <pt x="263" y="267" on="0"/>
        <pt x="263" y="627" on="1"/>
        <pt x="266" y="776" on="1"/>
        <pt x="265" y="922" on="1"/>
        <pt x="265" y="1135" on="0"/>
        <pt x="239" y="1201" on="1"/>
        <pt x="227" y="1232" on="0"/>
        <pt x="113" y="1319" on="0"/>
        <pt x="113" y="1327" on="1"/>
        <pt x="113" y="1380" on="0"/>
        <pt x="330" y="1380" on="0"/>
        <pt x="456" y="1328" on="0"/>
        <pt x="553" y="1236" on="0"/>
        <pt x="876" y="807" on="0"/>
        <pt x="938" y="720" on="1"/>
        <pt x="1023" y="604" on="1"/>
        <pt x="1176" y="395" on="0"/>
        <pt x="1186" y="395" on="1"/>
        <pt x="1218" y="395" on="0"/>
        <pt x="1218" y="1093" on="0"/>
        <pt x="1191" y="1237" on="0"/>
        <pt x="1104" y="1332" on="0"/>
        <pt x="1104" y="1336" on="1"/>
        <pt x="1104" y="1385" on="0"/>
        <pt x="1211" y="1385" on="1"/>
        <pt x="1306" y="1385" on="1"/>
        <pt x="1433" y="1385" on="0"/>
        <pt x="1474" y="1366" on="1"/>
        <pt x="1498" y="1355" on="0"/>
        <pt x="1498" y="1323" on="1"/>
        <pt x="1498" y="1320" on="0"/>
        <pt x="1422" y="1245" on="1"/>
        <pt x="1381" y="1205" on="0"/>
        <pt x="1355" y="1081" on="0"/>
        <pt x="1355" y="711" on="1"/>
        <pt x="1353" y="516" on="1"/>
      </contour>
    </TTGlyph>
    <TTGlyph name="Nacute" xMin="70" yMin="17" xMax="1462" yMax="1806">
      <contour>
        <pt x="670" y="1466" on="1"/>
        <pt x="670" y="1492" on="1"/>
        <pt x="670" y="1558" on="0"/>
        <pt x="746" y="1626" on="1"/>
        <pt x="949" y="1806" on="0"/>
        <pt x="1003" y="1806" on="1"/>
        <pt x="1015" y="1806" on="1"/>
        <pt x="1034" y="1803" on="1"/>
        <pt x="1095" y="1803" on="0"/>
        <pt x="1095" y="1747" on="1"/>
        <pt x="1094" y="1741" on="1"/>
        <pt x="1094" y="1735" on="1"/>
        <pt x="1094" y="1685" on="0"/>
        <pt x="1039" y="1647" on="1"/>
        <pt x="760" y="1452" on="0"/>
        <pt x="692" y="1452" on="1"/>
        <pt x="683" y="1452" on="1"/>
        <pt x="670" y="1452" on="0"/>
      </contour>
      <contour>
        <pt x="1265" y="31" on="1"/>
        <pt x="1210" y="31" on="0"/>
        <pt x="1113" y="105" on="0"/>
        <pt x="952" y="290" on="0"/>
        <pt x="413" y="1031" on="0"/>
        <pt x="359" y="1031" on="0"/>
        <pt x="359" y="769" on="1"/>
        <pt x="359" y="277" on="0"/>
        <pt x="441" y="132" on="1"/>
        <pt x="457" y="107" on="1"/>
        <pt x="478" y="76" on="0"/>
        <pt x="478" y="69" on="1"/>
        <pt x="471" y="51" on="1"/>
        <pt x="438" y="17" on="0"/>
        <pt x="200" y="17" on="1"/>
        <pt x="70" y="17" on="0"/>
        <pt x="70" y="58" on="1"/>
        <pt x="70" y="77" on="0"/>
        <pt x="151" y="121" on="1"/>
        <pt x="208" y="152" on="0"/>
        <pt x="239" y="278" on="0"/>
        <pt x="239" y="583" on="1"/>
        <pt x="242" y="727" on="1"/>
        <pt x="243" y="775" on="0"/>
        <pt x="243" y="1072" on="0"/>
        <pt x="208" y="1196" on="0"/>
        <pt x="82" y="1284" on="0"/>
        <pt x="82" y="1307" on="1"/>
        <pt x="82" y="1349" on="0"/>
        <pt x="314" y="1349" on="0"/>
        <pt x="461" y="1296" on="0"/>
        <pt x="521" y="1231" on="1"/>
        <pt x="548" y="1202" on="0"/>
        <pt x="1164" y="398" on="0"/>
        <pt x="1176" y="398" on="1"/>
        <pt x="1195" y="398" on="0"/>
        <pt x="1195" y="997" on="0"/>
        <pt x="1167" y="1150" on="1"/>
        <pt x="1156" y="1212" on="0"/>
        <pt x="1124" y="1251" on="1"/>
        <pt x="1102" y="1273" on="1"/>
        <pt x="1065" y="1308" on="0"/>
        <pt x="1065" y="1311" on="1"/>
        <pt x="1065" y="1362" on="0"/>
        <pt x="1206" y="1362" on="1"/>
        <pt x="1298" y="1362" on="1"/>
        <pt x="1462" y="1362" on="0"/>
        <pt x="1462" y="1322" on="1"/>
        <pt x="1462" y="1296" on="0"/>
        <pt x="1335" y="1195" on="0"/>
        <pt x="1313" y="1062" on="0"/>
        <pt x="1313" y="184" on="0"/>
        <pt x="1303" y="31" on="0"/>
      </contour>
    </TTGlyph>
    <TTGlyph name="Ntilde" xMin="81" yMin="-5" xMax="1465" yMax="1759">
      <contour>
        <pt x="649" y="1759" on="1"/>
        <pt x="666" y="1759" on="1"/>
        <pt x="708" y="1759" on="0"/>
        <pt x="908" y="1670" on="0"/>
        <pt x="985" y="1670" on="0"/>
        <pt x="1087" y="1748" on="0"/>
        <pt x="1094" y="1748" on="1"/>
        <pt x="1134" y="1748" on="0"/>
        <pt x="1134" y="1710" on="1"/>
        <pt x="1134" y="1646" on="0"/>
        <pt x="999" y="1521" on="0"/>
        <pt x="935" y="1521" on="1"/>
        <pt x="910" y="1521" on="1"/>
        <pt x="856" y="1521" on="0"/>
        <pt x="676" y="1611" on="0"/>
        <pt x="595" y="1611" on="0"/>
        <pt x="485" y="1532" on="0"/>
        <pt x="473" y="1532" on="1"/>
        <pt x="440" y="1532" on="0"/>
        <pt x="440" y="1569" on="1"/>
        <pt x="440" y="1638" on="0"/>
        <pt x="583" y="1759" on="0"/>
      </contour>
      <contour>
        <pt x="1252" y="12" on="1"/>
        <pt x="1174" y="12" on="0"/>
        <pt x="1046" y="168" on="1"/>
        <pt x="999" y="226" on="0"/>
        <pt x="875" y="398" on="1"/>
        <pt x="792" y="516" on="1"/>
        <pt x="721" y="616" on="0"/>
        <pt x="707" y="635" on="1"/>
        <pt x="401" y="1046" on="0"/>
        <pt x="381" y="1046" on="1"/>
        <pt x="368" y="1046" on="0"/>
        <pt x="368" y="748" on="1"/>
        <pt x="368" y="258" on="0"/>
        <pt x="440" y="124" on="1"/>
        <pt x="487" y="37" on="0"/>
        <pt x="487" y="35" on="1"/>
        <pt x="487" y="-5" on="0"/>
        <pt x="268" y="-5" on="1"/>
        <pt x="222" y="-5" on="1"/>
        <pt x="81" y="-5" on="0"/>
        <pt x="81" y="35" on="1"/>
        <pt x="81" y="65" on="0"/>
        <pt x="214" y="133" on="0"/>
        <pt x="242" y="266" on="0"/>
        <pt x="242" y="1086" on="0"/>
        <pt x="213" y="1207" on="0"/>
        <pt x="87" y="1301" on="0"/>
        <pt x="87" y="1316" on="1"/>
        <pt x="87" y="1364" on="0"/>
        <pt x="340" y="1364" on="0"/>
        <pt x="438" y="1327" on="0"/>
        <pt x="508" y="1257" on="0"/>
        <pt x="851" y="809" on="0"/>
        <pt x="924" y="710" on="1"/>
        <pt x="1012" y="592" on="1"/>
        <pt x="1166" y="386" on="0"/>
        <pt x="1175" y="386" on="1"/>
        <pt x="1198" y="386" on="0"/>
        <pt x="1198" y="1079" on="0"/>
        <pt x="1168" y="1179" on="1"/>
        <pt x="1155" y="1223" on="0"/>
        <pt x="1067" y="1311" on="0"/>
        <pt x="1067" y="1330" on="1"/>
        <pt x="1067" y="1365" on="0"/>
        <pt x="1196" y="1365" on="1"/>
        <pt x="1290" y="1365" on="1"/>
        <pt x="1465" y="1365" on="0"/>
        <pt x="1465" y="1323" on="1"/>
        <pt x="1465" y="1297" on="0"/>
        <pt x="1356" y="1201" on="0"/>
        <pt x="1327" y="1112" on="0"/>
        <pt x="1327" y="974" on="1"/>
        <pt x="1324" y="829" on="1"/>
        <pt x="1323" y="781" on="0"/>
        <pt x="1323" y="685" on="1"/>
        <pt x="1321" y="492" on="1"/>
        <pt x="1321" y="395" on="1"/>
        <pt x="1320" y="70" on="1"/>
        <pt x="1309" y="12" on="0"/>
      </contour>
    </TTGlyph>
    <TTGlyph name="O" xMin="99" yMin="-29" xMax="1424" yMax="1411">
      <contour>
        <pt x="343" y="740" on="1"/>
        <pt x="343" y="686" on="1"/>
        <pt x="343" y="425" on="0"/>
        <pt x="458" y="250" on="1"/>
        <pt x="510" y="171" on="0"/>
        <pt x="665" y="79" on="0"/>
        <pt x="747" y="79" on="1"/>
        <pt x="763" y="79" on="1"/>
        <pt x="941" y="79" on="0"/>
        <pt x="1048" y="245" on="1"/>
        <pt x="1090" y="309" on="0"/>
        <pt x="1150" y="523" on="0"/>
        <pt x="1150" y="644" on="1"/>
        <pt x="1150" y="699" on="1"/>
        <pt x="1150" y="832" on="0"/>
        <pt x="1116" y="950" on="1"/>
        <pt x="946" y="1240" on="0"/>
        <pt x="741" y="1305" on="1"/>
        <pt x="667" y="1304" on="0"/>
        <pt x="593" y="1270" on="1"/>
        <pt x="439" y="1198" on="0"/>
        <pt x="377" y="980" on="1"/>
        <pt x="343" y="859" on="0"/>
      </contour>
      <contour>
        <pt x="1424" y="730" on="1"/>
        <pt x="1424" y="683" on="1"/>
        <pt x="1424" y="547" on="0"/>
        <pt x="1376" y="412" on="1"/>
        <pt x="1277" y="134" on="0"/>
        <pt x="1024" y="26" on="1"/>
        <pt x="895" y="-29" on="0"/>
        <pt x="765" y="-29" on="1"/>
        <pt x="718" y="-29" on="1"/>
        <pt x="589" y="-29" on="0"/>
        <pt x="364" y="75" on="0"/>
        <pt x="200" y="244" on="0"/>
        <pt x="99" y="520" on="0"/>
        <pt x="99" y="656" on="1"/>
        <pt x="99" y="703" on="1"/>
        <pt x="99" y="842" on="0"/>
        <pt x="195" y="1111" on="0"/>
        <pt x="369" y="1303" on="0"/>
        <pt x="617" y="1411" on="0"/>
        <pt x="750" y="1411" on="1"/>
        <pt x="773" y="1411" on="1"/>
        <pt x="1058" y="1411" on="0"/>
        <pt x="1231" y="1232" on="1"/>
        <pt x="1317" y="1143" on="0"/>
        <pt x="1424" y="869" on="0"/>
      </contour>
    </TTGlyph>
    <TTGlyph name="OE" xMin="81" yMin="-12" xMax="1877" yMax="1389">
      <contour>
        <pt x="339" y="736" on="1"/>
        <pt x="339" y="664" on="1"/>
        <pt x="341" y="628" on="0"/>
        <pt x="341" y="612" on="1"/>
        <pt x="341" y="609" on="0"/>
        <pt x="341" y="607" on="1"/>
        <pt x="341" y="506" on="0"/>
        <pt x="378" y="406" on="1"/>
        <pt x="452" y="205" on="0"/>
        <pt x="597" y="128" on="1"/>
        <pt x="670" y="89" on="0"/>
        <pt x="749" y="89" on="1"/>
        <pt x="797" y="89" on="1"/>
        <pt x="944" y="90" on="0"/>
        <pt x="968" y="186" on="1"/>
        <pt x="980" y="230" on="0"/>
        <pt x="980" y="714" on="1"/>
        <pt x="982" y="815" on="1"/>
        <pt x="982" y="964" on="1"/>
        <pt x="982" y="1183" on="0"/>
        <pt x="957" y="1220" on="1"/>
        <pt x="910" y="1290" on="0"/>
        <pt x="775" y="1290" on="1"/>
        <pt x="726" y="1290" on="1"/>
        <pt x="646" y="1290" on="0"/>
        <pt x="570" y="1246" on="1"/>
        <pt x="423" y="1160" on="0"/>
        <pt x="365" y="953" on="1"/>
        <pt x="339" y="863" on="0"/>
      </contour>
      <contour>
        <pt x="1832" y="1209" on="1"/>
        <pt x="1832" y="1139" on="0"/>
        <pt x="1790" y="1139" on="1"/>
        <pt x="1787" y="1139" on="0"/>
        <pt x="1684" y="1190" on="0"/>
        <pt x="1662" y="1198" on="1"/>
        <pt x="1510" y="1250" on="0"/>
        <pt x="1322" y="1250" on="0"/>
        <pt x="1236" y="1106" on="0"/>
        <pt x="1236" y="881" on="0"/>
        <pt x="1260" y="847" on="1"/>
        <pt x="1300" y="790" on="0"/>
        <pt x="1443" y="790" on="0"/>
        <pt x="1482" y="809" on="1"/>
        <pt x="1512" y="827" on="1"/>
        <pt x="1541" y="849" on="1"/>
        <pt x="1571" y="869" on="0"/>
        <pt x="1598" y="869" on="1"/>
        <pt x="1625" y="859" on="1"/>
        <pt x="1661" y="829" on="0"/>
        <pt x="1661" y="716" on="1"/>
        <pt x="1661" y="553" on="0"/>
        <pt x="1607" y="553" on="1"/>
        <pt x="1575" y="553" on="0"/>
        <pt x="1459" y="636" on="0"/>
        <pt x="1302" y="636" on="0"/>
        <pt x="1259" y="585" on="1"/>
        <pt x="1229" y="549" on="0"/>
        <pt x="1229" y="261" on="0"/>
        <pt x="1310" y="125" on="0"/>
        <pt x="1422" y="125" on="1"/>
        <pt x="1607" y="125" on="0"/>
        <pt x="1760" y="224" on="1"/>
        <pt x="1833" y="271" on="0"/>
        <pt x="1850" y="271" on="1"/>
        <pt x="1877" y="271" on="0"/>
        <pt x="1877" y="230" on="1"/>
        <pt x="1877" y="201" on="1"/>
        <pt x="1877" y="79" on="0"/>
        <pt x="1780" y="34" on="1"/>
        <pt x="1704" y="-1" on="0"/>
        <pt x="1237" y="-1" on="0"/>
        <pt x="1070" y="12" on="0"/>
        <pt x="1026" y="12" on="0"/>
        <pt x="786" y="-12" on="0"/>
        <pt x="734" y="-12" on="1"/>
        <pt x="687" y="-12" on="1"/>
        <pt x="554" y="-12" on="0"/>
        <pt x="440" y="42" on="1"/>
        <pt x="82" y="214" on="0"/>
        <pt x="81" y="697" on="1"/>
        <pt x="82" y="838" on="0"/>
        <pt x="130" y="970" on="1"/>
        <pt x="178" y="1104" on="0"/>
        <pt x="270" y="1200" on="1"/>
        <pt x="449" y="1389" on="0"/>
        <pt x="756" y="1389" on="1"/>
        <pt x="759" y="1389" on="1"/>
        <pt x="796" y="1389" on="0"/>
        <pt x="986" y="1372" on="0"/>
        <pt x="1113" y="1372" on="1"/>
        <pt x="1422" y="1379" on="1"/>
        <pt x="1684" y="1379" on="0"/>
        <pt x="1832" y="1307" on="0"/>
      </contour>
    </TTGlyph>
    <TTGlyph name="Oacute" xMin="100" yMin="-34" xMax="1408" yMax="1812">
      <contour>
        <pt x="344" y="735" on="1"/>
        <pt x="344" y="699" on="1"/>
        <pt x="344" y="433" on="0"/>
        <pt x="457" y="269" on="1"/>
        <pt x="504" y="200" on="0"/>
        <pt x="656" y="121" on="0"/>
        <pt x="736" y="121" on="1"/>
        <pt x="753" y="121" on="1"/>
        <pt x="936" y="121" on="0"/>
        <pt x="1042" y="278" on="1"/>
        <pt x="1149" y="435" on="0"/>
        <pt x="1149" y="706" on="1"/>
        <pt x="1149" y="724" on="1"/>
        <pt x="1149" y="847" on="0"/>
        <pt x="1120" y="959" on="1"/>
        <pt x="1065" y="1171" on="0"/>
        <pt x="924" y="1254" on="1"/>
        <pt x="846" y="1299" on="0"/>
        <pt x="758" y="1299" on="1"/>
        <pt x="724" y="1299" on="1"/>
        <pt x="722" y="1299" on="0"/>
        <pt x="721" y="1299" on="1"/>
        <pt x="648" y="1299" on="0"/>
        <pt x="575" y="1258" on="1"/>
        <pt x="434" y="1179" on="0"/>
        <pt x="374" y="968" on="1"/>
        <pt x="344" y="865" on="0"/>
      </contour>
      <contour>
        <pt x="617" y="1485" on="1"/>
        <pt x="617" y="1501" on="1"/>
        <pt x="617" y="1564" on="0"/>
        <pt x="799" y="1746" on="1"/>
        <pt x="865" y="1812" on="0"/>
        <pt x="931" y="1812" on="1"/>
        <pt x="937" y="1812" on="1"/>
        <pt x="943" y="1811" on="1"/>
        <pt x="987" y="1811" on="0"/>
        <pt x="1041" y="1764" on="0"/>
        <pt x="1041" y="1740" on="1"/>
        <pt x="1040" y="1735" on="1"/>
        <pt x="1040" y="1669" on="0"/>
        <pt x="725" y="1448" on="0"/>
        <pt x="617" y="1448" on="0"/>
      </contour>
      <contour>
        <pt x="1408" y="713" on="1"/>
        <pt x="1408" y="666" on="1"/>
        <pt x="1408" y="535" on="0"/>
        <pt x="1316" y="264" on="0"/>
        <pt x="1132" y="68" on="0"/>
        <pt x="892" y="-34" on="0"/>
        <pt x="777" y="-34" on="1"/>
        <pt x="707" y="-34" on="1"/>
        <pt x="589" y="-34" on="0"/>
        <pt x="468" y="18" on="1"/>
        <pt x="238" y="118" on="0"/>
        <pt x="146" y="386" on="1"/>
        <pt x="100" y="521" on="0"/>
        <pt x="100" y="648" on="1"/>
        <pt x="100" y="695" on="1"/>
        <pt x="100" y="825" on="0"/>
        <pt x="188" y="1093" on="0"/>
        <pt x="276" y="1190" on="1"/>
        <pt x="458" y="1392" on="0"/>
        <pt x="745" y="1392" on="1"/>
        <pt x="768" y="1392" on="1"/>
        <pt x="1046" y="1392" on="0"/>
        <pt x="1220" y="1212" on="1"/>
        <pt x="1302" y="1128" on="0"/>
        <pt x="1408" y="855" on="0"/>
      </contour>
    </TTGlyph>
    <TTGlyph name="Ocircumflex" xMin="98" yMin="-34" xMax="1410" yMax="1805">
      <contour>
        <pt x="335" y="756" on="1"/>
        <pt x="335" y="722" on="1"/>
        <pt x="335" y="464" on="0"/>
        <pt x="562" y="132" on="0"/>
        <pt x="745" y="132" on="1"/>
        <pt x="1029" y="132" on="0"/>
        <pt x="1124" y="446" on="1"/>
        <pt x="1157" y="556" on="0"/>
        <pt x="1157" y="663" on="1"/>
        <pt x="1157" y="732" on="1"/>
        <pt x="1157" y="735" on="0"/>
        <pt x="1157" y="738" on="1"/>
        <pt x="1157" y="837" on="0"/>
        <pt x="1124" y="950" on="1"/>
        <pt x="1059" y="1173" on="0"/>
        <pt x="907" y="1257" on="1"/>
        <pt x="830" y="1300" on="0"/>
        <pt x="753" y="1300" on="1"/>
        <pt x="736" y="1300" on="1"/>
        <pt x="561" y="1300" on="0"/>
        <pt x="450" y="1153" on="1"/>
        <pt x="402" y="1089" on="0"/>
        <pt x="335" y="867" on="0"/>
      </contour>
      <contour>
        <pt x="1002" y="1459" on="1"/>
        <pt x="987" y="1459" on="1"/>
        <pt x="954" y="1459" on="0"/>
        <pt x="746" y="1603" on="0"/>
        <pt x="739" y="1603" on="0"/>
        <pt x="691" y="1570" on="1"/>
        <pt x="531" y="1460" on="0"/>
        <pt x="430" y="1460" on="0"/>
        <pt x="430" y="1488" on="1"/>
        <pt x="430" y="1495" on="1"/>
        <pt x="430" y="1525" on="0"/>
        <pt x="637" y="1749" on="1"/>
        <pt x="689" y="1805" on="0"/>
        <pt x="736" y="1805" on="1"/>
        <pt x="753" y="1805" on="1"/>
        <pt x="799" y="1805" on="0"/>
        <pt x="843" y="1757" on="1"/>
        <pt x="1047" y="1534" on="0"/>
        <pt x="1047" y="1459" on="0"/>
      </contour>
      <contour>
        <pt x="1410" y="713" on="1"/>
        <pt x="1410" y="666" on="1"/>
        <pt x="1410" y="526" on="0"/>
        <pt x="1307" y="251" on="0"/>
        <pt x="1125" y="62" on="0"/>
        <pt x="883" y="-34" on="0"/>
        <pt x="753" y="-34" on="1"/>
        <pt x="729" y="-34" on="1"/>
        <pt x="604" y="-34" on="0"/>
        <pt x="369" y="56" on="0"/>
        <pt x="197" y="240" on="0"/>
        <pt x="98" y="511" on="0"/>
        <pt x="98" y="650" on="1"/>
        <pt x="98" y="697" on="1"/>
        <pt x="98" y="830" on="0"/>
        <pt x="192" y="1106" on="0"/>
        <pt x="371" y="1298" on="0"/>
        <pt x="611" y="1396" on="0"/>
        <pt x="742" y="1396" on="1"/>
        <pt x="766" y="1396" on="1"/>
        <pt x="1039" y="1396" on="0"/>
        <pt x="1221" y="1214" on="1"/>
        <pt x="1309" y="1126" on="0"/>
        <pt x="1410" y="850" on="0"/>
      </contour>
    </TTGlyph>
    <TTGlyph name="Odieresis" xMin="98" yMin="-33" xMax="1409" yMax="1757">
      <contour>
        <pt x="1132" y="665" on="1"/>
        <pt x="1132" y="718" on="1"/>
        <pt x="1132" y="838" on="0"/>
        <pt x="1102" y="954" on="1"/>
        <pt x="1045" y="1175" on="0"/>
        <pt x="908" y="1254" on="1"/>
        <pt x="825" y="1303" on="0"/>
        <pt x="744" y="1303" on="1"/>
        <pt x="727" y="1303" on="1"/>
        <pt x="554" y="1303" on="0"/>
        <pt x="450" y="1159" on="1"/>
        <pt x="400" y="1090" on="0"/>
        <pt x="343" y="868" on="0"/>
        <pt x="343" y="743" on="1"/>
        <pt x="343" y="726" on="1"/>
        <pt x="343" y="446" on="0"/>
        <pt x="459" y="276" on="1"/>
        <pt x="504" y="210" on="0"/>
        <pt x="647" y="122" on="0"/>
        <pt x="732" y="122" on="1"/>
        <pt x="748" y="122" on="1"/>
        <pt x="1011" y="122" on="0"/>
        <pt x="1101" y="436" on="1"/>
        <pt x="1132" y="543" on="0"/>
      </contour>
      <contour>
        <pt x="572" y="1520" on="1"/>
        <pt x="552" y="1520" on="1"/>
        <pt x="512" y="1520" on="0"/>
        <pt x="443" y="1578" on="0"/>
        <pt x="443" y="1625" on="1"/>
        <pt x="443" y="1649" on="1"/>
        <pt x="443" y="1685" on="0"/>
        <pt x="501" y="1754" on="0"/>
        <pt x="535" y="1754" on="1"/>
        <pt x="555" y="1757" on="1"/>
        <pt x="579" y="1757" on="1"/>
        <pt x="591" y="1754" on="0"/>
        <pt x="624" y="1754" on="0"/>
        <pt x="681" y="1697" on="0"/>
        <pt x="681" y="1664" on="1"/>
        <pt x="683" y="1656" on="0"/>
        <pt x="683" y="1652" on="1"/>
        <pt x="683" y="1632" on="1"/>
        <pt x="683" y="1585" on="0"/>
        <pt x="618" y="1520" on="0"/>
      </contour>
      <contour>
        <pt x="1057" y="1575" on="1"/>
        <pt x="1057" y="1540" on="0"/>
        <pt x="990" y="1473" on="0"/>
        <pt x="954" y="1473" on="1"/>
        <pt x="927" y="1473" on="1"/>
        <pt x="880" y="1473" on="0"/>
        <pt x="809" y="1544" on="0"/>
        <pt x="809" y="1581" on="1"/>
        <pt x="807" y="1589" on="0"/>
        <pt x="807" y="1594" on="1"/>
        <pt x="806" y="1612" on="1"/>
        <pt x="807" y="1617" on="1"/>
        <pt x="807" y="1626" on="1"/>
        <pt x="809" y="1634" on="0"/>
        <pt x="809" y="1639" on="1"/>
        <pt x="809" y="1685" on="0"/>
        <pt x="894" y="1746" on="0"/>
        <pt x="935" y="1746" on="1"/>
        <pt x="953" y="1746" on="1"/>
        <pt x="998" y="1746" on="0"/>
        <pt x="1060" y="1672" on="0"/>
        <pt x="1060" y="1624" on="1"/>
        <pt x="1060" y="1597" on="1"/>
        <pt x="1057" y="1585" on="0"/>
      </contour>
      <contour>
        <pt x="1409" y="721" on="1"/>
        <pt x="1409" y="650" on="1"/>
        <pt x="1409" y="520" on="0"/>
        <pt x="1356" y="384" on="1"/>
        <pt x="1252" y="118" on="0"/>
        <pt x="1016" y="21" on="1"/>
        <pt x="884" y="-33" on="0"/>
        <pt x="758" y="-33" on="1"/>
        <pt x="734" y="-33" on="1"/>
        <pt x="449" y="-33" on="0"/>
        <pt x="271" y="162" on="1"/>
        <pt x="196" y="245" on="0"/>
        <pt x="98" y="512" on="0"/>
        <pt x="98" y="647" on="1"/>
        <pt x="98" y="694" on="1"/>
        <pt x="98" y="821" on="0"/>
        <pt x="140" y="953" on="1"/>
        <pt x="228" y="1231" on="0"/>
        <pt x="485" y="1344" on="1"/>
        <pt x="604" y="1396" on="0"/>
        <pt x="740" y="1396" on="1"/>
        <pt x="787" y="1396" on="1"/>
        <pt x="914" y="1396" on="0"/>
        <pt x="1032" y="1346" on="1"/>
        <pt x="1264" y="1247" on="0"/>
        <pt x="1360" y="983" on="1"/>
        <pt x="1409" y="849" on="0"/>
      </contour>
    </TTGlyph>
    <TTGlyph name="Ograve" xMin="98" yMin="-36" xMax="1410" yMax="1810">
      <contour>
        <pt x="345" y="763" on="1"/>
        <pt x="345" y="728" on="1"/>
        <pt x="345" y="465" on="0"/>
        <pt x="569" y="122" on="0"/>
        <pt x="755" y="122" on="1"/>
        <pt x="1027" y="122" on="0"/>
        <pt x="1117" y="425" on="1"/>
        <pt x="1147" y="526" on="0"/>
        <pt x="1147" y="643" on="1"/>
        <pt x="1147" y="713" on="1"/>
        <pt x="1146" y="834" on="0"/>
        <pt x="1114" y="946" on="1"/>
        <pt x="1049" y="1169" on="0"/>
        <pt x="912" y="1249" on="1"/>
        <pt x="827" y="1298" on="0"/>
        <pt x="745" y="1298" on="1"/>
        <pt x="711" y="1298" on="1"/>
        <pt x="640" y="1298" on="0"/>
        <pt x="568" y="1264" on="1"/>
        <pt x="429" y="1198" on="0"/>
        <pt x="375" y="993" on="1"/>
        <pt x="345" y="880" on="0"/>
      </contour>
      <contour>
        <pt x="438" y="1727" on="1"/>
        <pt x="438" y="1744" on="1"/>
        <pt x="438" y="1764" on="0"/>
        <pt x="504" y="1810" on="0"/>
        <pt x="540" y="1810" on="1"/>
        <pt x="564" y="1810" on="1"/>
        <pt x="627" y="1810" on="0"/>
        <pt x="684" y="1746" on="1"/>
        <pt x="865" y="1542" on="0"/>
        <pt x="865" y="1490" on="1"/>
        <pt x="865" y="1479" on="1"/>
        <pt x="865" y="1448" on="0"/>
        <pt x="827" y="1448" on="1"/>
        <pt x="816" y="1448" on="1"/>
        <pt x="811" y="1449" on="1"/>
        <pt x="755" y="1449" on="0"/>
        <pt x="438" y="1671" on="0"/>
      </contour>
      <contour>
        <pt x="1410" y="694" on="1"/>
        <pt x="1410" y="671" on="1"/>
        <pt x="1410" y="528" on="0"/>
        <pt x="1362" y="396" on="1"/>
        <pt x="1265" y="131" on="0"/>
        <pt x="1036" y="26" on="1"/>
        <pt x="902" y="-36" on="0"/>
        <pt x="758" y="-36" on="1"/>
        <pt x="735" y="-36" on="1"/>
        <pt x="604" y="-36" on="0"/>
        <pt x="486" y="10" on="1"/>
        <pt x="248" y="101" on="0"/>
        <pt x="153" y="361" on="1"/>
        <pt x="98" y="511" on="0"/>
        <pt x="98" y="668" on="1"/>
        <pt x="98" y="691" on="1"/>
        <pt x="98" y="836" on="0"/>
        <pt x="148" y="972" on="1"/>
        <pt x="250" y="1250" on="0"/>
        <pt x="505" y="1349" on="1"/>
        <pt x="619" y="1393" on="0"/>
        <pt x="740" y="1393" on="1"/>
        <pt x="787" y="1393" on="1"/>
        <pt x="914" y="1393" on="0"/>
        <pt x="1032" y="1343" on="1"/>
        <pt x="1279" y="1238" on="0"/>
        <pt x="1368" y="960" on="1"/>
        <pt x="1410" y="828" on="0"/>
      </contour>
    </TTGlyph>
    <TTGlyph name="Oslash" xMin="123" yMin="-65" xMax="1386" yMax="1422">
      <contour>
        <pt x="350" y="704" on="1"/>
        <pt x="350" y="675" on="1"/>
        <pt x="350" y="539" on="0"/>
        <pt x="376" y="446" on="1"/>
        <pt x="421" y="284" on="0"/>
        <pt x="459" y="284" on="1"/>
        <pt x="468" y="284" on="1"/>
        <pt x="479" y="284" on="0"/>
        <pt x="500" y="308" on="1"/>
        <pt x="596" y="417" on="0"/>
        <pt x="703" y="606" on="1"/>
        <pt x="983" y="1101" on="0"/>
        <pt x="983" y="1139" on="1"/>
        <pt x="983" y="1161" on="1"/>
        <pt x="983" y="1211" on="0"/>
        <pt x="854" y="1291" on="0"/>
        <pt x="760" y="1291" on="1"/>
        <pt x="733" y="1291" on="1"/>
        <pt x="565" y="1291" on="0"/>
        <pt x="458" y="1129" on="1"/>
        <pt x="410" y="1058" on="0"/>
        <pt x="350" y="833" on="0"/>
      </contour>
      <contour>
        <pt x="552" y="178" on="1"/>
        <pt x="552" y="158" on="1"/>
        <pt x="552" y="134" on="0"/>
        <pt x="623" y="78" on="0"/>
        <pt x="679" y="78" on="1"/>
        <pt x="690" y="78" on="1"/>
        <pt x="861" y="78" on="0"/>
        <pt x="980" y="279" on="1"/>
        <pt x="1032" y="367" on="0"/>
        <pt x="1115" y="687" on="0"/>
        <pt x="1115" y="855" on="1"/>
        <pt x="1115" y="928" on="1"/>
        <pt x="1115" y="1095" on="0"/>
        <pt x="1080" y="1095" on="1"/>
        <pt x="1068" y="1095" on="0"/>
        <pt x="813" y="584" on="0"/>
        <pt x="552" y="200" on="0"/>
      </contour>
      <contour>
        <pt x="832" y="1386" on="1"/>
        <pt x="1044" y="1368" on="1"/>
        <pt x="1073" y="1368" on="0"/>
        <pt x="1181" y="1422" on="0"/>
        <pt x="1194" y="1422" on="1"/>
        <pt x="1210" y="1422" on="1"/>
        <pt x="1265" y="1422" on="0"/>
        <pt x="1265" y="1362" on="1"/>
        <pt x="1257" y="1294" on="0"/>
        <pt x="1257" y="1220" on="0"/>
        <pt x="1386" y="914" on="0"/>
        <pt x="1386" y="751" on="1"/>
        <pt x="1386" y="697" on="1"/>
        <pt x="1386" y="552" on="0"/>
        <pt x="1328" y="408" on="1"/>
        <pt x="1213" y="123" on="0"/>
        <pt x="943" y="24" on="1"/>
        <pt x="827" y="-19" on="0"/>
        <pt x="694" y="-19" on="1"/>
        <pt x="485" y="-5" on="1"/>
        <pt x="439" y="-5" on="0"/>
        <pt x="326" y="-65" on="0"/>
        <pt x="312" y="-65" on="1"/>
        <pt x="247" y="-65" on="0"/>
        <pt x="247" y="-1" on="1"/>
        <pt x="258" y="65" on="0"/>
        <pt x="258" y="127" on="0"/>
        <pt x="123" y="464" on="0"/>
        <pt x="123" y="609" on="1"/>
        <pt x="123" y="663" on="1"/>
        <pt x="123" y="808" on="0"/>
        <pt x="179" y="954" on="1"/>
        <pt x="286" y="1235" on="0"/>
        <pt x="558" y="1342" on="1"/>
        <pt x="670" y="1386" on="0"/>
      </contour>
    </TTGlyph>
    <TTGlyph name="Otilde" xMin="98" yMin="-33" xMax="1410" yMax="1745">
      <contour>
        <pt x="336" y="759" on="1"/>
        <pt x="336" y="708" on="1"/>
        <pt x="336" y="587" on="0"/>
        <pt x="370" y="476" on="1"/>
        <pt x="437" y="254" on="0"/>
        <pt x="572" y="178" on="1"/>
        <pt x="658" y="130" on="0"/>
        <pt x="740" y="130" on="1"/>
        <pt x="757" y="130" on="1"/>
        <pt x="939" y="130" on="0"/>
        <pt x="1157" y="432" on="0"/>
        <pt x="1157" y="685" on="1"/>
        <pt x="1157" y="702" on="1"/>
        <pt x="1157" y="837" on="0"/>
        <pt x="1125" y="947" on="1"/>
        <pt x="1060" y="1171" on="0"/>
        <pt x="921" y="1248" on="1"/>
        <pt x="835" y="1296" on="0"/>
        <pt x="753" y="1296" on="1"/>
        <pt x="718" y="1296" on="1"/>
        <pt x="552" y="1296" on="0"/>
        <pt x="441" y="1142" on="1"/>
        <pt x="399" y="1083" on="0"/>
        <pt x="336" y="867" on="0"/>
      </contour>
      <contour>
        <pt x="877" y="1656" on="0"/>
        <pt x="939" y="1656" on="0"/>
        <pt x="1045" y="1721" on="0"/>
        <pt x="1047" y="1721" on="1"/>
        <pt x="1087" y="1721" on="0"/>
        <pt x="1087" y="1681" on="1"/>
        <pt x="1087" y="1605" on="0"/>
        <pt x="1001" y="1526" on="1"/>
        <pt x="946" y="1475" on="0"/>
        <pt x="879" y="1475" on="1"/>
        <pt x="871" y="1475" on="1"/>
        <pt x="821" y="1475" on="0"/>
        <pt x="618" y="1565" on="0"/>
        <pt x="545" y="1565" on="0"/>
        <pt x="442" y="1499" on="0"/>
        <pt x="428" y="1499" on="1"/>
        <pt x="395" y="1499" on="0"/>
        <pt x="395" y="1538" on="1"/>
        <pt x="395" y="1547" on="1"/>
        <pt x="395" y="1610" on="0"/>
        <pt x="541" y="1745" on="0"/>
        <pt x="621" y="1745" on="1"/>
        <pt x="630" y="1744" on="1"/>
        <pt x="679" y="1744" on="0"/>
      </contour>
      <contour>
        <pt x="1410" y="697" on="1"/>
        <pt x="1410" y="674" on="1"/>
        <pt x="1410" y="531" on="0"/>
        <pt x="1309" y="254" on="0"/>
        <pt x="1211" y="153" on="1"/>
        <pt x="1031" y="-33" on="0"/>
        <pt x="447" y="-33" on="0"/>
        <pt x="272" y="162" on="1"/>
        <pt x="196" y="246" on="0"/>
        <pt x="98" y="514" on="0"/>
        <pt x="98" y="671" on="1"/>
        <pt x="98" y="694" on="1"/>
        <pt x="98" y="839" on="0"/>
        <pt x="147" y="973" on="1"/>
        <pt x="244" y="1237" on="0"/>
        <pt x="486" y="1344" on="1"/>
        <pt x="605" y="1396" on="0"/>
        <pt x="717" y="1396" on="1"/>
        <pt x="787" y="1396" on="1"/>
        <pt x="909" y="1396" on="0"/>
        <pt x="1027" y="1349" on="1"/>
        <pt x="1262" y="1255" on="0"/>
        <pt x="1361" y="984" on="1"/>
        <pt x="1410" y="850" on="0"/>
      </contour>
    </TTGlyph>
    <TTGlyph name="P" xMin="117" yMin="7" xMax="1191" yMax="1403">
      <contour>
        <pt x="487" y="1144" on="1"/>
        <pt x="487" y="765" on="1"/>
        <pt x="487" y="695" on="0"/>
        <pt x="525" y="654" on="0"/>
        <pt x="599" y="654" on="1"/>
        <pt x="646" y="654" on="1"/>
        <pt x="778" y="654" on="0"/>
        <pt x="941" y="817" on="0"/>
        <pt x="941" y="959" on="1"/>
        <pt x="941" y="992" on="1"/>
        <pt x="941" y="1137" on="0"/>
        <pt x="767" y="1297" on="0"/>
        <pt x="616" y="1297" on="1"/>
        <pt x="607" y="1297" on="1"/>
        <pt x="521" y="1297" on="0"/>
        <pt x="487" y="1251" on="0"/>
      </contour>
      <contour>
        <pt x="587" y="1403" on="1"/>
        <pt x="694" y="1403" on="1"/>
        <pt x="1048" y="1403" on="0"/>
        <pt x="1152" y="1190" on="1"/>
        <pt x="1191" y="1110" on="0"/>
        <pt x="1191" y="1013" on="1"/>
        <pt x="1191" y="985" on="1"/>
        <pt x="1191" y="985" on="0"/>
        <pt x="1191" y="983" on="1"/>
        <pt x="1191" y="793" on="0"/>
        <pt x="1024" y="676" on="1"/>
        <pt x="905" y="593" on="0"/>
        <pt x="656" y="574" on="1"/>
        <pt x="550" y="566" on="0"/>
        <pt x="528" y="541" on="1"/>
        <pt x="493" y="502" on="0"/>
        <pt x="493" y="205" on="0"/>
        <pt x="524" y="161" on="1"/>
        <pt x="539" y="140" on="0"/>
        <pt x="644" y="77" on="0"/>
        <pt x="644" y="60" on="1"/>
        <pt x="644" y="7" on="0"/>
        <pt x="515" y="7" on="1"/>
        <pt x="262" y="7" on="1"/>
        <pt x="117" y="7" on="0"/>
        <pt x="117" y="55" on="1"/>
        <pt x="117" y="85" on="0"/>
        <pt x="223" y="149" on="0"/>
        <pt x="253" y="220" on="0"/>
        <pt x="253" y="368" on="1"/>
        <pt x="254" y="393" on="1"/>
        <pt x="255" y="419" on="0"/>
        <pt x="255" y="471" on="0"/>
        <pt x="255" y="497" on="1"/>
        <pt x="256" y="549" on="1"/>
        <pt x="256" y="679" on="1"/>
        <pt x="255" y="731" on="1"/>
        <pt x="255" y="1112" on="0"/>
        <pt x="224" y="1263" on="0"/>
        <pt x="123" y="1321" on="0"/>
        <pt x="123" y="1372" on="0"/>
        <pt x="179" y="1396" on="0"/>
        <pt x="321" y="1396" on="1"/>
        <pt x="427" y="1398" on="1"/>
        <pt x="506" y="1401" on="1"/>
        <pt x="559" y="1403" on="0"/>
      </contour>
    </TTGlyph>
    <TTGlyph name="Q" xMin="74" yMin="-305" xMax="1540" yMax="1422">
      <contour>
        <pt x="323" y="749" on="1"/>
        <pt x="323" y="676" on="1"/>
        <pt x="323" y="429" on="0"/>
        <pt x="459" y="248" on="1"/>
        <pt x="512" y="179" on="0"/>
        <pt x="668" y="95" on="0"/>
        <pt x="758" y="95" on="1"/>
        <pt x="946" y="95" on="0"/>
        <pt x="1069" y="265" on="1"/>
        <pt x="1180" y="417" on="0"/>
        <pt x="1180" y="659" on="1"/>
        <pt x="1180" y="714" on="1"/>
        <pt x="1180" y="840" on="0"/>
        <pt x="1146" y="954" on="1"/>
        <pt x="1074" y="1194" on="0"/>
        <pt x="907" y="1274" on="1"/>
        <pt x="830" y="1311" on="0"/>
        <pt x="646" y="1311" on="0"/>
        <pt x="568" y="1269" on="1"/>
        <pt x="417" y="1188" on="0"/>
        <pt x="356" y="974" on="1"/>
        <pt x="323" y="857" on="0"/>
      </contour>
      <contour>
        <pt x="1134" y="-13" on="1"/>
        <pt x="1134" y="-48" on="0"/>
        <pt x="1305" y="-135" on="0"/>
        <pt x="1540" y="-188" on="0"/>
        <pt x="1540" y="-256" on="0"/>
        <pt x="1439" y="-305" on="0"/>
        <pt x="1364" y="-305" on="1"/>
        <pt x="1336" y="-305" on="1"/>
        <pt x="1229" y="-305" on="0"/>
        <pt x="1040" y="-223" on="1"/>
        <pt x="477" y="21" on="0"/>
        <pt x="218" y="224" on="0"/>
        <pt x="74" y="542" on="0"/>
        <pt x="74" y="706" on="1"/>
        <pt x="74" y="1029" on="0"/>
        <pt x="255" y="1224" on="1"/>
        <pt x="344" y="1319" on="0"/>
        <pt x="591" y="1422" on="0"/>
        <pt x="727" y="1422" on="1"/>
        <pt x="757" y="1422" on="1"/>
        <pt x="885" y="1422" on="0"/>
        <pt x="1137" y="1313" on="0"/>
        <pt x="1227" y="1216" on="1"/>
        <pt x="1398" y="1032" on="0"/>
        <pt x="1398" y="733" on="1"/>
        <pt x="1398" y="510" on="0"/>
        <pt x="1343" y="338" on="1"/>
        <pt x="1294" y="187" on="0"/>
        <pt x="1176" y="56" on="1"/>
        <pt x="1134" y="9" on="0"/>
      </contour>
    </TTGlyph>
    <TTGlyph name="R" xMin="107" yMin="-3" xMax="1338" yMax="1392">
      <contour>
        <pt x="473" y="1144" on="1"/>
        <pt x="473" y="809" on="1"/>
        <pt x="473" y="736" on="0"/>
        <pt x="506" y="707" on="0"/>
        <pt x="560" y="707" on="1"/>
        <pt x="603" y="707" on="1"/>
        <pt x="752" y="707" on="0"/>
        <pt x="914" y="856" on="0"/>
        <pt x="914" y="977" on="1"/>
        <pt x="914" y="1018" on="1"/>
        <pt x="914" y="1142" on="0"/>
        <pt x="755" y="1287" on="0"/>
        <pt x="627" y="1287" on="1"/>
        <pt x="565" y="1287" on="1"/>
        <pt x="502" y="1287" on="0"/>
        <pt x="473" y="1246" on="0"/>
      </contour>
      <contour>
        <pt x="653" y="1392" on="1"/>
        <pt x="1016" y="1392" on="0"/>
        <pt x="1120" y="1170" on="1"/>
        <pt x="1148" y="1110" on="0"/>
        <pt x="1148" y="1020" on="1"/>
        <pt x="1148" y="852" on="0"/>
        <pt x="997" y="727" on="1"/>
        <pt x="913" y="657" on="0"/>
        <pt x="913" y="610" on="1"/>
        <pt x="913" y="596" on="0"/>
        <pt x="1111" y="261" on="0"/>
        <pt x="1202" y="147" on="0"/>
        <pt x="1338" y="92" on="0"/>
        <pt x="1338" y="68" on="1"/>
        <pt x="1338" y="-3" on="0"/>
        <pt x="1183" y="-3" on="1"/>
        <pt x="1070" y="-3" on="0"/>
        <pt x="1014" y="52" on="1"/>
        <pt x="975" y="90" on="0"/>
        <pt x="741" y="508" on="0"/>
        <pt x="726" y="527" on="1"/>
        <pt x="673" y="594" on="0"/>
        <pt x="565" y="594" on="1"/>
        <pt x="519" y="594" on="0"/>
        <pt x="485" y="511" on="0"/>
        <pt x="485" y="223" on="0"/>
        <pt x="524" y="129" on="0"/>
        <pt x="604" y="44" on="0"/>
        <pt x="604" y="37" on="1"/>
        <pt x="604" y="3" on="0"/>
        <pt x="477" y="3" on="1"/>
        <pt x="443" y="4" on="1"/>
        <pt x="410" y="6" on="1"/>
        <pt x="388" y="7" on="0"/>
        <pt x="342" y="7" on="1"/>
        <pt x="107" y="7" on="0"/>
        <pt x="107" y="87" on="0"/>
        <pt x="140" y="107" on="1"/>
        <pt x="224" y="159" on="0"/>
        <pt x="230" y="170" on="1"/>
        <pt x="253" y="212" on="0"/>
        <pt x="253" y="401" on="1"/>
        <pt x="255" y="471" on="1"/>
        <pt x="256" y="541" on="1"/>
        <pt x="256" y="576" on="0"/>
        <pt x="256" y="611" on="1"/>
        <pt x="254" y="715" on="1"/>
        <pt x="254" y="1122" on="0"/>
        <pt x="215" y="1260" on="0"/>
        <pt x="114" y="1321" on="0"/>
        <pt x="114" y="1344" on="1"/>
        <pt x="114" y="1384" on="0"/>
        <pt x="274" y="1384" on="1"/>
        <pt x="308" y="1385" on="1"/>
        <pt x="343" y="1386" on="0"/>
        <pt x="377" y="1386" on="1"/>
        <pt x="583" y="1392" on="1"/>
      </contour>
    </TTGlyph>
    <TTGlyph name="S" xMin="119" yMin="-11" xMax="1053" yMax="1407">
      <contour>
        <pt x="671" y="1296" on="0"/>
        <pt x="466" y="1296" on="0"/>
        <pt x="336" y="1189" on="0"/>
        <pt x="336" y="996" on="0"/>
        <pt x="433" y="922" on="1"/>
        <pt x="491" y="877" on="0"/>
        <pt x="849" y="723" on="0"/>
        <pt x="919" y="658" on="1"/>
        <pt x="1053" y="534" on="0"/>
        <pt x="1053" y="400" on="1"/>
        <pt x="1053" y="364" on="1"/>
        <pt x="1053" y="198" on="0"/>
        <pt x="921" y="94" on="1"/>
        <pt x="860" y="46" on="0"/>
        <pt x="678" y="-11" on="0"/>
        <pt x="587" y="-11" on="1"/>
        <pt x="550" y="-11" on="1"/>
        <pt x="344" y="-11" on="0"/>
        <pt x="189" y="51" on="1"/>
        <pt x="119" y="79" on="0"/>
        <pt x="119" y="204" on="1"/>
        <pt x="119" y="239" on="1"/>
        <pt x="119" y="387" on="0"/>
        <pt x="170" y="387" on="1"/>
        <pt x="205" y="387" on="0"/>
        <pt x="325" y="197" on="0"/>
        <pt x="482" y="101" on="0"/>
        <pt x="704" y="101" on="0"/>
        <pt x="840" y="218" on="0"/>
        <pt x="840" y="304" on="1"/>
        <pt x="840" y="422" on="0"/>
        <pt x="730" y="503" on="1"/>
        <pt x="683" y="537" on="0"/>
        <pt x="305" y="712" on="0"/>
        <pt x="232" y="788" on="1"/>
        <pt x="132" y="892" on="0"/>
        <pt x="132" y="1192" on="0"/>
        <pt x="239" y="1291" on="1"/>
        <pt x="298" y="1346" on="0"/>
        <pt x="474" y="1407" on="0"/>
        <pt x="566" y="1407" on="1"/>
        <pt x="603" y="1407" on="1"/>
        <pt x="641" y="1407" on="0"/>
        <pt x="711" y="1394" on="1"/>
        <pt x="746" y="1387" on="1"/>
        <pt x="808" y="1375" on="0"/>
        <pt x="813" y="1374" on="1"/>
        <pt x="844" y="1372" on="1"/>
        <pt x="874" y="1371" on="1"/>
        <pt x="916" y="1368" on="0"/>
        <pt x="933" y="1361" on="1"/>
        <pt x="992" y="1337" on="0"/>
        <pt x="992" y="1051" on="0"/>
        <pt x="936" y="1051" on="1"/>
        <pt x="908" y="1051" on="0"/>
        <pt x="796" y="1211" on="0"/>
        <pt x="753" y="1240" on="1"/>
      </contour>
    </TTGlyph>
    <TTGlyph name="Scaron" xMin="108" yMin="-28" xMax="1016" yMax="1800">
      <contour>
        <pt x="569" y="1477" on="1"/>
        <pt x="554" y="1477" on="1"/>
        <pt x="509" y="1477" on="0"/>
        <pt x="275" y="1754" on="0"/>
        <pt x="275" y="1769" on="1"/>
        <pt x="275" y="1776" on="1"/>
        <pt x="275" y="1799" on="0"/>
        <pt x="365" y="1799" on="0"/>
        <pt x="463" y="1716" on="1"/>
        <pt x="560" y="1633" on="0"/>
        <pt x="568" y="1633" on="1"/>
        <pt x="576" y="1632" on="0"/>
        <pt x="618" y="1670" on="1"/>
        <pt x="761" y="1800" on="0"/>
        <pt x="811" y="1800" on="1"/>
        <pt x="818" y="1800" on="1"/>
        <pt x="852" y="1800" on="0"/>
        <pt x="852" y="1774" on="1"/>
        <pt x="852" y="1768" on="1"/>
        <pt x="852" y="1757" on="0"/>
        <pt x="615" y="1477" on="0"/>
      </contour>
      <contour>
        <pt x="876" y="1328" on="1"/>
        <pt x="957" y="1328" on="0"/>
        <pt x="957" y="1014" on="0"/>
        <pt x="901" y="1014" on="1"/>
        <pt x="878" y="1014" on="0"/>
        <pt x="771" y="1167" on="0"/>
        <pt x="636" y="1260" on="0"/>
        <pt x="440" y="1260" on="0"/>
        <pt x="316" y="1156" on="0"/>
        <pt x="316" y="971" on="0"/>
        <pt x="416" y="895" on="1"/>
        <pt x="471" y="853" on="0"/>
        <pt x="641" y="779" on="1"/>
        <pt x="1016" y="616" on="0"/>
        <pt x="1016" y="377" on="1"/>
        <pt x="1016" y="342" on="1"/>
        <pt x="1016" y="181" on="0"/>
        <pt x="887" y="76" on="1"/>
        <pt x="758" y="-28" on="0"/>
        <pt x="556" y="-28" on="1"/>
        <pt x="520" y="-28" on="1"/>
        <pt x="464" y="-28" on="0"/>
        <pt x="268" y="19" on="0"/>
        <pt x="167" y="32" on="0"/>
        <pt x="149" y="44" on="1"/>
        <pt x="108" y="72" on="0"/>
        <pt x="108" y="181" on="1"/>
        <pt x="108" y="215" on="1"/>
        <pt x="108" y="367" on="0"/>
        <pt x="155" y="367" on="1"/>
        <pt x="186" y="367" on="0"/>
        <pt x="240" y="277" on="1"/>
        <pt x="356" y="85" on="0"/>
        <pt x="557" y="85" on="1"/>
        <pt x="677" y="85" on="0"/>
        <pt x="809" y="203" on="0"/>
        <pt x="809" y="396" on="0"/>
        <pt x="724" y="469" on="1"/>
        <pt x="677" y="509" on="0"/>
        <pt x="291" y="693" on="0"/>
        <pt x="218" y="775" on="1"/>
        <pt x="124" y="879" on="0"/>
        <pt x="124" y="1169" on="0"/>
        <pt x="235" y="1265" on="1"/>
        <pt x="287" y="1309" on="0"/>
        <pt x="440" y="1367" on="0"/>
        <pt x="522" y="1367" on="1"/>
        <pt x="558" y="1367" on="1"/>
        <pt x="624" y="1367" on="0"/>
        <pt x="783" y="1328" on="0"/>
      </contour>
    </TTGlyph>
    <TTGlyph name="T" xMin="49" yMin="-1" xMax="1270" yMax="1392">
      <contour>
        <pt x="1270" y="1178" on="1"/>
        <pt x="1270" y="1147" on="1"/>
        <pt x="1270" y="1065" on="0"/>
        <pt x="1221" y="1065" on="1"/>
        <pt x="1207" y="1065" on="0"/>
        <pt x="1106" y="1202" on="0"/>
        <pt x="1003" y="1260" on="0"/>
        <pt x="840" y="1260" on="0"/>
        <pt x="795" y="1224" on="0"/>
        <pt x="776" y="1114" on="0"/>
        <pt x="776" y="270" on="0"/>
        <pt x="805" y="144" on="0"/>
        <pt x="929" y="56" on="0"/>
        <pt x="929" y="-1" on="0"/>
        <pt x="835" y="-1" on="1"/>
        <pt x="801" y="0" on="1"/>
        <pt x="735" y="1" on="1"/>
        <pt x="701" y="2" on="0"/>
        <pt x="669" y="2" on="1"/>
        <pt x="572" y="3" on="1"/>
        <pt x="445" y="3" on="0"/>
        <pt x="376" y="16" on="0"/>
        <pt x="376" y="50" on="1"/>
        <pt x="376" y="67" on="0"/>
        <pt x="505" y="149" on="0"/>
        <pt x="538" y="284" on="0"/>
        <pt x="538" y="1160" on="0"/>
        <pt x="526" y="1203" on="1"/>
        <pt x="510" y="1259" on="0"/>
        <pt x="319" y="1259" on="0"/>
        <pt x="215" y="1198" on="0"/>
        <pt x="119" y="1054" on="0"/>
        <pt x="79" y="1054" on="1"/>
        <pt x="49" y="1054" on="0"/>
        <pt x="49" y="1109" on="1"/>
        <pt x="49" y="1139" on="1"/>
        <pt x="49" y="1354" on="0"/>
        <pt x="86" y="1380" on="1"/>
        <pt x="100" y="1390" on="0"/>
        <pt x="677" y="1390" on="1"/>
        <pt x="1153" y="1392" on="1"/>
        <pt x="1228" y="1392" on="0"/>
        <pt x="1270" y="1314" on="0"/>
      </contour>
    </TTGlyph>
    <TTGlyph name="Thorn" xMin="136" yMin="14" xMax="1204" yMax="1383">
      <contour>
        <pt x="927" y="708" on="1"/>
        <pt x="927" y="753" on="1"/>
        <pt x="927" y="887" on="0"/>
        <pt x="778" y="1048" on="0"/>
        <pt x="663" y="1048" on="1"/>
        <pt x="637" y="1048" on="1"/>
        <pt x="628" y="1047" on="1"/>
        <pt x="611" y="1047" on="1"/>
        <pt x="587" y="1044" on="0"/>
        <pt x="579" y="1044" on="1"/>
        <pt x="524" y="1044" on="0"/>
        <pt x="513" y="1000" on="1"/>
        <pt x="510" y="988" on="0"/>
        <pt x="510" y="856" on="1"/>
        <pt x="510" y="713" on="1"/>
        <pt x="509" y="703" on="1"/>
        <pt x="509" y="693" on="0"/>
        <pt x="509" y="683" on="1"/>
        <pt x="508" y="673" on="1"/>
        <pt x="508" y="663" on="0"/>
        <pt x="508" y="653" on="1"/>
        <pt x="506" y="624" on="1"/>
        <pt x="506" y="614" on="0"/>
        <pt x="506" y="604" on="1"/>
        <pt x="505" y="594" on="1"/>
        <pt x="505" y="584" on="0"/>
        <pt x="505" y="574" on="1"/>
        <pt x="504" y="565" on="1"/>
        <pt x="504" y="546" on="1"/>
        <pt x="503" y="507" on="1"/>
        <pt x="503" y="498" on="1"/>
        <pt x="503" y="446" on="0"/>
        <pt x="557" y="405" on="0"/>
        <pt x="615" y="405" on="1"/>
        <pt x="640" y="405" on="1"/>
        <pt x="768" y="405" on="0"/>
        <pt x="927" y="577" on="0"/>
      </contour>
      <contour>
        <pt x="530" y="302" on="0"/>
        <pt x="530" y="170" on="0"/>
        <pt x="574" y="134" on="1"/>
        <pt x="659" y="64" on="0"/>
        <pt x="659" y="51" on="1"/>
        <pt x="659" y="14" on="0"/>
        <pt x="495" y="14" on="1"/>
        <pt x="468" y="15" on="1"/>
        <pt x="363" y="15" on="1"/>
        <pt x="140" y="15" on="0"/>
        <pt x="140" y="47" on="1"/>
        <pt x="140" y="84" on="0"/>
        <pt x="252" y="156" on="0"/>
        <pt x="264" y="214" on="1"/>
        <pt x="284" y="308" on="0"/>
        <pt x="284" y="1120" on="0"/>
        <pt x="264" y="1202" on="1"/>
        <pt x="252" y="1252" on="0"/>
        <pt x="136" y="1309" on="0"/>
        <pt x="136" y="1339" on="1"/>
        <pt x="136" y="1382" on="0"/>
        <pt x="404" y="1382" on="1"/>
        <pt x="457" y="1383" on="1"/>
        <pt x="509" y="1383" on="1"/>
        <pt x="596" y="1383" on="0"/>
        <pt x="639" y="1359" on="0"/>
        <pt x="639" y="1328" on="1"/>
        <pt x="639" y="1323" on="0"/>
        <pt x="579" y="1267" on="1"/>
        <pt x="546" y="1236" on="0"/>
        <pt x="546" y="1158" on="0"/>
        <pt x="593" y="1143" on="1"/>
        <pt x="622" y="1133" on="0"/>
        <pt x="718" y="1130" on="1"/>
        <pt x="1056" y="1119" on="0"/>
        <pt x="1157" y="932" on="1"/>
        <pt x="1204" y="846" on="0"/>
        <pt x="1204" y="746" on="1"/>
        <pt x="1204" y="541" on="0"/>
        <pt x="1045" y="427" on="1"/>
        <pt x="937" y="350" on="0"/>
        <pt x="741" y="333" on="1"/>
        <pt x="713" y="331" on="1"/>
        <pt x="655" y="329" on="1"/>
        <pt x="602" y="326" on="0"/>
        <pt x="581" y="319" on="1"/>
      </contour>
    </TTGlyph>
    <TTGlyph name="U" xMin="81" yMin="-12" xMax="1453" yMax="1391">
      <contour>
        <pt x="226" y="446" on="0"/>
        <pt x="226" y="1117" on="0"/>
        <pt x="204" y="1237" on="0"/>
        <pt x="164" y="1261" on="1"/>
        <pt x="81" y="1311" on="0"/>
        <pt x="81" y="1367" on="0"/>
        <pt x="152" y="1391" on="0"/>
        <pt x="297" y="1391" on="1"/>
        <pt x="449" y="1391" on="1"/>
        <pt x="560" y="1391" on="0"/>
        <pt x="560" y="1346" on="1"/>
        <pt x="560" y="1344" on="0"/>
        <pt x="485" y="1251" on="0"/>
        <pt x="459" y="1076" on="0"/>
        <pt x="459" y="520" on="0"/>
        <pt x="473" y="418" on="1"/>
        <pt x="515" y="114" on="0"/>
        <pt x="811" y="113" on="1"/>
        <pt x="1005" y="113" on="0"/>
        <pt x="1092" y="249" on="1"/>
        <pt x="1165" y="361" on="0"/>
        <pt x="1165" y="638" on="1"/>
        <pt x="1167" y="720" on="1"/>
        <pt x="1167" y="781" on="0"/>
        <pt x="1167" y="1087" on="0"/>
        <pt x="1130" y="1236" on="0"/>
        <pt x="1057" y="1348" on="0"/>
        <pt x="1057" y="1351" on="1"/>
        <pt x="1057" y="1389" on="0"/>
        <pt x="1351" y="1389" on="0"/>
        <pt x="1453" y="1369" on="0"/>
        <pt x="1453" y="1323" on="1"/>
        <pt x="1453" y="1300" on="0"/>
        <pt x="1333" y="1230" on="0"/>
        <pt x="1305" y="1147" on="0"/>
        <pt x="1305" y="870" on="1"/>
        <pt x="1307" y="629" on="1"/>
        <pt x="1306" y="433" on="0"/>
        <pt x="1284" y="332" on="1"/>
        <pt x="1262" y="230" on="0"/>
        <pt x="1193" y="148" on="1"/>
        <pt x="1059" y="-12" on="0"/>
        <pt x="457" y="-12" on="0"/>
        <pt x="318" y="171" on="1"/>
        <pt x="252" y="257" on="0"/>
        <pt x="235" y="381" on="1"/>
      </contour>
    </TTGlyph>
    <TTGlyph name="Uacute" xMin="61" yMin="-14" xMax="1433" yMax="1820">
      <contour>
        <pt x="659" y="1520" on="1"/>
        <pt x="659" y="1529" on="1"/>
        <pt x="659" y="1551" on="0"/>
        <pt x="928" y="1820" on="0"/>
        <pt x="976" y="1820" on="1"/>
        <pt x="992" y="1820" on="1"/>
        <pt x="998" y="1819" on="1"/>
        <pt x="1081" y="1819" on="0"/>
        <pt x="1081" y="1758" on="1"/>
        <pt x="1081" y="1747" on="1"/>
        <pt x="1081" y="1691" on="0"/>
        <pt x="964" y="1617" on="1"/>
        <pt x="763" y="1489" on="0"/>
        <pt x="706" y="1489" on="1"/>
        <pt x="695" y="1489" on="1"/>
        <pt x="659" y="1489" on="0"/>
      </contour>
      <contour>
        <pt x="1147" y="796" on="1"/>
        <pt x="1147" y="1050" on="0"/>
        <pt x="1106" y="1221" on="0"/>
        <pt x="1086" y="1252" on="1"/>
        <pt x="1053" y="1294" on="1"/>
        <pt x="1031" y="1323" on="0"/>
        <pt x="1031" y="1330" on="1"/>
        <pt x="1031" y="1374" on="0"/>
        <pt x="1179" y="1374" on="1"/>
        <pt x="1217" y="1374" on="1"/>
        <pt x="1433" y="1374" on="0"/>
        <pt x="1433" y="1324" on="1"/>
        <pt x="1433" y="1284" on="0"/>
        <pt x="1312" y="1208" on="0"/>
        <pt x="1290" y="1112" on="0"/>
        <pt x="1290" y="495" on="0"/>
        <pt x="1262" y="277" on="0"/>
        <pt x="1143" y="94" on="0"/>
        <pt x="926" y="-14" on="0"/>
        <pt x="775" y="-14" on="1"/>
        <pt x="467" y="-14" on="0"/>
        <pt x="333" y="126" on="1"/>
        <pt x="253" y="209" on="0"/>
        <pt x="204" y="414" on="0"/>
        <pt x="204" y="605" on="1"/>
        <pt x="203" y="645" on="1"/>
        <pt x="202" y="685" on="0"/>
        <pt x="202" y="735" on="1"/>
        <pt x="202" y="845" on="1"/>
        <pt x="202" y="1140" on="0"/>
        <pt x="171" y="1230" on="0"/>
        <pt x="61" y="1293" on="0"/>
        <pt x="61" y="1313" on="1"/>
        <pt x="61" y="1359" on="0"/>
        <pt x="112" y="1367" on="1"/>
        <pt x="149" y="1373" on="0"/>
        <pt x="338" y="1373" on="1"/>
        <pt x="417" y="1374" on="1"/>
        <pt x="456" y="1374" on="1"/>
        <pt x="556" y="1374" on="0"/>
        <pt x="556" y="1338" on="1"/>
        <pt x="556" y="1325" on="0"/>
        <pt x="491" y="1254" on="0"/>
        <pt x="457" y="1142" on="0"/>
        <pt x="457" y="967" on="1"/>
        <pt x="456" y="928" on="1"/>
        <pt x="455" y="889" on="0"/>
        <pt x="455" y="850" on="1"/>
        <pt x="452" y="733" on="1"/>
        <pt x="452" y="614" on="1"/>
        <pt x="452" y="344" on="0"/>
        <pt x="616" y="118" on="0"/>
        <pt x="802" y="118" on="1"/>
        <pt x="892" y="118" on="0"/>
        <pt x="957" y="149" on="1"/>
        <pt x="1112" y="224" on="0"/>
        <pt x="1136" y="445" on="1"/>
        <pt x="1146" y="542" on="0"/>
      </contour>
    </TTGlyph>
    <TTGlyph name="Ucircumflex" xMin="55" yMin="-30" xMax="1437" yMax="1817">
      <contour>
        <pt x="524" y="1491" on="1"/>
        <pt x="510" y="1491" on="1"/>
        <pt x="470" y="1491" on="0"/>
        <pt x="470" y="1523" on="1"/>
        <pt x="470" y="1536" on="0"/>
        <pt x="727" y="1817" on="0"/>
        <pt x="771" y="1817" on="1"/>
        <pt x="788" y="1817" on="1"/>
        <pt x="840" y="1817" on="0"/>
        <pt x="1086" y="1526" on="0"/>
        <pt x="1086" y="1523" on="1"/>
        <pt x="1086" y="1516" on="1"/>
        <pt x="1086" y="1491" on="0"/>
        <pt x="1046" y="1491" on="1"/>
        <pt x="1031" y="1491" on="1"/>
        <pt x="987" y="1491" on="0"/>
        <pt x="795" y="1653" on="0"/>
        <pt x="768" y="1653" on="0"/>
        <pt x="696" y="1592" on="0"/>
        <pt x="555" y="1491" on="0"/>
      </contour>
      <contour>
        <pt x="1148" y="375" on="0"/>
        <pt x="1148" y="1007" on="0"/>
        <pt x="1111" y="1209" on="0"/>
        <pt x="1087" y="1249" on="1"/>
        <pt x="1053" y="1291" on="1"/>
        <pt x="1030" y="1320" on="0"/>
        <pt x="1030" y="1327" on="1"/>
        <pt x="1030" y="1371" on="0"/>
        <pt x="1437" y="1371" on="0"/>
        <pt x="1437" y="1321" on="1"/>
        <pt x="1437" y="1279" on="0"/>
        <pt x="1388" y="1250" on="1"/>
        <pt x="1315" y="1207" on="0"/>
        <pt x="1294" y="1108" on="0"/>
        <pt x="1294" y="942" on="1"/>
        <pt x="1294" y="714" on="1"/>
        <pt x="1292" y="632" on="1"/>
        <pt x="1291" y="590" on="0"/>
        <pt x="1291" y="494" on="1"/>
        <pt x="1291" y="251" on="0"/>
        <pt x="1158" y="111" on="1"/>
        <pt x="1024" y="-30" on="0"/>
        <pt x="772" y="-30" on="1"/>
        <pt x="417" y="-30" on="0"/>
        <pt x="290" y="158" on="1"/>
        <pt x="224" y="256" on="0"/>
        <pt x="199" y="477" on="0"/>
        <pt x="199" y="1140" on="0"/>
        <pt x="168" y="1227" on="0"/>
        <pt x="55" y="1291" on="0"/>
        <pt x="55" y="1311" on="1"/>
        <pt x="55" y="1357" on="0"/>
        <pt x="105" y="1366" on="1"/>
        <pt x="139" y="1372" on="0"/>
        <pt x="334" y="1372" on="1"/>
        <pt x="413" y="1373" on="1"/>
        <pt x="452" y="1373" on="1"/>
        <pt x="554" y="1373" on="0"/>
        <pt x="554" y="1337" on="1"/>
        <pt x="554" y="1324" on="0"/>
        <pt x="481" y="1244" on="0"/>
        <pt x="454" y="1106" on="0"/>
        <pt x="454" y="918" on="1"/>
        <pt x="452" y="839" on="1"/>
        <pt x="451" y="782" on="0"/>
        <pt x="449" y="721" on="0"/>
        <pt x="449" y="570" on="1"/>
        <pt x="449" y="331" on="0"/>
        <pt x="614" y="101" on="0"/>
        <pt x="804" y="101" on="1"/>
        <pt x="892" y="101" on="0"/>
        <pt x="1044" y="172" on="0"/>
      </contour>
    </TTGlyph>
    <TTGlyph name="Udieresis" xMin="50" yMin="-28" xMax="1434" yMax="1755">
      <contour>
        <pt x="691" y="1628" on="1"/>
        <pt x="689" y="1609" on="1"/>
        <pt x="689" y="1580" on="0"/>
        <pt x="626" y="1517" on="0"/>
        <pt x="575" y="1517" on="1"/>
        <pt x="563" y="1517" on="1"/>
        <pt x="536" y="1521" on="1"/>
        <pt x="511" y="1521" on="0"/>
        <pt x="454" y="1578" on="0"/>
        <pt x="454" y="1608" on="1"/>
        <pt x="451" y="1632" on="1"/>
        <pt x="451" y="1640" on="1"/>
        <pt x="451" y="1689" on="0"/>
        <pt x="514" y="1752" on="0"/>
        <pt x="545" y="1752" on="1"/>
        <pt x="568" y="1755" on="1"/>
        <pt x="584" y="1755" on="1"/>
        <pt x="596" y="1752" on="0"/>
        <pt x="632" y="1752" on="0"/>
        <pt x="688" y="1696" on="0"/>
        <pt x="688" y="1668" on="1"/>
        <pt x="690" y="1660" on="0"/>
        <pt x="690" y="1656" on="1"/>
        <pt x="692" y="1636" on="1"/>
        <pt x="692" y="1632" on="1"/>
      </contour>
      <contour>
        <pt x="1093" y="1648" on="1"/>
        <pt x="1093" y="1628" on="1"/>
        <pt x="1093" y="1583" on="0"/>
        <pt x="1027" y="1517" on="0"/>
        <pt x="972" y="1517" on="1"/>
        <pt x="968" y="1517" on="1"/>
        <pt x="925" y="1517" on="0"/>
        <pt x="853" y="1574" on="0"/>
        <pt x="853" y="1621" on="1"/>
        <pt x="853" y="1649" on="1"/>
        <pt x="853" y="1690" on="0"/>
        <pt x="918" y="1755" on="0"/>
        <pt x="962" y="1755" on="1"/>
        <pt x="986" y="1755" on="1"/>
        <pt x="1025" y="1755" on="0"/>
        <pt x="1093" y="1698" on="0"/>
      </contour>
      <contour>
        <pt x="1026" y="1331" on="1"/>
        <pt x="1026" y="1369" on="0"/>
        <pt x="1232" y="1369" on="1"/>
        <pt x="1271" y="1369" on="1"/>
        <pt x="1385" y="1369" on="0"/>
        <pt x="1434" y="1343" on="0"/>
        <pt x="1434" y="1306" on="1"/>
        <pt x="1434" y="1285" on="0"/>
        <pt x="1311" y="1218" on="0"/>
        <pt x="1282" y="1130" on="0"/>
        <pt x="1282" y="495" on="0"/>
        <pt x="1264" y="285" on="0"/>
        <pt x="1155" y="94" on="0"/>
        <pt x="937" y="-28" on="0"/>
        <pt x="789" y="-28" on="1"/>
        <pt x="746" y="-28" on="1"/>
        <pt x="428" y="-28" on="0"/>
        <pt x="293" y="156" on="1"/>
        <pt x="227" y="247" on="0"/>
        <pt x="199" y="465" on="0"/>
        <pt x="199" y="1105" on="0"/>
        <pt x="178" y="1218" on="0"/>
        <pt x="134" y="1244" on="1"/>
        <pt x="50" y="1294" on="0"/>
        <pt x="50" y="1322" on="1"/>
        <pt x="50" y="1369" on="0"/>
        <pt x="228" y="1369" on="1"/>
        <pt x="343" y="1369" on="1"/>
        <pt x="541" y="1369" on="0"/>
        <pt x="541" y="1338" on="1"/>
        <pt x="541" y="1317" on="0"/>
        <pt x="472" y="1252" on="0"/>
        <pt x="438" y="1095" on="0"/>
        <pt x="438" y="481" on="0"/>
        <pt x="452" y="388" on="1"/>
        <pt x="496" y="96" on="0"/>
        <pt x="817" y="96" on="1"/>
        <pt x="897" y="96" on="0"/>
        <pt x="1048" y="177" on="0"/>
        <pt x="1145" y="376" on="0"/>
        <pt x="1145" y="1042" on="0"/>
        <pt x="1109" y="1199" on="0"/>
        <pt x="1026" y="1319" on="0"/>
      </contour>
    </TTGlyph>
    <TTGlyph name="Ugrave" xMin="58" yMin="-27" xMax="1440" yMax="1825">
      <contour>
        <pt x="470" y="1749" on="1"/>
        <pt x="470" y="1770" on="1"/>
        <pt x="470" y="1783" on="0"/>
        <pt x="524" y="1825" on="0"/>
        <pt x="564" y="1825" on="1"/>
        <pt x="586" y="1825" on="1"/>
        <pt x="633" y="1825" on="0"/>
        <pt x="692" y="1773" on="1"/>
        <pt x="890" y="1597" on="0"/>
        <pt x="890" y="1529" on="1"/>
        <pt x="890" y="1524" on="1"/>
        <pt x="890" y="1491" on="0"/>
        <pt x="855" y="1491" on="1"/>
        <pt x="839" y="1491" on="1"/>
        <pt x="788" y="1491" on="0"/>
        <pt x="575" y="1640" on="1"/>
        <pt x="470" y="1714" on="0"/>
      </contour>
      <contour>
        <pt x="1033" y="1331" on="1"/>
        <pt x="1033" y="1370" on="0"/>
        <pt x="1199" y="1370" on="1"/>
        <pt x="1277" y="1370" on="1"/>
        <pt x="1393" y="1370" on="0"/>
        <pt x="1440" y="1345" on="0"/>
        <pt x="1440" y="1309" on="1"/>
        <pt x="1440" y="1287" on="0"/>
        <pt x="1317" y="1218" on="0"/>
        <pt x="1289" y="1138" on="0"/>
        <pt x="1289" y="497" on="0"/>
        <pt x="1268" y="281" on="0"/>
        <pt x="1217" y="194" on="1"/>
        <pt x="1150" y="79" on="0"/>
        <pt x="921" y="-27" on="0"/>
        <pt x="795" y="-27" on="1"/>
        <pt x="752" y="-27" on="1"/>
        <pt x="435" y="-27" on="0"/>
        <pt x="300" y="159" on="1"/>
        <pt x="243" y="237" on="0"/>
        <pt x="206" y="425" on="0"/>
        <pt x="206" y="1107" on="0"/>
        <pt x="183" y="1221" on="0"/>
        <pt x="141" y="1246" on="1"/>
        <pt x="58" y="1296" on="0"/>
        <pt x="58" y="1322" on="1"/>
        <pt x="58" y="1370" on="0"/>
        <pt x="199" y="1370" on="1"/>
        <pt x="429" y="1370" on="1"/>
        <pt x="550" y="1370" on="0"/>
        <pt x="550" y="1339" on="1"/>
        <pt x="550" y="1329" on="0"/>
        <pt x="473" y="1241" on="0"/>
        <pt x="445" y="1046" on="0"/>
        <pt x="445" y="499" on="0"/>
        <pt x="450" y="454" on="1"/>
        <pt x="466" y="306" on="0"/>
        <pt x="510" y="238" on="1"/>
        <pt x="603" y="98" on="0"/>
        <pt x="821" y="98" on="1"/>
        <pt x="901" y="98" on="0"/>
        <pt x="1037" y="168" on="0"/>
        <pt x="1079" y="234" on="1"/>
        <pt x="1149" y="344" on="0"/>
        <pt x="1149" y="581" on="1"/>
        <pt x="1151" y="662" on="1"/>
        <pt x="1152" y="783" on="1"/>
        <pt x="1152" y="1032" on="0"/>
        <pt x="1115" y="1201" on="0"/>
        <pt x="1033" y="1320" on="0"/>
      </contour>
    </TTGlyph>
    <TTGlyph name="V" xMin="30" yMin="-10" xMax="1418" yMax="1391">
      <contour>
        <pt x="30" y="1335" on="1"/>
        <pt x="30" y="1373" on="0"/>
        <pt x="116" y="1388" on="0"/>
        <pt x="498" y="1388" on="0"/>
        <pt x="498" y="1344" on="1"/>
        <pt x="498" y="1328" on="0"/>
        <pt x="458" y="1263" on="0"/>
        <pt x="458" y="1178" on="0"/>
        <pt x="494" y="1066" on="1"/>
        <pt x="643" y="603" on="0"/>
        <pt x="764" y="303" on="0"/>
        <pt x="773" y="303" on="1"/>
        <pt x="792" y="303" on="0"/>
        <pt x="837" y="410" on="1"/>
        <pt x="976" y="741" on="0"/>
        <pt x="1057" y="1034" on="1"/>
        <pt x="1090" y="1153" on="0"/>
        <pt x="1090" y="1234" on="0"/>
        <pt x="1064" y="1285" on="0"/>
        <pt x="1030" y="1337" on="0"/>
        <pt x="1030" y="1348" on="1"/>
        <pt x="1030" y="1391" on="0"/>
        <pt x="1194" y="1391" on="1"/>
        <pt x="1263" y="1391" on="1"/>
        <pt x="1418" y="1391" on="0"/>
        <pt x="1418" y="1350" on="1"/>
        <pt x="1418" y="1315" on="0"/>
        <pt x="1290" y="1233" on="0"/>
        <pt x="1249" y="1157" on="0"/>
        <pt x="895" y="222" on="0"/>
        <pt x="792" y="-10" on="0"/>
        <pt x="655" y="-10" on="0"/>
        <pt x="599" y="109" on="1"/>
        <pt x="597" y="112" on="0"/>
        <pt x="197" y="1171" on="0"/>
        <pt x="151" y="1246" on="0"/>
        <pt x="114" y="1269" on="1"/>
        <pt x="30" y="1320" on="0"/>
      </contour>
    </TTGlyph>
    <TTGlyph name="W" xMin="97" yMin="52" xMax="1968" yMax="1380">
      <contour>
        <pt x="153" y="1380" on="0"/>
        <pt x="314" y="1380" on="0"/>
        <pt x="362" y="1362" on="1"/>
        <pt x="452" y="1330" on="0"/>
        <pt x="473" y="1187" on="1"/>
        <pt x="483" y="1114" on="0"/>
        <pt x="588" y="668" on="0"/>
        <pt x="661" y="459" on="0"/>
        <pt x="761" y="459" on="0"/>
        <pt x="884" y="867" on="0"/>
        <pt x="884" y="1029" on="1"/>
        <pt x="884" y="1081" on="0"/>
        <pt x="873" y="1127" on="1"/>
        <pt x="861" y="1168" on="1"/>
        <pt x="851" y="1207" on="1"/>
        <pt x="851" y="1280" on="0"/>
        <pt x="964" y="1357" on="0"/>
        <pt x="1121" y="1357" on="0"/>
        <pt x="1242" y="1264" on="0"/>
        <pt x="1242" y="1205" on="1"/>
        <pt x="1237" y="1166" on="1"/>
        <pt x="1230" y="1127" on="1"/>
        <pt x="1230" y="975" on="0"/>
        <pt x="1389" y="545" on="1"/>
        <pt x="1419" y="463" on="0"/>
        <pt x="1494" y="463" on="0"/>
        <pt x="1534" y="528" on="0"/>
        <pt x="1667" y="1002" on="0"/>
        <pt x="1688" y="1288" on="0"/>
        <pt x="1691" y="1298" on="1"/>
        <pt x="1716" y="1379" on="0"/>
        <pt x="1848" y="1379" on="1"/>
        <pt x="1914" y="1379" on="0"/>
        <pt x="1968" y="1332" on="0"/>
        <pt x="1968" y="1265" on="0"/>
        <pt x="1846" y="1073" on="0"/>
        <pt x="1814" y="979" on="1"/>
        <pt x="1760" y="813" on="1"/>
        <pt x="1744" y="765" on="0"/>
        <pt x="1725" y="701" on="1"/>
        <pt x="1691" y="590" on="1"/>
        <pt x="1575" y="226" on="0"/>
        <pt x="1539" y="160" on="1"/>
        <pt x="1481" y="55" on="0"/>
        <pt x="1413" y="55" on="1"/>
        <pt x="1336" y="55" on="0"/>
        <pt x="1278" y="188" on="1"/>
        <pt x="1249" y="255" on="0"/>
        <pt x="1080" y="796" on="0"/>
        <pt x="1061" y="844" on="1"/>
        <pt x="1042" y="885" on="1"/>
        <pt x="1019" y="885" on="0"/>
        <pt x="814" y="270" on="0"/>
        <pt x="775" y="185" on="1"/>
        <pt x="714" y="52" on="0"/>
        <pt x="566" y="52" on="0"/>
        <pt x="512" y="160" on="1"/>
        <pt x="488" y="209" on="0"/>
        <pt x="275" y="911" on="0"/>
        <pt x="214" y="1079" on="0"/>
        <pt x="97" y="1279" on="0"/>
        <pt x="97" y="1327" on="0"/>
        <pt x="116" y="1345" on="1"/>
      </contour>
    </TTGlyph>
    <TTGlyph name="X" xMin="68" yMin="3" xMax="1374" yMax="1393">
      <contour>
        <pt x="86" y="1339" on="1"/>
        <pt x="86" y="1385" on="0"/>
        <pt x="332" y="1385" on="1"/>
        <pt x="418" y="1387" on="1"/>
        <pt x="461" y="1388" on="0"/>
        <pt x="501" y="1388" on="1"/>
        <pt x="577" y="1388" on="0"/>
        <pt x="577" y="1334" on="1"/>
        <pt x="549" y="1293" on="1"/>
        <pt x="533" y="1270" on="0"/>
        <pt x="533" y="1202" on="0"/>
        <pt x="743" y="890" on="0"/>
        <pt x="764" y="890" on="1"/>
        <pt x="780" y="890" on="0"/>
        <pt x="995" y="1182" on="0"/>
        <pt x="995" y="1242" on="1"/>
        <pt x="995" y="1265" on="0"/>
        <pt x="949" y="1345" on="0"/>
        <pt x="949" y="1357" on="1"/>
        <pt x="949" y="1393" on="0"/>
        <pt x="1102" y="1393" on="1"/>
        <pt x="1144" y="1393" on="1"/>
        <pt x="1348" y="1393" on="0"/>
        <pt x="1348" y="1350" on="1"/>
        <pt x="1348" y="1319" on="0"/>
        <pt x="1246" y="1266" on="1"/>
        <pt x="1184" y="1233" on="0"/>
        <pt x="1120" y="1154" on="1"/>
        <pt x="860" y="829" on="0"/>
        <pt x="860" y="726" on="1"/>
        <pt x="860" y="714" on="0"/>
        <pt x="900" y="652" on="1"/>
        <pt x="1121" y="312" on="0"/>
        <pt x="1238" y="160" on="0"/>
        <pt x="1283" y="131" on="1"/>
        <pt x="1374" y="72" on="0"/>
        <pt x="1374" y="48" on="1"/>
        <pt x="1374" y="3" on="0"/>
        <pt x="1041" y="3" on="1"/>
        <pt x="958" y="3" on="1"/>
        <pt x="890" y="3" on="0"/>
        <pt x="890" y="35" on="1"/>
        <pt x="890" y="52" on="0"/>
        <pt x="926" y="113" on="0"/>
        <pt x="926" y="121" on="1"/>
        <pt x="926" y="187" on="0"/>
        <pt x="766" y="434" on="1"/>
        <pt x="695" y="544" on="0"/>
        <pt x="670" y="544" on="1"/>
        <pt x="655" y="544" on="0"/>
        <pt x="569" y="426" on="1"/>
        <pt x="425" y="227" on="0"/>
        <pt x="425" y="155" on="1"/>
        <pt x="425" y="126" on="0"/>
        <pt x="472" y="45" on="0"/>
        <pt x="472" y="41" on="1"/>
        <pt x="472" y="3" on="0"/>
        <pt x="279" y="3" on="1"/>
        <pt x="238" y="3" on="1"/>
        <pt x="68" y="3" on="0"/>
        <pt x="68" y="35" on="1"/>
        <pt x="68" y="77" on="0"/>
        <pt x="158" y="122" on="1"/>
        <pt x="220" y="153" on="0"/>
        <pt x="283" y="231" on="1"/>
        <pt x="584" y="603" on="0"/>
        <pt x="584" y="698" on="1"/>
        <pt x="584" y="722" on="0"/>
        <pt x="527" y="808" on="1"/>
        <pt x="309" y="1137" on="0"/>
        <pt x="216" y="1244" on="0"/>
        <pt x="86" y="1314" on="0"/>
      </contour>
    </TTGlyph>
    <TTGlyph name="Y" xMin="57" yMin="-10" xMax="1315" yMax="1394">
      <contour>
        <pt x="433" y="36" on="1"/>
        <pt x="433" y="59" on="0"/>
        <pt x="536" y="139" on="0"/>
        <pt x="574" y="246" on="0"/>
        <pt x="574" y="553" on="0"/>
        <pt x="488" y="708" on="1"/>
        <pt x="285" y="1074" on="0"/>
        <pt x="218" y="1168" on="1"/>
        <pt x="182" y="1218" on="0"/>
        <pt x="57" y="1289" on="0"/>
        <pt x="57" y="1319" on="1"/>
        <pt x="57" y="1359" on="0"/>
        <pt x="190" y="1386" on="0"/>
        <pt x="402" y="1386" on="1"/>
        <pt x="507" y="1386" on="0"/>
        <pt x="507" y="1336" on="1"/>
        <pt x="507" y="1333" on="0"/>
        <pt x="472" y="1279" on="0"/>
        <pt x="472" y="1244" on="1"/>
        <pt x="472" y="1165" on="0"/>
        <pt x="655" y="843" on="1"/>
        <pt x="708" y="749" on="0"/>
        <pt x="722" y="749" on="1"/>
        <pt x="753" y="749" on="0"/>
        <pt x="976" y="1154" on="0"/>
        <pt x="976" y="1224" on="1"/>
        <pt x="976" y="1248" on="0"/>
        <pt x="934" y="1334" on="0"/>
        <pt x="934" y="1337" on="1"/>
        <pt x="934" y="1394" on="0"/>
        <pt x="1130" y="1394" on="1"/>
        <pt x="1197" y="1394" on="1"/>
        <pt x="1315" y="1394" on="0"/>
        <pt x="1315" y="1311" on="0"/>
        <pt x="1259" y="1274" on="1"/>
        <pt x="1174" y="1218" on="0"/>
        <pt x="1143" y="1174" on="1"/>
        <pt x="1049" y="1038" on="0"/>
        <pt x="877" y="694" on="1"/>
        <pt x="806" y="552" on="0"/>
        <pt x="806" y="304" on="1"/>
        <pt x="806" y="178" on="0"/>
        <pt x="847" y="112" on="0"/>
        <pt x="940" y="57" on="0"/>
        <pt x="940" y="-10" on="0"/>
        <pt x="850" y="-10" on="1"/>
        <pt x="598" y="-4" on="1"/>
        <pt x="433" y="-4" on="0"/>
      </contour>
    </TTGlyph>
    <TTGlyph name="Yacute" xMin="15" yMin="1" xMax="1303" yMax="1824">
      <contour>
        <pt x="578" y="1503" on="1"/>
        <pt x="578" y="1512" on="1"/>
        <pt x="578" y="1546" on="0"/>
        <pt x="752" y="1742" on="1"/>
        <pt x="825" y="1824" on="0"/>
        <pt x="884" y="1824" on="1"/>
        <pt x="895" y="1824" on="1"/>
        <pt x="900" y="1823" on="1"/>
        <pt x="937" y="1823" on="0"/>
        <pt x="996" y="1777" on="0"/>
        <pt x="996" y="1755" on="1"/>
        <pt x="995" y="1750" on="1"/>
        <pt x="995" y="1717" on="0"/>
        <pt x="879" y="1636" on="1"/>
        <pt x="652" y="1477" on="0"/>
        <pt x="620" y="1477" on="1"/>
        <pt x="615" y="1477" on="1"/>
        <pt x="578" y="1477" on="0"/>
      </contour>
      <contour>
        <pt x="389" y="37" on="1"/>
        <pt x="389" y="62" on="0"/>
        <pt x="494" y="134" on="0"/>
        <pt x="534" y="241" on="0"/>
        <pt x="534" y="512" on="0"/>
        <pt x="492" y="642" on="0"/>
        <pt x="219" y="1115" on="0"/>
        <pt x="145" y="1216" on="0"/>
        <pt x="15" y="1291" on="0"/>
        <pt x="15" y="1354" on="0"/>
        <pt x="90" y="1375" on="0"/>
        <pt x="347" y="1375" on="1"/>
        <pt x="490" y="1375" on="0"/>
        <pt x="490" y="1321" on="1"/>
        <pt x="490" y="1314" on="0"/>
        <pt x="457" y="1264" on="0"/>
        <pt x="457" y="1255" on="1"/>
        <pt x="457" y="1143" on="0"/>
        <pt x="638" y="840" on="1"/>
        <pt x="690" y="752" on="0"/>
        <pt x="707" y="752" on="1"/>
        <pt x="741" y="752" on="0"/>
        <pt x="953" y="1125" on="0"/>
        <pt x="953" y="1193" on="1"/>
        <pt x="953" y="1235" on="0"/>
        <pt x="941" y="1261" on="0"/>
        <pt x="907" y="1316" on="0"/>
        <pt x="907" y="1324" on="1"/>
        <pt x="907" y="1376" on="0"/>
        <pt x="1115" y="1376" on="1"/>
        <pt x="1215" y="1376" on="1"/>
        <pt x="1303" y="1376" on="0"/>
        <pt x="1303" y="1301" on="0"/>
        <pt x="1164" y="1224" on="0"/>
        <pt x="1124" y="1166" on="1"/>
        <pt x="1031" y="1033" on="0"/>
        <pt x="853" y="694" on="1"/>
        <pt x="793" y="580" on="0"/>
        <pt x="793" y="221" on="0"/>
        <pt x="838" y="121" on="0"/>
        <pt x="937" y="65" on="0"/>
        <pt x="937" y="1" on="0"/>
        <pt x="836" y="1" on="1"/>
        <pt x="803" y="1" on="1"/>
        <pt x="703" y="4" on="1"/>
        <pt x="572" y="3" on="1"/>
        <pt x="389" y="3" on="0"/>
      </contour>
    </TTGlyph>
    <TTGlyph name="Ydieresis" xMin="43" yMin="-27" xMax="1267" yMax="1739">
      <contour>
        <pt x="493" y="1505" on="1"/>
        <pt x="462" y="1505" on="1"/>
        <pt x="424" y="1505" on="0"/>
        <pt x="366" y="1563" on="0"/>
        <pt x="366" y="1605" on="1"/>
        <pt x="366" y="1632" on="1"/>
        <pt x="369" y="1644" on="0"/>
        <pt x="369" y="1677" on="0"/>
        <pt x="427" y="1735" on="0"/>
        <pt x="453" y="1735" on="1"/>
        <pt x="461" y="1737" on="0"/>
        <pt x="465" y="1737" on="1"/>
        <pt x="484" y="1739" on="1"/>
        <pt x="488" y="1739" on="1"/>
        <pt x="492" y="1738" on="1"/>
        <pt x="543" y="1738" on="0"/>
        <pt x="601" y="1680" on="0"/>
        <pt x="601" y="1639" on="1"/>
        <pt x="601" y="1615" on="1"/>
        <pt x="601" y="1570" on="0"/>
        <pt x="536" y="1505" on="0"/>
      </contour>
      <contour>
        <pt x="997" y="1640" on="1"/>
        <pt x="997" y="1617" on="1"/>
        <pt x="997" y="1577" on="0"/>
        <pt x="937" y="1505" on="0"/>
        <pt x="887" y="1505" on="1"/>
        <pt x="863" y="1505" on="1"/>
        <pt x="815" y="1505" on="0"/>
        <pt x="761" y="1570" on="0"/>
        <pt x="761" y="1612" on="1"/>
        <pt x="761" y="1624" on="1"/>
        <pt x="761" y="1668" on="0"/>
        <pt x="821" y="1739" on="0"/>
        <pt x="875" y="1739" on="1"/>
        <pt x="887" y="1739" on="1"/>
        <pt x="921" y="1734" on="1"/>
        <pt x="942" y="1734" on="0"/>
        <pt x="997" y="1679" on="0"/>
      </contour>
      <contour>
        <pt x="413" y="1353" on="1"/>
        <pt x="484" y="1353" on="0"/>
        <pt x="484" y="1319" on="1"/>
        <pt x="484" y="1302" on="0"/>
        <pt x="441" y="1240" on="0"/>
        <pt x="441" y="1214" on="1"/>
        <pt x="441" y="1123" on="0"/>
        <pt x="604" y="841" on="1"/>
        <pt x="671" y="725" on="0"/>
        <pt x="687" y="725" on="1"/>
        <pt x="734" y="725" on="0"/>
        <pt x="888" y="1069" on="1"/>
        <pt x="922" y="1145" on="0"/>
        <pt x="922" y="1223" on="1"/>
        <pt x="922" y="1242" on="0"/>
        <pt x="892" y="1303" on="0"/>
        <pt x="892" y="1310" on="1"/>
        <pt x="892" y="1360" on="0"/>
        <pt x="1054" y="1360" on="1"/>
        <pt x="1118" y="1360" on="1"/>
        <pt x="1202" y="1360" on="0"/>
        <pt x="1267" y="1332" on="0"/>
        <pt x="1267" y="1266" on="0"/>
        <pt x="1135" y="1192" on="0"/>
        <pt x="1101" y="1145" on="1"/>
        <pt x="980" y="976" on="0"/>
        <pt x="811" y="614" on="1"/>
        <pt x="759" y="503" on="0"/>
        <pt x="759" y="260" on="1"/>
        <pt x="759" y="177" on="0"/>
        <pt x="799" y="97" on="0"/>
        <pt x="899" y="31" on="0"/>
        <pt x="899" y="9" on="1"/>
        <pt x="899" y="-27" on="0"/>
        <pt x="822" y="-27" on="1"/>
        <pt x="791" y="-27" on="1"/>
        <pt x="700" y="-24" on="1"/>
        <pt x="639" y="-22" on="0"/>
        <pt x="577" y="-22" on="1"/>
        <pt x="397" y="-22" on="0"/>
        <pt x="397" y="13" on="1"/>
        <pt x="397" y="42" on="0"/>
        <pt x="433" y="68" on="1"/>
        <pt x="506" y="120" on="0"/>
        <pt x="516" y="137" on="1"/>
        <pt x="550" y="192" on="0"/>
        <pt x="550" y="512" on="0"/>
        <pt x="496" y="620" on="1"/>
        <pt x="368" y="875" on="0"/>
        <pt x="224" y="1098" on="1"/>
        <pt x="182" y="1163" on="0"/>
        <pt x="43" y="1264" on="0"/>
        <pt x="43" y="1303" on="1"/>
        <pt x="53" y="1316" on="1"/>
        <pt x="100" y="1353" on="0"/>
      </contour>
    </TTGlyph>
    <TTGlyph name="Z" xMin="102" yMin="-5" xMax="1194" yMax="1393">
      <contour>
        <pt x="102" y="26" on="0"/>
        <pt x="102" y="138" on="0"/>
        <pt x="837" y="1199" on="0"/>
        <pt x="837" y="1274" on="0"/>
        <pt x="708" y="1274" on="1"/>
        <pt x="489" y="1274" on="0"/>
        <pt x="377" y="1236" on="1"/>
        <pt x="317" y="1216" on="0"/>
        <pt x="271" y="1163" on="1"/>
        <pt x="180" y="1059" on="0"/>
        <pt x="171" y="1059" on="1"/>
        <pt x="119" y="1059" on="0"/>
        <pt x="119" y="1138" on="1"/>
        <pt x="119" y="1299" on="0"/>
        <pt x="172" y="1393" on="0"/>
        <pt x="263" y="1393" on="1"/>
        <pt x="658" y="1393" on="1"/>
        <pt x="698" y="1392" on="1"/>
        <pt x="738" y="1391" on="0"/>
        <pt x="777" y="1391" on="1"/>
        <pt x="895" y="1390" on="1"/>
        <pt x="1061" y="1390" on="0"/>
        <pt x="1087" y="1387" on="1"/>
        <pt x="1154" y="1379" on="0"/>
        <pt x="1154" y="1344" on="1"/>
        <pt x="1154" y="1280" on="0"/>
        <pt x="1074" y="1153" on="1"/>
        <pt x="1068" y="1144" on="0"/>
        <pt x="425" y="179" on="0"/>
        <pt x="425" y="152" on="1"/>
        <pt x="425" y="112" on="0"/>
        <pt x="553" y="112" on="1"/>
        <pt x="850" y="112" on="0"/>
        <pt x="956" y="157" on="1"/>
        <pt x="1020" y="184" on="0"/>
        <pt x="1129" y="347" on="0"/>
        <pt x="1170" y="347" on="1"/>
        <pt x="1194" y="347" on="0"/>
        <pt x="1194" y="275" on="1"/>
        <pt x="1194" y="92" on="0"/>
        <pt x="1145" y="32" on="1"/>
        <pt x="1115" y="-5" on="0"/>
        <pt x="983" y="-5" on="1"/>
        <pt x="711" y="-5" on="1"/>
        <pt x="283" y="0" on="1"/>
        <pt x="161" y="0" on="0"/>
      </contour>
    </TTGlyph>
    <TTGlyph name="Zcaron" xMin="97" yMin="8" xMax="1147" yMax="1801">
      <contour>
        <pt x="378" y="1801" on="1"/>
        <pt x="400" y="1801" on="1"/>
        <pt x="440" y="1801" on="0"/>
        <pt x="541" y="1723" on="1"/>
        <pt x="555" y="1713" on="1"/>
        <pt x="573" y="1695" on="0"/>
        <pt x="585" y="1685" on="1"/>
        <pt x="643" y="1637" on="1"/>
        <pt x="654" y="1637" on="0"/>
        <pt x="836" y="1789" on="0"/>
        <pt x="898" y="1789" on="1"/>
        <pt x="935" y="1789" on="0"/>
        <pt x="935" y="1762" on="1"/>
        <pt x="935" y="1755" on="1"/>
        <pt x="935" y="1750" on="0"/>
        <pt x="702" y="1474" on="0"/>
        <pt x="650" y="1474" on="1"/>
        <pt x="635" y="1474" on="1"/>
        <pt x="589" y="1474" on="0"/>
        <pt x="503" y="1586" on="1"/>
        <pt x="477" y="1619" on="0"/>
        <pt x="345" y="1764" on="0"/>
        <pt x="345" y="1777" on="1"/>
        <pt x="345" y="1801" on="0"/>
      </contour>
      <contour>
        <pt x="270" y="12" on="0"/>
        <pt x="150" y="12" on="0"/>
        <pt x="97" y="38" on="0"/>
        <pt x="97" y="143" on="0"/>
        <pt x="814" y="1186" on="0"/>
        <pt x="814" y="1227" on="1"/>
        <pt x="814" y="1258" on="0"/>
        <pt x="715" y="1258" on="1"/>
        <pt x="437" y="1258" on="0"/>
        <pt x="325" y="1208" on="1"/>
        <pt x="277" y="1186" on="0"/>
        <pt x="170" y="1042" on="0"/>
        <pt x="136" y="1042" on="1"/>
        <pt x="107" y="1042" on="0"/>
        <pt x="107" y="1115" on="1"/>
        <pt x="107" y="1280" on="0"/>
        <pt x="152" y="1368" on="0"/>
        <pt x="204" y="1368" on="1"/>
        <pt x="238" y="1368" on="1"/>
        <pt x="313" y="1366" on="1"/>
        <pt x="775" y="1362" on="1"/>
        <pt x="1004" y="1368" on="1"/>
        <pt x="1042" y="1368" on="1"/>
        <pt x="1121" y="1368" on="0"/>
        <pt x="1121" y="1302" on="1"/>
        <pt x="1121" y="1279" on="0"/>
        <pt x="397" y="159" on="0"/>
        <pt x="397" y="120" on="0"/>
        <pt x="809" y="120" on="0"/>
        <pt x="970" y="183" on="0"/>
        <pt x="1080" y="340" on="0"/>
        <pt x="1119" y="340" on="1"/>
        <pt x="1147" y="340" on="0"/>
        <pt x="1147" y="272" on="1"/>
        <pt x="1147" y="92" on="0"/>
        <pt x="1102" y="37" on="1"/>
        <pt x="1078" y="8" on="0"/>
        <pt x="979" y="8" on="1"/>
        <pt x="868" y="8" on="1"/>
        <pt x="831" y="9" on="1"/>
        <pt x="756" y="9" on="1"/>
        <pt x="381" y="15" on="1"/>
        <pt x="307" y="13" on="1"/>
      </contour>
    </TTGlyph>
    <TTGlyph name="a" xMin="80" yMin="-22" xMax="993" yMax="977">
      <contour>
        <pt x="613" y="463" on="1"/>
        <pt x="596" y="463" on="1"/>
        <pt x="465" y="463" on="0"/>
        <pt x="290" y="346" on="0"/>
        <pt x="290" y="259" on="1"/>
        <pt x="290" y="239" on="1"/>
        <pt x="290" y="188" on="0"/>
        <pt x="353" y="107" on="0"/>
        <pt x="403" y="107" on="1"/>
        <pt x="415" y="105" on="1"/>
        <pt x="445" y="105" on="1"/>
        <pt x="549" y="105" on="0"/>
        <pt x="615" y="190" on="1"/>
        <pt x="644" y="227" on="0"/>
        <pt x="644" y="342" on="1"/>
        <pt x="644" y="351" on="0"/>
        <pt x="644" y="360" on="1"/>
        <pt x="645" y="384" on="1"/>
        <pt x="645" y="408" on="1"/>
        <pt x="645" y="463" on="0"/>
      </contour>
      <contour>
        <pt x="127" y="786" on="1"/>
        <pt x="127" y="860" on="0"/>
        <pt x="362" y="977" on="0"/>
        <pt x="488" y="977" on="1"/>
        <pt x="492" y="977" on="0"/>
        <pt x="496" y="977" on="1"/>
        <pt x="616" y="977" on="0"/>
        <pt x="688" y="948" on="1"/>
        <pt x="834" y="890" on="0"/>
        <pt x="855" y="702" on="1"/>
        <pt x="857" y="683" on="0"/>
        <pt x="857" y="218" on="0"/>
        <pt x="882" y="138" on="0"/>
        <pt x="993" y="100" on="0"/>
        <pt x="993" y="83" on="1"/>
        <pt x="993" y="47" on="0"/>
        <pt x="957" y="28" on="1"/>
        <pt x="885" y="-10" on="0"/>
        <pt x="746" y="-10" on="0"/>
        <pt x="712" y="22" on="1"/>
        <pt x="651" y="79" on="0"/>
        <pt x="643" y="79" on="0"/>
        <pt x="425" y="-22" on="0"/>
        <pt x="343" y="-22" on="1"/>
        <pt x="220" y="-22" on="0"/>
        <pt x="80" y="114" on="0"/>
        <pt x="80" y="211" on="1"/>
        <pt x="80" y="236" on="1"/>
        <pt x="80" y="340" on="0"/>
        <pt x="260" y="498" on="0"/>
        <pt x="494" y="542" on="1"/>
        <pt x="579" y="558" on="0"/>
        <pt x="601" y="572" on="1"/>
        <pt x="645" y="600" on="0"/>
        <pt x="645" y="772" on="0"/>
        <pt x="553" y="864" on="0"/>
        <pt x="399" y="864" on="0"/>
        <pt x="256" y="685" on="0"/>
        <pt x="197" y="685" on="1"/>
        <pt x="127" y="685" on="0"/>
      </contour>
    </TTGlyph>
    <TTGlyph name="aacute" xMin="75" yMin="-26" xMax="995" yMax="1455">
      <contour>
        <pt x="292" y="231" on="1"/>
        <pt x="292" y="173" on="0"/>
        <pt x="370" y="105" on="0"/>
        <pt x="425" y="105" on="1"/>
        <pt x="432" y="105" on="1"/>
        <pt x="509" y="105" on="0"/>
        <pt x="642" y="198" on="0"/>
        <pt x="642" y="256" on="1"/>
        <pt x="644" y="268" on="0"/>
        <pt x="644" y="274" on="1"/>
        <pt x="647" y="312" on="1"/>
        <pt x="647" y="324" on="0"/>
        <pt x="647" y="336" on="1"/>
        <pt x="648" y="355" on="1"/>
        <pt x="648" y="422" on="1"/>
        <pt x="648" y="470" on="0"/>
        <pt x="603" y="470" on="1"/>
        <pt x="597" y="469" on="1"/>
        <pt x="572" y="467" on="1"/>
        <pt x="565" y="466" on="0"/>
        <pt x="559" y="466" on="1"/>
        <pt x="460" y="466" on="0"/>
        <pt x="294" y="355" on="0"/>
        <pt x="294" y="276" on="1"/>
        <pt x="292" y="263" on="1"/>
      </contour>
      <contour>
        <pt x="391" y="1106" on="1"/>
        <pt x="391" y="1116" on="1"/>
        <pt x="391" y="1128" on="0"/>
        <pt x="577" y="1406" on="0"/>
        <pt x="578" y="1408" on="1"/>
        <pt x="619" y="1455" on="0"/>
        <pt x="680" y="1455" on="1"/>
        <pt x="698" y="1455" on="1"/>
        <pt x="791" y="1455" on="0"/>
        <pt x="791" y="1402" on="1"/>
        <pt x="791" y="1391" on="1"/>
        <pt x="791" y="1360" on="0"/>
        <pt x="510" y="1079" on="0"/>
        <pt x="453" y="1079" on="1"/>
        <pt x="431" y="1079" on="1"/>
        <pt x="391" y="1079" on="0"/>
      </contour>
      <contour>
        <pt x="478" y="959" on="1"/>
        <pt x="528" y="959" on="1"/>
        <pt x="730" y="959" on="0"/>
        <pt x="814" y="817" on="1"/>
        <pt x="858" y="742" on="0"/>
        <pt x="858" y="207" on="0"/>
        <pt x="890" y="128" on="0"/>
        <pt x="995" y="92" on="0"/>
        <pt x="995" y="67" on="1"/>
        <pt x="995" y="35" on="0"/>
        <pt x="952" y="16" on="1"/>
        <pt x="883" y="-14" on="0"/>
        <pt x="741" y="-14" on="0"/>
        <pt x="655" y="75" on="0"/>
        <pt x="642" y="75" on="0"/>
        <pt x="435" y="-26" on="0"/>
        <pt x="357" y="-26" on="1"/>
        <pt x="333" y="-26" on="1"/>
        <pt x="214" y="-26" on="0"/>
        <pt x="75" y="113" on="0"/>
        <pt x="75" y="336" on="0"/>
        <pt x="169" y="414" on="1"/>
        <pt x="242" y="475" on="0"/>
        <pt x="377" y="507" on="1"/>
        <pt x="595" y="559" on="0"/>
        <pt x="598" y="561" on="1"/>
        <pt x="636" y="587" on="0"/>
        <pt x="636" y="745" on="0"/>
        <pt x="558" y="844" on="0"/>
        <pt x="410" y="844" on="0"/>
        <pt x="255" y="670" on="0"/>
        <pt x="215" y="670" on="1"/>
        <pt x="134" y="670" on="0"/>
        <pt x="134" y="838" on="0"/>
        <pt x="229" y="891" on="1"/>
        <pt x="350" y="959" on="0"/>
      </contour>
    </TTGlyph>
    <TTGlyph name="acircumflex" xMin="76" yMin="-25" xMax="1001" yMax="1449">
      <contour>
        <pt x="292" y="219" on="1"/>
        <pt x="292" y="175" on="0"/>
        <pt x="375" y="111" on="0"/>
        <pt x="416" y="111" on="1"/>
        <pt x="440" y="111" on="1"/>
        <pt x="446" y="112" on="1"/>
        <pt x="555" y="112" on="0"/>
        <pt x="619" y="194" on="1"/>
        <pt x="649" y="233" on="0"/>
        <pt x="649" y="343" on="1"/>
        <pt x="650" y="367" on="1"/>
        <pt x="650" y="403" on="1"/>
        <pt x="650" y="464" on="0"/>
        <pt x="612" y="464" on="1"/>
        <pt x="594" y="464" on="1"/>
        <pt x="532" y="457" on="1"/>
        <pt x="437" y="457" on="0"/>
        <pt x="292" y="344" on="0"/>
        <pt x="292" y="282" on="1"/>
        <pt x="290" y="270" on="1"/>
        <pt x="290" y="238" on="1"/>
        <pt x="292" y="226" on="0"/>
      </contour>
      <contour>
        <pt x="761" y="1082" on="1"/>
        <pt x="747" y="1082" on="1"/>
        <pt x="710" y="1082" on="0"/>
        <pt x="510" y="1266" on="0"/>
        <pt x="495" y="1266" on="0"/>
        <pt x="302" y="1088" on="0"/>
        <pt x="218" y="1088" on="0"/>
        <pt x="218" y="1115" on="1"/>
        <pt x="218" y="1166" on="0"/>
        <pt x="419" y="1404" on="1"/>
        <pt x="457" y="1449" on="0"/>
        <pt x="504" y="1449" on="1"/>
        <pt x="513" y="1449" on="1"/>
        <pt x="556" y="1449" on="0"/>
        <pt x="603" y="1398" on="1"/>
        <pt x="803" y="1180" on="0"/>
        <pt x="803" y="1115" on="1"/>
        <pt x="803" y="1082" on="0"/>
      </contour>
      <contour>
        <pt x="478" y="966" on="1"/>
        <pt x="529" y="966" on="1"/>
        <pt x="732" y="966" on="0"/>
        <pt x="817" y="826" on="1"/>
        <pt x="862" y="752" on="0"/>
        <pt x="862" y="211" on="0"/>
        <pt x="895" y="129" on="0"/>
        <pt x="1001" y="94" on="0"/>
        <pt x="1001" y="70" on="1"/>
        <pt x="1001" y="37" on="0"/>
        <pt x="957" y="17" on="1"/>
        <pt x="888" y="-14" on="0"/>
        <pt x="747" y="-14" on="0"/>
        <pt x="657" y="76" on="0"/>
        <pt x="633" y="76" on="0"/>
        <pt x="559" y="34" on="0"/>
        <pt x="435" y="-25" on="0"/>
        <pt x="358" y="-25" on="1"/>
        <pt x="334" y="-25" on="1"/>
        <pt x="215" y="-25" on="0"/>
        <pt x="76" y="114" on="0"/>
        <pt x="76" y="340" on="0"/>
        <pt x="245" y="480" on="0"/>
        <pt x="381" y="512" on="1"/>
        <pt x="598" y="563" on="0"/>
        <pt x="604" y="567" on="1"/>
        <pt x="642" y="593" on="0"/>
        <pt x="642" y="766" on="0"/>
        <pt x="548" y="851" on="0"/>
        <pt x="407" y="851" on="0"/>
        <pt x="262" y="676" on="0"/>
        <pt x="194" y="676" on="1"/>
        <pt x="133" y="676" on="0"/>
        <pt x="133" y="845" on="0"/>
        <pt x="228" y="898" on="1"/>
        <pt x="349" y="966" on="0"/>
      </contour>
    </TTGlyph>
    <TTGlyph name="acute" xMin="207" yMin="1120" xMax="608" yMax="1489">
      <contour>
        <pt x="264" y="1120" on="1"/>
        <pt x="243" y="1120" on="1"/>
        <pt x="207" y="1120" on="0"/>
        <pt x="207" y="1149" on="1"/>
        <pt x="207" y="1154" on="1"/>
        <pt x="207" y="1195" on="0"/>
        <pt x="387" y="1426" on="1"/>
        <pt x="436" y="1489" on="0"/>
        <pt x="502" y="1489" on="1"/>
        <pt x="520" y="1489" on="1"/>
        <pt x="608" y="1489" on="0"/>
        <pt x="608" y="1434" on="1"/>
        <pt x="608" y="1424" on="1"/>
        <pt x="608" y="1392" on="0"/>
        <pt x="302" y="1120" on="0"/>
      </contour>
    </TTGlyph>
    <TTGlyph name="adieresis" xMin="85" yMin="-25" xMax="999" yMax="1376">
      <contour>
        <pt x="648" y="420" on="1"/>
        <pt x="648" y="469" on="0"/>
        <pt x="612" y="469" on="1"/>
        <pt x="606" y="469" on="1"/>
        <pt x="600" y="468" on="1"/>
        <pt x="468" y="468" on="0"/>
        <pt x="293" y="351" on="0"/>
        <pt x="293" y="271" on="1"/>
        <pt x="293" y="239" on="1"/>
        <pt x="295" y="225" on="0"/>
        <pt x="295" y="220" on="1"/>
        <pt x="295" y="175" on="0"/>
        <pt x="376" y="112" on="0"/>
        <pt x="416" y="112" on="1"/>
        <pt x="447" y="112" on="1"/>
        <pt x="524" y="112" on="0"/>
        <pt x="643" y="217" on="0"/>
        <pt x="643" y="271" on="1"/>
        <pt x="645" y="283" on="0"/>
        <pt x="645" y="289" on="1"/>
        <pt x="646" y="301" on="1"/>
        <pt x="646" y="307" on="0"/>
        <pt x="646" y="313" on="1"/>
        <pt x="647" y="325" on="1"/>
        <pt x="647" y="337" on="0"/>
        <pt x="647" y="349" on="1"/>
        <pt x="648" y="367" on="1"/>
      </contour>
      <contour>
        <pt x="202" y="1279" on="0"/>
        <pt x="202" y="1306" on="0"/>
        <pt x="258" y="1373" on="0"/>
        <pt x="295" y="1373" on="1"/>
        <pt x="318" y="1376" on="1"/>
        <pt x="326" y="1376" on="1"/>
        <pt x="338" y="1373" on="0"/>
        <pt x="378" y="1373" on="0"/>
        <pt x="438" y="1313" on="0"/>
        <pt x="438" y="1271" on="1"/>
        <pt x="438" y="1247" on="1"/>
        <pt x="438" y="1204" on="0"/>
        <pt x="373" y="1139" on="0"/>
        <pt x="320" y="1139" on="1"/>
        <pt x="312" y="1139" on="1"/>
        <pt x="285" y="1142" on="1"/>
        <pt x="259" y="1142" on="0"/>
        <pt x="202" y="1199" on="0"/>
        <pt x="202" y="1232" on="1"/>
        <pt x="200" y="1240" on="1"/>
        <pt x="200" y="1271" on="1"/>
      </contour>
      <contour>
        <pt x="822" y="1259" on="1"/>
        <pt x="822" y="1239" on="1"/>
        <pt x="822" y="1201" on="0"/>
        <pt x="763" y="1130" on="0"/>
        <pt x="714" y="1130" on="1"/>
        <pt x="691" y="1130" on="1"/>
        <pt x="648" y="1130" on="0"/>
        <pt x="589" y="1189" on="0"/>
        <pt x="589" y="1217" on="1"/>
        <pt x="586" y="1236" on="1"/>
        <pt x="586" y="1259" on="1"/>
        <pt x="589" y="1271" on="0"/>
        <pt x="589" y="1297" on="0"/>
        <pt x="642" y="1361" on="0"/>
        <pt x="675" y="1361" on="1"/>
        <pt x="681" y="1363" on="0"/>
        <pt x="686" y="1363" on="1"/>
        <pt x="701" y="1365" on="1"/>
        <pt x="713" y="1365" on="1"/>
        <pt x="740" y="1361" on="1"/>
        <pt x="764" y="1361" on="0"/>
        <pt x="822" y="1303" on="0"/>
      </contour>
      <contour>
        <pt x="132" y="783" on="1"/>
        <pt x="132" y="858" on="0"/>
        <pt x="363" y="973" on="0"/>
        <pt x="491" y="973" on="1"/>
        <pt x="731" y="973" on="0"/>
        <pt x="812" y="850" on="1"/>
        <pt x="853" y="787" on="0"/>
        <pt x="862" y="698" on="1"/>
        <pt x="864" y="679" on="0"/>
        <pt x="864" y="214" on="0"/>
        <pt x="889" y="137" on="0"/>
        <pt x="999" y="95" on="0"/>
        <pt x="999" y="78" on="1"/>
        <pt x="999" y="42" on="0"/>
        <pt x="963" y="23" on="1"/>
        <pt x="893" y="-14" on="0"/>
        <pt x="751" y="-14" on="0"/>
        <pt x="717" y="18" on="1"/>
        <pt x="656" y="75" on="0"/>
        <pt x="655" y="75" on="1"/>
        <pt x="642" y="75" on="0"/>
        <pt x="437" y="-25" on="0"/>
        <pt x="348" y="-25" on="1"/>
        <pt x="324" y="-25" on="1"/>
        <pt x="224" y="-25" on="0"/>
        <pt x="85" y="110" on="0"/>
        <pt x="85" y="208" on="1"/>
        <pt x="85" y="233" on="1"/>
        <pt x="85" y="350" on="0"/>
        <pt x="190" y="429" on="1"/>
        <pt x="260" y="482" on="0"/>
        <pt x="433" y="527" on="0"/>
        <pt x="581" y="555" on="0"/>
        <pt x="605" y="569" on="1"/>
        <pt x="650" y="596" on="0"/>
        <pt x="650" y="752" on="0"/>
        <pt x="571" y="860" on="0"/>
        <pt x="410" y="860" on="0"/>
        <pt x="259" y="683" on="0"/>
        <pt x="203" y="683" on="1"/>
        <pt x="132" y="683" on="0"/>
      </contour>
    </TTGlyph>
    <TTGlyph name="ae" xMin="82" yMin="-10" xMax="1466" yMax="976">
      <contour>
        <pt x="302" y="296" on="1"/>
        <pt x="302" y="260" on="1"/>
        <pt x="302" y="200" on="0"/>
        <pt x="376" y="136" on="0"/>
        <pt x="433" y="136" on="1"/>
        <pt x="466" y="136" on="1"/>
        <pt x="540" y="136" on="0"/>
        <pt x="669" y="226" on="0"/>
        <pt x="669" y="266" on="1"/>
        <pt x="669" y="300" on="1"/>
        <pt x="668" y="306" on="1"/>
        <pt x="666" y="335" on="1"/>
        <pt x="666" y="344" on="0"/>
        <pt x="666" y="353" on="1"/>
        <pt x="666" y="473" on="0"/>
        <pt x="635" y="473" on="1"/>
        <pt x="604" y="473" on="1"/>
        <pt x="574" y="468" on="0"/>
        <pt x="552" y="468" on="1"/>
        <pt x="501" y="461" on="1"/>
        <pt x="427" y="461" on="0"/>
        <pt x="351" y="402" on="1"/>
        <pt x="302" y="364" on="0"/>
      </contour>
      <contour>
        <pt x="845" y="591" on="1"/>
        <pt x="845" y="554" on="0"/>
        <pt x="902" y="554" on="1"/>
        <pt x="954" y="554" on="1"/>
        <pt x="960" y="555" on="1"/>
        <pt x="1130" y="566" on="1"/>
        <pt x="1164" y="570" on="1"/>
        <pt x="1236" y="570" on="0"/>
        <pt x="1236" y="622" on="1"/>
        <pt x="1236" y="658" on="1"/>
        <pt x="1234" y="670" on="0"/>
        <pt x="1234" y="676" on="1"/>
        <pt x="1234" y="734" on="0"/>
        <pt x="1140" y="855" on="0"/>
        <pt x="1074" y="855" on="1"/>
        <pt x="1038" y="855" on="1"/>
        <pt x="958" y="855" on="0"/>
        <pt x="847" y="712" on="0"/>
        <pt x="847" y="622" on="1"/>
        <pt x="845" y="609" on="1"/>
      </contour>
      <contour>
        <pt x="872" y="387" on="1"/>
        <pt x="872" y="326" on="0"/>
        <pt x="927" y="214" on="0"/>
        <pt x="959" y="186" on="1"/>
        <pt x="1028" y="126" on="0"/>
        <pt x="1134" y="126" on="1"/>
        <pt x="1192" y="126" on="0"/>
        <pt x="1267" y="151" on="0"/>
        <pt x="1393" y="201" on="0"/>
        <pt x="1394" y="201" on="1"/>
        <pt x="1439" y="201" on="0"/>
        <pt x="1439" y="168" on="1"/>
        <pt x="1439" y="106" on="0"/>
        <pt x="1211" y="-10" on="0"/>
        <pt x="993" y="-10" on="0"/>
        <pt x="857" y="38" on="0"/>
        <pt x="729" y="129" on="0"/>
        <pt x="697" y="129" on="0"/>
        <pt x="574" y="43" on="0"/>
        <pt x="443" y="-8" on="0"/>
        <pt x="236" y="-8" on="0"/>
        <pt x="82" y="118" on="0"/>
        <pt x="82" y="234" on="1"/>
        <pt x="82" y="450" on="0"/>
        <pt x="376" y="521" on="1"/>
        <pt x="592" y="573" on="0"/>
        <pt x="596" y="576" on="1"/>
        <pt x="639" y="603" on="0"/>
        <pt x="639" y="770" on="0"/>
        <pt x="550" y="861" on="0"/>
        <pt x="399" y="861" on="0"/>
        <pt x="267" y="692" on="0"/>
        <pt x="221" y="692" on="1"/>
        <pt x="192" y="692" on="0"/>
        <pt x="140" y="728" on="0"/>
        <pt x="140" y="764" on="1"/>
        <pt x="140" y="861" on="0"/>
        <pt x="359" y="972" on="0"/>
        <pt x="597" y="972" on="0"/>
        <pt x="780" y="890" on="0"/>
        <pt x="816" y="890" on="0"/>
        <pt x="856" y="911" on="1"/>
        <pt x="978" y="976" on="0"/>
        <pt x="1076" y="976" on="1"/>
        <pt x="1111" y="976" on="1"/>
        <pt x="1251" y="976" on="0"/>
        <pt x="1355" y="881" on="1"/>
        <pt x="1403" y="837" on="0"/>
        <pt x="1466" y="700" on="0"/>
        <pt x="1466" y="647" on="1"/>
        <pt x="1466" y="616" on="1"/>
        <pt x="1466" y="544" on="0"/>
        <pt x="1379" y="504" on="0"/>
        <pt x="972" y="479" on="0"/>
        <pt x="955" y="476" on="1"/>
        <pt x="872" y="461" on="0"/>
      </contour>
    </TTGlyph>
    <TTGlyph name="agrave" xMin="85" yMin="-28" xMax="992" yMax="1449">
      <contour>
        <pt x="569" y="467" on="1"/>
        <pt x="457" y="467" on="0"/>
        <pt x="358" y="401" on="1"/>
        <pt x="293" y="358" on="0"/>
        <pt x="293" y="272" on="1"/>
        <pt x="293" y="239" on="1"/>
        <pt x="293" y="180" on="0"/>
        <pt x="376" y="106" on="0"/>
        <pt x="427" y="106" on="1"/>
        <pt x="452" y="106" on="1"/>
        <pt x="519" y="106" on="0"/>
        <pt x="645" y="194" on="0"/>
        <pt x="645" y="242" on="1"/>
        <pt x="647" y="254" on="1"/>
        <pt x="650" y="303" on="1"/>
        <pt x="650" y="378" on="1"/>
        <pt x="650" y="469" on="0"/>
        <pt x="612" y="469" on="1"/>
        <pt x="588" y="469" on="1"/>
        <pt x="574" y="467" on="0"/>
      </contour>
      <contour>
        <pt x="236" y="1385" on="1"/>
        <pt x="236" y="1395" on="1"/>
        <pt x="236" y="1408" on="0"/>
        <pt x="283" y="1449" on="0"/>
        <pt x="336" y="1449" on="1"/>
        <pt x="342" y="1448" on="1"/>
        <pt x="403" y="1448" on="0"/>
        <pt x="504" y="1334" on="0"/>
        <pt x="630" y="1124" on="0"/>
        <pt x="630" y="1114" on="1"/>
        <pt x="630" y="1105" on="1"/>
        <pt x="630" y="1080" on="0"/>
        <pt x="590" y="1080" on="1"/>
        <pt x="574" y="1080" on="1"/>
        <pt x="539" y="1080" on="0"/>
        <pt x="236" y="1349" on="0"/>
      </contour>
      <contour>
        <pt x="492" y="962" on="1"/>
        <pt x="543" y="962" on="1"/>
        <pt x="742" y="962" on="0"/>
        <pt x="822" y="816" on="1"/>
        <pt x="859" y="748" on="0"/>
        <pt x="859" y="207" on="0"/>
        <pt x="883" y="133" on="0"/>
        <pt x="992" y="92" on="0"/>
        <pt x="992" y="74" on="1"/>
        <pt x="992" y="39" on="0"/>
        <pt x="956" y="20" on="1"/>
        <pt x="888" y="-16" on="0"/>
        <pt x="746" y="-16" on="0"/>
        <pt x="712" y="16" on="1"/>
        <pt x="652" y="72" on="0"/>
        <pt x="650" y="72" on="1"/>
        <pt x="635" y="72" on="0"/>
        <pt x="435" y="-28" on="0"/>
        <pt x="226" y="-28" on="0"/>
        <pt x="85" y="105" on="0"/>
        <pt x="85" y="203" on="1"/>
        <pt x="85" y="228" on="1"/>
        <pt x="85" y="341" on="0"/>
        <pt x="277" y="490" on="0"/>
        <pt x="494" y="531" on="1"/>
        <pt x="573" y="546" on="0"/>
        <pt x="600" y="562" on="1"/>
        <pt x="645" y="589" on="0"/>
        <pt x="645" y="742" on="0"/>
        <pt x="569" y="851" on="0"/>
        <pt x="404" y="851" on="0"/>
        <pt x="259" y="675" on="0"/>
        <pt x="203" y="675" on="1"/>
        <pt x="132" y="675" on="0"/>
        <pt x="132" y="841" on="0"/>
        <pt x="218" y="890" on="1"/>
        <pt x="343" y="962" on="0"/>
      </contour>
    </TTGlyph>
    <TTGlyph name="ampersand" xMin="101" yMin="-11" xMax="1355" yMax="1375">
      <contour>
        <pt x="487" y="1100" on="1"/>
        <pt x="487" y="1008" on="0"/>
        <pt x="566" y="895" on="1"/>
        <pt x="598" y="849" on="0"/>
        <pt x="616" y="849" on="1"/>
        <pt x="621" y="849" on="1"/>
        <pt x="667" y="849" on="0"/>
        <pt x="730" y="962" on="1"/>
        <pt x="759" y="1014" on="0"/>
        <pt x="759" y="1075" on="1"/>
        <pt x="759" y="1121" on="1"/>
        <pt x="759" y="1187" on="0"/>
        <pt x="682" y="1297" on="0"/>
        <pt x="625" y="1297" on="1"/>
        <pt x="620" y="1297" on="1"/>
        <pt x="573" y="1297" on="0"/>
        <pt x="491" y="1204" on="0"/>
        <pt x="491" y="1154" on="1"/>
        <pt x="487" y="1126" on="1"/>
      </contour>
      <contour>
        <pt x="305" y="407" on="1"/>
        <pt x="305" y="373" on="1"/>
        <pt x="305" y="275" on="0"/>
        <pt x="455" y="112" on="0"/>
        <pt x="562" y="112" on="1"/>
        <pt x="604" y="112" on="1"/>
        <pt x="673" y="112" on="0"/>
        <pt x="824" y="188" on="0"/>
        <pt x="824" y="226" on="1"/>
        <pt x="824" y="232" on="1"/>
        <pt x="824" y="241" on="0"/>
        <pt x="475" y="653" on="0"/>
        <pt x="464" y="653" on="1"/>
        <pt x="457" y="653" on="1"/>
        <pt x="415" y="653" on="0"/>
        <pt x="305" y="494" on="0"/>
      </contour>
      <contour>
        <pt x="1253" y="775" on="1"/>
        <pt x="1315" y="775" on="0"/>
        <pt x="1315" y="736" on="1"/>
        <pt x="1315" y="723" on="0"/>
        <pt x="1222" y="604" on="0"/>
        <pt x="1137" y="399" on="0"/>
        <pt x="1137" y="305" on="1"/>
        <pt x="1137" y="254" on="0"/>
        <pt x="1222" y="155" on="0"/>
        <pt x="1355" y="92" on="0"/>
        <pt x="1355" y="78" on="1"/>
        <pt x="1355" y="69" on="1"/>
        <pt x="1355" y="63" on="0"/>
        <pt x="1337" y="51" on="1"/>
        <pt x="1275" y="8" on="0"/>
        <pt x="1160" y="8" on="1"/>
        <pt x="1102" y="8" on="0"/>
        <pt x="925" y="74" on="0"/>
        <pt x="862" y="74" on="0"/>
        <pt x="736" y="32" on="1"/>
        <pt x="612" y="-10" on="0"/>
        <pt x="522" y="-11" on="1"/>
        <pt x="335" y="-11" on="0"/>
        <pt x="223" y="85" on="1"/>
        <pt x="161" y="139" on="0"/>
        <pt x="101" y="276" on="0"/>
        <pt x="101" y="336" on="1"/>
        <pt x="101" y="368" on="1"/>
        <pt x="101" y="523" on="0"/>
        <pt x="265" y="664" on="1"/>
        <pt x="358" y="744" on="0"/>
        <pt x="358" y="795" on="1"/>
        <pt x="358" y="804" on="0"/>
        <pt x="278" y="1000" on="0"/>
        <pt x="278" y="1061" on="1"/>
        <pt x="278" y="1203" on="0"/>
        <pt x="470" y="1375" on="0"/>
        <pt x="739" y="1375" on="0"/>
        <pt x="896" y="1226" on="0"/>
        <pt x="896" y="1033" on="0"/>
        <pt x="773" y="828" on="0"/>
        <pt x="773" y="670" on="0"/>
        <pt x="881" y="512" on="0"/>
        <pt x="989" y="512" on="0"/>
        <pt x="1039" y="598" on="0"/>
        <pt x="1039" y="649" on="1"/>
        <pt x="1032" y="703" on="1"/>
        <pt x="1032" y="775" on="0"/>
      </contour>
    </TTGlyph>
    <TTGlyph name="aring" xMin="79" yMin="-21" xMax="1004" yMax="1485">
      <contour>
        <pt x="520" y="1180" on="1"/>
        <pt x="559" y="1180" on="0"/>
        <pt x="619" y="1240" on="0"/>
        <pt x="619" y="1275" on="1"/>
        <pt x="619" y="1301" on="1"/>
        <pt x="619" y="1336" on="0"/>
        <pt x="560" y="1395" on="0"/>
        <pt x="536" y="1395" on="1"/>
        <pt x="518" y="1398" on="1"/>
        <pt x="503" y="1398" on="1"/>
        <pt x="478" y="1394" on="1"/>
        <pt x="455" y="1394" on="0"/>
        <pt x="407" y="1334" on="0"/>
        <pt x="407" y="1317" on="1"/>
        <pt x="404" y="1296" on="1"/>
        <pt x="404" y="1281" on="1"/>
        <pt x="408" y="1257" on="1"/>
        <pt x="408" y="1237" on="0"/>
        <pt x="461" y="1184" on="0"/>
        <pt x="492" y="1182" on="0"/>
        <pt x="495" y="1182" on="1"/>
        <pt x="509" y="1180" on="1"/>
      </contour>
      <contour>
        <pt x="302" y="285" on="1"/>
        <pt x="302" y="246" on="1"/>
        <pt x="302" y="186" on="0"/>
        <pt x="378" y="100" on="0"/>
        <pt x="432" y="100" on="1"/>
        <pt x="461" y="100" on="1"/>
        <pt x="471" y="102" on="0"/>
        <pt x="477" y="102" on="1"/>
        <pt x="563" y="102" on="0"/>
        <pt x="620" y="187" on="1"/>
        <pt x="645" y="225" on="0"/>
        <pt x="645" y="345" on="1"/>
        <pt x="645" y="364" on="1"/>
        <pt x="647" y="394" on="1"/>
        <pt x="647" y="418" on="1"/>
        <pt x="647" y="464" on="0"/>
        <pt x="614" y="464" on="1"/>
        <pt x="590" y="464" on="1"/>
        <pt x="552" y="460" on="1"/>
        <pt x="457" y="460" on="0"/>
        <pt x="302" y="363" on="0"/>
      </contour>
      <contour>
        <pt x="503" y="1485" on="1"/>
        <pt x="523" y="1485" on="1"/>
        <pt x="607" y="1485" on="0"/>
        <pt x="719" y="1373" on="0"/>
        <pt x="719" y="1292" on="1"/>
        <pt x="719" y="1286" on="1"/>
        <pt x="719" y="1204" on="0"/>
        <pt x="596" y="1093" on="0"/>
        <pt x="520" y="1093" on="1"/>
        <pt x="500" y="1093" on="1"/>
        <pt x="424" y="1093" on="0"/>
        <pt x="305" y="1199" on="0"/>
        <pt x="305" y="1272" on="1"/>
        <pt x="305" y="1305" on="1"/>
        <pt x="305" y="1375" on="0"/>
        <pt x="427" y="1485" on="0"/>
      </contour>
      <contour>
        <pt x="360" y="971" on="0"/>
        <pt x="621" y="971" on="0"/>
        <pt x="773" y="906" on="0"/>
        <pt x="866" y="756" on="0"/>
        <pt x="866" y="420" on="1"/>
        <pt x="866" y="214" on="0"/>
        <pt x="896" y="135" on="0"/>
        <pt x="1004" y="98" on="0"/>
        <pt x="1004" y="74" on="1"/>
        <pt x="1004" y="41" on="0"/>
        <pt x="898" y="-9" on="0"/>
        <pt x="751" y="-9" on="0"/>
        <pt x="662" y="80" on="0"/>
        <pt x="635" y="80" on="0"/>
        <pt x="535" y="25" on="0"/>
        <pt x="521" y="18" on="1"/>
        <pt x="439" y="-21" on="0"/>
        <pt x="362" y="-21" on="1"/>
        <pt x="337" y="-21" on="1"/>
        <pt x="219" y="-21" on="0"/>
        <pt x="149" y="49" on="1"/>
        <pt x="79" y="118" on="0"/>
        <pt x="79" y="232" on="1"/>
        <pt x="79" y="431" on="0"/>
        <pt x="362" y="511" on="1"/>
        <pt x="377" y="515" on="0"/>
        <pt x="568" y="552" on="0"/>
        <pt x="591" y="562" on="1"/>
        <pt x="646" y="586" on="0"/>
        <pt x="646" y="755" on="0"/>
        <pt x="564" y="856" on="0"/>
        <pt x="415" y="856" on="0"/>
        <pt x="258" y="680" on="0"/>
        <pt x="218" y="680" on="1"/>
        <pt x="136" y="680" on="0"/>
        <pt x="136" y="851" on="0"/>
        <pt x="231" y="902" on="1"/>
      </contour>
    </TTGlyph>
    <TTGlyph name="asciicircum" xMin="127" yMin="756" xMax="939" yMax="1380">
      <contour>
        <pt x="529" y="1188" on="1"/>
        <pt x="526" y="1188" on="0"/>
        <pt x="238" y="756" on="0"/>
        <pt x="197" y="756" on="1"/>
        <pt x="185" y="756" on="1"/>
        <pt x="127" y="756" on="0"/>
        <pt x="127" y="783" on="1"/>
        <pt x="127" y="825" on="0"/>
        <pt x="456" y="1329" on="1"/>
        <pt x="489" y="1380" on="0"/>
        <pt x="530" y="1380" on="1"/>
        <pt x="544" y="1380" on="1"/>
        <pt x="587" y="1380" on="0"/>
        <pt x="625" y="1321" on="1"/>
        <pt x="939" y="840" on="0"/>
        <pt x="939" y="783" on="1"/>
        <pt x="939" y="756" on="0"/>
        <pt x="880" y="756" on="1"/>
        <pt x="868" y="756" on="1"/>
        <pt x="814" y="756" on="0"/>
        <pt x="544" y="1188" on="0"/>
      </contour>
    </TTGlyph>
    <TTGlyph name="asciitilde" xMin="110" yMin="540" xMax="1034" yMax="826">
      <contour>
        <pt x="110" y="598" on="1"/>
        <pt x="110" y="620" on="1"/>
        <pt x="110" y="681" on="0"/>
        <pt x="274" y="826" on="0"/>
        <pt x="369" y="826" on="1"/>
        <pt x="380" y="826" on="1"/>
        <pt x="444" y="826" on="0"/>
        <pt x="743" y="696" on="0"/>
        <pt x="844" y="696" on="0"/>
        <pt x="995" y="803" on="0"/>
        <pt x="997" y="803" on="1"/>
        <pt x="1034" y="803" on="0"/>
        <pt x="1034" y="682" on="0"/>
        <pt x="873" y="540" on="0"/>
        <pt x="784" y="540" on="1"/>
        <pt x="773" y="540" on="1"/>
        <pt x="762" y="541" on="1"/>
        <pt x="689" y="541" on="0"/>
        <pt x="417" y="671" on="0"/>
        <pt x="299" y="671" on="0"/>
        <pt x="152" y="559" on="0"/>
        <pt x="148" y="559" on="1"/>
        <pt x="110" y="559" on="0"/>
      </contour>
    </TTGlyph>
</ttFont>
